M48
; DRILL file {KiCad 9.0.6} date 2025-12-30T17:34:52-0700
; FORMAT={-:-/ absolute / metric / decimal}
; #@! TF.CreationDate,2025-12-30T17:34:52-07:00
; #@! TF.GenerationSoftware,Kicad,Pcbnew,9.0.6
; #@! TF.FileFunction,NonPlated,1,2,NPTH
FMAT,2
METRIC
; #@! TA.AperFunction,NonPlated,NPTH,ComponentDrill
T1C1.200
; #@! TA.AperFunction,NonPlated,NPTH,ComponentDrill
T2C1.750
; #@! TA.AperFunction,NonPlated,NPTH,ComponentDrill
T3C2.200
; #@! TA.AperFunction,NonPlated,NPTH,ComponentDrill
T4C3.000
; #@! TA.AperFunction,NonPlated,NPTH,ComponentDrill
T5C3.048
; #@! TA.AperFunction,NonPlated,NPTH,ComponentDrill
T6C3.988
%
G90
G05
T1
X273.977Y-102.9
T2
X19.42Y-69.5
X19.42Y-126.675
X21.795Y-88.55
X24.17Y-107.6
X29.58Y-69.5
X29.58Y-126.675
X31.955Y-88.55
X34.33Y-107.6
X38.47Y-69.5
X38.47Y-126.65
X43.245Y-88.55
X47.995Y-107.6
X48.63Y-69.5
X48.63Y-126.65
X53.405Y-88.55
X57.52Y-69.5
X57.52Y-126.65
X58.155Y-107.6
X62.27Y-88.55
X67.045Y-107.6
X67.68Y-69.5
X67.68Y-126.65
X72.43Y-88.55
X76.57Y-69.5
X77.205Y-107.6
X78.945Y-126.65
X81.345Y-88.55
X86.095Y-107.6
X86.73Y-69.5
X89.105Y-126.65
X91.505Y-88.55
X95.62Y-69.5
X96.255Y-107.6
X100.37Y-88.55
X105.145Y-107.6
X105.78Y-69.5
X109.895Y-126.65
X110.53Y-88.55
X114.67Y-69.5
X115.305Y-107.6
X119.42Y-88.55
X120.055Y-126.65
X124.195Y-107.6
X124.83Y-69.5
X129.58Y-88.55
X133.72Y-69.5
X134.355Y-107.6
X138.47Y-88.55
X143.245Y-107.6
X143.88Y-69.5
X147.995Y-126.65
X148.63Y-88.55
X152.77Y-69.5
X153.405Y-107.6
X157.545Y-88.55
X158.155Y-126.65
X162.295Y-107.6
X162.93Y-69.5
X167.705Y-88.55
X171.82Y-69.5
X172.455Y-107.6
X176.57Y-88.55
X178.945Y-126.65
X181.345Y-107.6
X181.98Y-69.5
X186.73Y-88.55
X189.105Y-126.65
X190.87Y-69.5
X191.505Y-107.6
X195.62Y-88.55
X200.395Y-107.6
X200.395Y-126.65
X201.03Y-69.5
X205.78Y-88.55
X209.92Y-69.5
X210.555Y-107.6
X210.555Y-126.65
X214.67Y-88.55
X219.445Y-107.6
X219.445Y-126.65
X220.08Y-69.5
X224.83Y-88.55
X229.605Y-107.6
X229.605Y-126.65
X233.72Y-69.5
X236.095Y-88.55
X238.495Y-107.6
X238.495Y-126.65
X243.88Y-69.5
X246.255Y-88.55
X248.655Y-107.6
X248.655Y-126.65
T3
X255.725Y-62.6
X255.725Y-133.6
X277.5Y-62.6
X277.5Y-133.6
T4
X20.69Y-66.96
X20.69Y-124.135
X23.065Y-86.01
X25.44Y-105.06
X27.04Y-64.42
X27.04Y-121.595
X29.415Y-83.47
X31.79Y-102.52
X39.74Y-66.96
X39.74Y-124.11
X44.515Y-86.01
X46.09Y-64.42
X46.09Y-121.57
X49.265Y-105.06
X50.865Y-83.47
X55.615Y-102.52
X58.79Y-66.96
X58.79Y-124.11
X63.54Y-86.01
X65.14Y-64.42
X65.14Y-121.57
X68.315Y-105.06
X69.89Y-83.47
X74.665Y-102.52
X77.84Y-66.96
X80.215Y-124.11
X82.615Y-86.01
X84.19Y-64.42
X86.565Y-121.57
X87.365Y-105.06
X88.965Y-83.47
X93.715Y-102.52
X96.89Y-66.96
X101.64Y-86.01
X103.24Y-64.42
X106.415Y-105.06
X107.99Y-83.47
X111.165Y-124.11
X112.765Y-102.52
X115.94Y-66.96
X117.515Y-121.57
X120.69Y-86.01
X122.29Y-64.42
X125.465Y-105.06
X127.04Y-83.47
X131.815Y-102.52
X134.99Y-66.96
X139.74Y-86.01
X141.34Y-64.42
X144.515Y-105.06
X146.09Y-83.47
X149.265Y-124.11
X150.865Y-102.52
X154.04Y-66.96
X155.615Y-121.57
X158.815Y-86.01
X160.39Y-64.42
X163.565Y-105.06
X165.165Y-83.47
X169.915Y-102.52
X173.09Y-66.96
X177.84Y-86.01
X179.44Y-64.42
X180.215Y-124.11
X182.615Y-105.06
X184.19Y-83.47
X186.565Y-121.57
X188.965Y-102.52
X192.14Y-66.96
X196.89Y-86.01
X198.49Y-64.42
X201.665Y-105.06
X201.665Y-124.11
X203.24Y-83.47
X208.015Y-102.52
X208.015Y-121.57
X211.19Y-66.96
X215.94Y-86.01
X217.54Y-64.42
X220.715Y-105.06
X220.715Y-124.11
X222.29Y-83.47
X227.065Y-102.52
X227.065Y-121.57
X234.99Y-66.96
X237.365Y-86.01
X239.765Y-105.06
X239.765Y-124.11
X241.34Y-64.42
X243.715Y-83.47
X246.115Y-102.52
X246.115Y-121.57
T5
X103.037Y-133.635
X126.913Y-133.635
X141.137Y-133.635
X165.013Y-133.635
T6
X24.5Y-69.5
X24.5Y-126.675
X26.875Y-88.55
X29.25Y-107.6
X43.55Y-69.5
X43.55Y-126.65
X48.325Y-88.55
X53.075Y-107.6
X62.6Y-69.5
X62.6Y-126.65
X67.35Y-88.55
X72.125Y-107.6
X81.65Y-69.5
X84.025Y-126.65
X86.425Y-88.55
X91.175Y-107.6
X100.7Y-69.5
X103.037Y-118.395
X105.45Y-88.55
X110.225Y-107.6
X114.975Y-126.65
X119.75Y-69.5
X124.5Y-88.55
X126.913Y-118.395
X129.275Y-107.6
X138.8Y-69.5
X141.137Y-118.395
X143.55Y-88.55
X148.325Y-107.6
X153.075Y-126.65
X157.85Y-69.5
X162.625Y-88.55
X165.013Y-118.395
X167.375Y-107.6
X176.9Y-69.5
X181.65Y-88.55
X184.025Y-126.65
X186.425Y-107.6
X195.95Y-69.5
X200.7Y-88.55
X205.475Y-107.6
X205.475Y-126.65
X215.0Y-69.5
X219.75Y-88.55
X224.525Y-107.6
X224.525Y-126.65
X238.8Y-69.5
X241.175Y-88.55
X243.575Y-107.6
X243.575Y-126.65
M30
