%TF.GenerationSoftware,KiCad,Pcbnew,9.0.6*%
%TF.CreationDate,2025-12-30T17:34:46-07:00*%
%TF.ProjectId,Hotswap PCB,486f7473-7761-4702-9050-43422e6b6963,rev?*%
%TF.SameCoordinates,Original*%
%TF.FileFunction,Soldermask,Top*%
%TF.FilePolarity,Negative*%
%FSLAX46Y46*%
G04 Gerber Fmt 4.6, Leading zero omitted, Abs format (unit mm)*
G04 Created by KiCad (PCBNEW 9.0.6) date 2025-12-30 17:34:46*
%MOMM*%
%LPD*%
G01*
G04 APERTURE LIST*
G04 Aperture macros list*
%AMRoundRect*
0 Rectangle with rounded corners*
0 $1 Rounding radius*
0 $2 $3 $4 $5 $6 $7 $8 $9 X,Y pos of 4 corners*
0 Add a 4 corners polygon primitive as box body*
4,1,4,$2,$3,$4,$5,$6,$7,$8,$9,$2,$3,0*
0 Add four circle primitives for the rounded corners*
1,1,$1+$1,$2,$3*
1,1,$1+$1,$4,$5*
1,1,$1+$1,$6,$7*
1,1,$1+$1,$8,$9*
0 Add four rect primitives between the rounded corners*
20,1,$1+$1,$2,$3,$4,$5,0*
20,1,$1+$1,$4,$5,$6,$7,0*
20,1,$1+$1,$6,$7,$8,$9,0*
20,1,$1+$1,$8,$9,$2,$3,0*%
G04 Aperture macros list end*
%ADD10R,1.600000X1.600000*%
%ADD11C,1.600000*%
%ADD12C,1.750000*%
%ADD13C,3.000000*%
%ADD14C,3.987800*%
%ADD15C,3.048000*%
%ADD16O,7.001260X4.499360*%
%ADD17C,2.200000*%
%ADD18R,2.000000X2.000000*%
%ADD19C,2.000000*%
%ADD20R,2.000000X3.200000*%
%ADD21C,2.100000*%
%ADD22C,1.200000*%
%ADD23C,1.752600*%
%ADD24RoundRect,0.250000X0.625000X-0.350000X0.625000X0.350000X-0.625000X0.350000X-0.625000X-0.350000X0*%
%ADD25O,1.750000X1.200000*%
G04 APERTURE END LIST*
D10*
%TO.C,D6*%
X116100000Y-75500000D03*
D11*
X123900000Y-75500000D03*
%TD*%
D12*
%TO.C,K9*%
X171820000Y-69500000D03*
D13*
X173090000Y-66960000D03*
D14*
X176900000Y-69500000D03*
D13*
X179440000Y-64420000D03*
D12*
X181980000Y-69500000D03*
%TD*%
D10*
%TO.C,D39*%
X58600000Y-132500000D03*
D11*
X66400000Y-132500000D03*
%TD*%
D10*
%TO.C,D9*%
X173100000Y-75500000D03*
D11*
X180900000Y-75500000D03*
%TD*%
D10*
%TO.C,D35*%
X220600000Y-113500000D03*
D11*
X228400000Y-113500000D03*
%TD*%
D10*
%TO.C,D20*%
X159100000Y-94500000D03*
D11*
X166900000Y-94500000D03*
%TD*%
D10*
%TO.C,D1*%
X20600000Y-75500000D03*
D11*
X28400000Y-75500000D03*
%TD*%
D12*
%TO.C,K29*%
X105145000Y-107600000D03*
D13*
X106415000Y-105060000D03*
D14*
X110225000Y-107600000D03*
D13*
X112765000Y-102520000D03*
D12*
X115305000Y-107600000D03*
%TD*%
%TO.C,K38*%
X38470000Y-126650000D03*
D13*
X39740000Y-124110000D03*
D14*
X43550000Y-126650000D03*
D13*
X46090000Y-121570000D03*
D12*
X48630000Y-126650000D03*
%TD*%
D14*
%TO.C,K42*%
X141137000Y-118395000D03*
D15*
X141137000Y-133635000D03*
D12*
X147995000Y-126650000D03*
D13*
X149265000Y-124110000D03*
D14*
X153075000Y-126650000D03*
D13*
X155615000Y-121570000D03*
D12*
X158155000Y-126650000D03*
D14*
X165013000Y-118395000D03*
D15*
X165013000Y-133635000D03*
%TD*%
D12*
%TO.C,K10*%
X190870000Y-69500000D03*
D13*
X192140000Y-66960000D03*
D14*
X195950000Y-69500000D03*
D13*
X198490000Y-64420000D03*
D12*
X201030000Y-69500000D03*
%TD*%
D16*
%TO.C,Mnt*%
X249400000Y-117100000D03*
%TD*%
D10*
%TO.C,D31*%
X144600000Y-113500000D03*
D11*
X152400000Y-113500000D03*
%TD*%
D10*
%TO.C,D27*%
X68600000Y-113500000D03*
D11*
X76400000Y-113500000D03*
%TD*%
D10*
%TO.C,D10*%
X192100000Y-75500000D03*
D11*
X199900000Y-75500000D03*
%TD*%
D10*
%TO.C,D11*%
X211100000Y-75500000D03*
D11*
X218900000Y-75500000D03*
%TD*%
D17*
%TO.C,Acryl Mount*%
X255725000Y-133600000D03*
%TD*%
D12*
%TO.C,K43*%
X178945000Y-126650000D03*
D13*
X180215000Y-124110000D03*
D14*
X184025000Y-126650000D03*
D13*
X186565000Y-121570000D03*
D12*
X189105000Y-126650000D03*
%TD*%
D10*
%TO.C,D41*%
X111100000Y-132500000D03*
D11*
X118900000Y-132500000D03*
%TD*%
D10*
%TO.C,D34*%
X201600000Y-113500000D03*
D11*
X209400000Y-113500000D03*
%TD*%
D10*
%TO.C,D24*%
X237600000Y-94500000D03*
D11*
X245400000Y-94500000D03*
%TD*%
D10*
%TO.C,D48*%
X274770000Y-120640000D03*
D11*
X274770000Y-128440000D03*
%TD*%
D12*
%TO.C,K28*%
X86095000Y-107600000D03*
D13*
X87365000Y-105060000D03*
D14*
X91175000Y-107600000D03*
D13*
X93715000Y-102520000D03*
D12*
X96255000Y-107600000D03*
%TD*%
%TO.C,K31*%
X143245000Y-107600000D03*
D13*
X144515000Y-105060000D03*
D14*
X148325000Y-107600000D03*
D13*
X150865000Y-102520000D03*
D12*
X153405000Y-107600000D03*
%TD*%
D10*
%TO.C,D29*%
X106600000Y-113500000D03*
D11*
X114400000Y-113500000D03*
%TD*%
D12*
%TO.C,K19*%
X138470000Y-88550000D03*
D13*
X139740000Y-86010000D03*
D14*
X143550000Y-88550000D03*
D13*
X146090000Y-83470000D03*
D12*
X148630000Y-88550000D03*
%TD*%
D10*
%TO.C,D44*%
X201600000Y-132500000D03*
D11*
X209400000Y-132500000D03*
%TD*%
D12*
%TO.C,K2*%
X38470000Y-69500000D03*
D13*
X39740000Y-66960000D03*
D14*
X43550000Y-69500000D03*
D13*
X46090000Y-64420000D03*
D12*
X48630000Y-69500000D03*
%TD*%
%TO.C,K39*%
X57520000Y-126650000D03*
D13*
X58790000Y-124110000D03*
D14*
X62600000Y-126650000D03*
D13*
X65140000Y-121570000D03*
D12*
X67680000Y-126650000D03*
%TD*%
%TO.C,K37*%
X19420000Y-126675000D03*
D13*
X20690000Y-124135000D03*
D14*
X24500000Y-126675000D03*
D13*
X27040000Y-121595000D03*
D12*
X29580000Y-126675000D03*
%TD*%
D10*
%TO.C,D19*%
X139600000Y-94500000D03*
D11*
X147400000Y-94500000D03*
%TD*%
D10*
%TO.C,D8*%
X154100000Y-75500000D03*
D11*
X161900000Y-75500000D03*
%TD*%
D17*
%TO.C,Acryl Mount*%
X277500000Y-133600000D03*
%TD*%
D12*
%TO.C,K46*%
X238495000Y-126650000D03*
D13*
X239765000Y-124110000D03*
D14*
X243575000Y-126650000D03*
D13*
X246115000Y-121570000D03*
D12*
X248655000Y-126650000D03*
%TD*%
%TO.C,K22*%
X195620000Y-88550000D03*
D13*
X196890000Y-86010000D03*
D14*
X200700000Y-88550000D03*
D13*
X203240000Y-83470000D03*
D12*
X205780000Y-88550000D03*
%TD*%
D10*
%TO.C,D14*%
X44600000Y-94500000D03*
D11*
X52400000Y-94500000D03*
%TD*%
D10*
%TO.C,D22*%
X197000000Y-94500000D03*
D11*
X204800000Y-94500000D03*
%TD*%
D10*
%TO.C,D4*%
X78100000Y-75500000D03*
D11*
X85900000Y-75500000D03*
%TD*%
D18*
%TO.C,SW1*%
X269112500Y-108500000D03*
D19*
X264112500Y-108500000D03*
X266612500Y-108500000D03*
D20*
X272212500Y-116000000D03*
X261012500Y-116000000D03*
D19*
X264112500Y-123000000D03*
X269112500Y-123000000D03*
%TD*%
D12*
%TO.C,K14*%
X43245000Y-88550000D03*
D13*
X44515000Y-86010000D03*
D14*
X48325000Y-88550000D03*
D13*
X50865000Y-83470000D03*
D12*
X53405000Y-88550000D03*
%TD*%
%TO.C,K1*%
X19420000Y-69500000D03*
D13*
X20690000Y-66960000D03*
D14*
X24500000Y-69500000D03*
D13*
X27040000Y-64420000D03*
D12*
X29580000Y-69500000D03*
%TD*%
%TO.C,K15*%
X62270000Y-88550000D03*
D13*
X63540000Y-86010000D03*
D14*
X67350000Y-88550000D03*
D13*
X69890000Y-83470000D03*
D12*
X72430000Y-88550000D03*
%TD*%
%TO.C,K36*%
X238495000Y-107600000D03*
D13*
X239765000Y-105060000D03*
D14*
X243575000Y-107600000D03*
D13*
X246115000Y-102520000D03*
D12*
X248655000Y-107600000D03*
%TD*%
%TO.C,K12*%
X233720000Y-69500000D03*
D13*
X234990000Y-66960000D03*
D14*
X238800000Y-69500000D03*
D13*
X241340000Y-64420000D03*
D12*
X243880000Y-69500000D03*
%TD*%
%TO.C,K18*%
X119420000Y-88550000D03*
D13*
X120690000Y-86010000D03*
D14*
X124500000Y-88550000D03*
D13*
X127040000Y-83470000D03*
D12*
X129580000Y-88550000D03*
%TD*%
%TO.C,K11*%
X209920000Y-69500000D03*
D13*
X211190000Y-66960000D03*
D14*
X215000000Y-69500000D03*
D13*
X217540000Y-64420000D03*
D12*
X220080000Y-69500000D03*
%TD*%
D10*
%TO.C,D32*%
X163600000Y-113500000D03*
D11*
X171400000Y-113500000D03*
%TD*%
D10*
%TO.C,D49*%
X276780000Y-119170000D03*
D11*
X276780000Y-126970000D03*
%TD*%
D10*
%TO.C,D2*%
X39600000Y-75500000D03*
D11*
X47400000Y-75500000D03*
%TD*%
D16*
%TO.C,Mnt*%
X249400000Y-79000000D03*
%TD*%
D10*
%TO.C,D26*%
X49100000Y-113500000D03*
D11*
X56900000Y-113500000D03*
%TD*%
D12*
%TO.C,K5*%
X95620000Y-69500000D03*
D13*
X96890000Y-66960000D03*
D14*
X100700000Y-69500000D03*
D13*
X103240000Y-64420000D03*
D12*
X105780000Y-69500000D03*
%TD*%
%TO.C,K44*%
X200395000Y-126650000D03*
D13*
X201665000Y-124110000D03*
D14*
X205475000Y-126650000D03*
D13*
X208015000Y-121570000D03*
D12*
X210555000Y-126650000D03*
%TD*%
D10*
%TO.C,D25*%
X25600000Y-113500000D03*
D11*
X33400000Y-113500000D03*
%TD*%
D12*
%TO.C,K8*%
X152770000Y-69500000D03*
D13*
X154040000Y-66960000D03*
D14*
X157850000Y-69500000D03*
D13*
X160390000Y-64420000D03*
D12*
X162930000Y-69500000D03*
%TD*%
%TO.C,K30*%
X124195000Y-107600000D03*
D13*
X125465000Y-105060000D03*
D14*
X129275000Y-107600000D03*
D13*
X131815000Y-102520000D03*
D12*
X134355000Y-107600000D03*
%TD*%
%TO.C,K32*%
X162295000Y-107600000D03*
D13*
X163565000Y-105060000D03*
D14*
X167375000Y-107600000D03*
D13*
X169915000Y-102520000D03*
D12*
X172455000Y-107600000D03*
%TD*%
%TO.C,K45*%
X219445000Y-126650000D03*
D13*
X220715000Y-124110000D03*
D14*
X224525000Y-126650000D03*
D13*
X227065000Y-121570000D03*
D12*
X229605000Y-126650000D03*
%TD*%
%TO.C,K4*%
X76570000Y-69500000D03*
D13*
X77840000Y-66960000D03*
D14*
X81650000Y-69500000D03*
D13*
X84190000Y-64420000D03*
D12*
X86730000Y-69500000D03*
%TD*%
D10*
%TO.C,D5*%
X97100000Y-75500000D03*
D11*
X104900000Y-75500000D03*
%TD*%
D10*
%TO.C,D45*%
X220600000Y-132500000D03*
D11*
X228400000Y-132500000D03*
%TD*%
D12*
%TO.C,K40*%
X78945000Y-126650000D03*
D13*
X80215000Y-124110000D03*
D14*
X84025000Y-126650000D03*
D13*
X86565000Y-121570000D03*
D12*
X89105000Y-126650000D03*
%TD*%
D10*
%TO.C,D12*%
X235100000Y-75500000D03*
D11*
X242900000Y-75500000D03*
%TD*%
D12*
%TO.C,K17*%
X100370000Y-88550000D03*
D13*
X101640000Y-86010000D03*
D14*
X105450000Y-88550000D03*
D13*
X107990000Y-83470000D03*
D12*
X110530000Y-88550000D03*
%TD*%
%TO.C,K3*%
X57520000Y-69500000D03*
D13*
X58790000Y-66960000D03*
D14*
X62600000Y-69500000D03*
D13*
X65140000Y-64420000D03*
D12*
X67680000Y-69500000D03*
%TD*%
%TO.C,K21*%
X176570000Y-88550000D03*
D13*
X177840000Y-86010000D03*
D14*
X181650000Y-88550000D03*
D13*
X184190000Y-83470000D03*
D12*
X186730000Y-88550000D03*
%TD*%
%TO.C,K20*%
X157545000Y-88550000D03*
D13*
X158815000Y-86010000D03*
D14*
X162625000Y-88550000D03*
D13*
X165165000Y-83470000D03*
D12*
X167705000Y-88550000D03*
%TD*%
%TO.C,K16*%
X81345000Y-88550000D03*
D13*
X82615000Y-86010000D03*
D14*
X86425000Y-88550000D03*
D13*
X88965000Y-83470000D03*
D12*
X91505000Y-88550000D03*
%TD*%
%TO.C,K27*%
X67045000Y-107600000D03*
D13*
X68315000Y-105060000D03*
D14*
X72125000Y-107600000D03*
D13*
X74665000Y-102520000D03*
D12*
X77205000Y-107600000D03*
%TD*%
D10*
%TO.C,D33*%
X182600000Y-113500000D03*
D11*
X190400000Y-113500000D03*
%TD*%
D16*
%TO.C,Mnt*%
X18800000Y-79000000D03*
%TD*%
D12*
%TO.C,K34*%
X200395000Y-107600000D03*
D13*
X201665000Y-105060000D03*
D14*
X205475000Y-107600000D03*
D13*
X208015000Y-102520000D03*
D12*
X210555000Y-107600000D03*
%TD*%
D10*
%TO.C,D28*%
X87600000Y-113500000D03*
D11*
X95400000Y-113500000D03*
%TD*%
D10*
%TO.C,D15*%
X63600000Y-94500000D03*
D11*
X71400000Y-94500000D03*
%TD*%
D12*
%TO.C,K26*%
X47995000Y-107600000D03*
D13*
X49265000Y-105060000D03*
D14*
X53075000Y-107600000D03*
D13*
X55615000Y-102520000D03*
D12*
X58155000Y-107600000D03*
%TD*%
D17*
%TO.C,Acryl Mount*%
X255725000Y-62600000D03*
%TD*%
D10*
%TO.C,D7*%
X135100000Y-75500000D03*
D11*
X142900000Y-75500000D03*
%TD*%
D10*
%TO.C,D37*%
X20680000Y-132500000D03*
D11*
X28480000Y-132500000D03*
%TD*%
D12*
%TO.C,K7*%
X133720000Y-69500000D03*
D13*
X134990000Y-66960000D03*
D14*
X138800000Y-69500000D03*
D13*
X141340000Y-64420000D03*
D12*
X143880000Y-69500000D03*
%TD*%
D10*
%TO.C,D16*%
X82600000Y-94500000D03*
D11*
X90400000Y-94500000D03*
%TD*%
D12*
%TO.C,K33*%
X181345000Y-107600000D03*
D13*
X182615000Y-105060000D03*
D14*
X186425000Y-107600000D03*
D13*
X188965000Y-102520000D03*
D12*
X191505000Y-107600000D03*
%TD*%
D10*
%TO.C,D17*%
X101600000Y-94500000D03*
D11*
X109400000Y-94500000D03*
%TD*%
D10*
%TO.C,D38*%
X39600000Y-132500000D03*
D11*
X47400000Y-132500000D03*
%TD*%
D12*
%TO.C,K35*%
X219445000Y-107600000D03*
D13*
X220715000Y-105060000D03*
D14*
X224525000Y-107600000D03*
D13*
X227065000Y-102520000D03*
D12*
X229605000Y-107600000D03*
%TD*%
%TO.C,K24*%
X236095000Y-88550000D03*
D13*
X237365000Y-86010000D03*
D14*
X241175000Y-88550000D03*
D13*
X243715000Y-83470000D03*
D12*
X246255000Y-88550000D03*
%TD*%
D10*
%TO.C,D46*%
X239600000Y-132500000D03*
D11*
X247400000Y-132500000D03*
%TD*%
D12*
%TO.C,K6*%
X114670000Y-69500000D03*
D13*
X115940000Y-66960000D03*
D14*
X119750000Y-69500000D03*
D13*
X122290000Y-64420000D03*
D12*
X124830000Y-69500000D03*
%TD*%
D16*
%TO.C,Mnt*%
X18800000Y-117100000D03*
%TD*%
D10*
%TO.C,D23*%
X216100000Y-94500000D03*
D11*
X223900000Y-94500000D03*
%TD*%
D12*
%TO.C,K13*%
X21795000Y-88550000D03*
D13*
X23065000Y-86010000D03*
D14*
X26875000Y-88550000D03*
D13*
X29415000Y-83470000D03*
D12*
X31955000Y-88550000D03*
%TD*%
D10*
%TO.C,D43*%
X180100000Y-132500000D03*
D11*
X187900000Y-132500000D03*
%TD*%
D10*
%TO.C,D47*%
X262625000Y-129875000D03*
D11*
X270425000Y-129875000D03*
%TD*%
D10*
%TO.C,D40*%
X80100000Y-132500000D03*
D11*
X87900000Y-132500000D03*
%TD*%
D10*
%TO.C,D18*%
X120600000Y-94500000D03*
D11*
X128400000Y-94500000D03*
%TD*%
D17*
%TO.C,Acryl Mount*%
X277500000Y-62600000D03*
%TD*%
D10*
%TO.C,D13*%
X23100000Y-94500000D03*
D11*
X30900000Y-94500000D03*
%TD*%
D12*
%TO.C,K23*%
X214670000Y-88550000D03*
D13*
X215940000Y-86010000D03*
D14*
X219750000Y-88550000D03*
D13*
X222290000Y-83470000D03*
D12*
X224830000Y-88550000D03*
%TD*%
%TO.C,K25*%
X24170000Y-107600000D03*
D13*
X25440000Y-105060000D03*
D14*
X29250000Y-107600000D03*
D13*
X31790000Y-102520000D03*
D12*
X34330000Y-107600000D03*
%TD*%
D10*
%TO.C,D36*%
X239600000Y-113500000D03*
D11*
X247400000Y-113500000D03*
%TD*%
D10*
%TO.C,D30*%
X125600000Y-113500000D03*
D11*
X133400000Y-113500000D03*
%TD*%
D10*
%TO.C,D3*%
X59100000Y-75500000D03*
D11*
X66900000Y-75500000D03*
%TD*%
D10*
%TO.C,D21*%
X178000000Y-94500000D03*
D11*
X185800000Y-94500000D03*
%TD*%
D14*
%TO.C,K41*%
X103037000Y-118395000D03*
D15*
X103037000Y-133635000D03*
D12*
X109895000Y-126650000D03*
D13*
X111165000Y-124110000D03*
D14*
X114975000Y-126650000D03*
D13*
X117515000Y-121570000D03*
D12*
X120055000Y-126650000D03*
D14*
X126913000Y-118395000D03*
D15*
X126913000Y-133635000D03*
%TD*%
D10*
%TO.C,D42*%
X149100000Y-132500000D03*
D11*
X156900000Y-132500000D03*
%TD*%
D21*
%TO.C,SW2*%
X277677500Y-106400000D03*
D22*
X273977500Y-102900000D03*
D21*
X277677500Y-99390000D03*
D12*
X275187500Y-105400000D03*
X275187500Y-100400000D03*
%TD*%
D23*
%TO.C,U2*%
X274232500Y-64530000D03*
X274232500Y-67070000D03*
X274232500Y-69610000D03*
X274232500Y-72150000D03*
X274232500Y-74690000D03*
X274232500Y-77230000D03*
X274232500Y-79770000D03*
X274232500Y-82310000D03*
X274232500Y-84850000D03*
X274232500Y-87390000D03*
X274232500Y-89930000D03*
X274232500Y-92470000D03*
X258992500Y-92470000D03*
X258992500Y-89930000D03*
X258992500Y-87390000D03*
X258992500Y-84850000D03*
X258992500Y-82310000D03*
X258992500Y-79770000D03*
X258992500Y-77230000D03*
X258992500Y-74690000D03*
X258992500Y-72150000D03*
X258992500Y-69610000D03*
X258992500Y-67070000D03*
X258992500Y-64530000D03*
X271692500Y-87390000D03*
X269152500Y-87390000D03*
X266612500Y-87390000D03*
%TD*%
D24*
%TO.C,J2*%
X269200000Y-103800000D03*
D25*
X269200000Y-101800000D03*
%TD*%
M02*
