%TF.GenerationSoftware,KiCad,Pcbnew,9.0.6*%
%TF.CreationDate,2025-12-30T17:34:46-07:00*%
%TF.ProjectId,Hotswap PCB,486f7473-7761-4702-9050-43422e6b6963,rev?*%
%TF.SameCoordinates,Original*%
%TF.FileFunction,Legend,Bot*%
%TF.FilePolarity,Positive*%
%FSLAX46Y46*%
G04 Gerber Fmt 4.6, Leading zero omitted, Abs format (unit mm)*
G04 Created by KiCad (PCBNEW 9.0.6) date 2025-12-30 17:34:46*
%MOMM*%
%LPD*%
G01*
G04 APERTURE LIST*
%ADD10C,0.150000*%
%ADD11C,0.300000*%
%ADD12C,0.381000*%
%ADD13C,0.120000*%
%ADD14C,1.752600*%
G04 APERTURE END LIST*
D10*
X267219048Y-103848866D02*
X267980953Y-103848866D01*
X267600000Y-104229819D02*
X267600000Y-103467914D01*
X267219048Y-101798866D02*
X267980953Y-101798866D01*
X120615875Y-74462295D02*
X120615875Y-73662295D01*
X120615875Y-73662295D02*
X120425399Y-73662295D01*
X120425399Y-73662295D02*
X120311113Y-73700390D01*
X120311113Y-73700390D02*
X120234923Y-73776580D01*
X120234923Y-73776580D02*
X120196828Y-73852771D01*
X120196828Y-73852771D02*
X120158732Y-74005152D01*
X120158732Y-74005152D02*
X120158732Y-74119438D01*
X120158732Y-74119438D02*
X120196828Y-74271819D01*
X120196828Y-74271819D02*
X120234923Y-74348009D01*
X120234923Y-74348009D02*
X120311113Y-74424200D01*
X120311113Y-74424200D02*
X120425399Y-74462295D01*
X120425399Y-74462295D02*
X120615875Y-74462295D01*
X119473018Y-73662295D02*
X119625399Y-73662295D01*
X119625399Y-73662295D02*
X119701590Y-73700390D01*
X119701590Y-73700390D02*
X119739685Y-73738485D01*
X119739685Y-73738485D02*
X119815875Y-73852771D01*
X119815875Y-73852771D02*
X119853971Y-74005152D01*
X119853971Y-74005152D02*
X119853971Y-74309914D01*
X119853971Y-74309914D02*
X119815875Y-74386104D01*
X119815875Y-74386104D02*
X119777780Y-74424200D01*
X119777780Y-74424200D02*
X119701590Y-74462295D01*
X119701590Y-74462295D02*
X119549209Y-74462295D01*
X119549209Y-74462295D02*
X119473018Y-74424200D01*
X119473018Y-74424200D02*
X119434923Y-74386104D01*
X119434923Y-74386104D02*
X119396828Y-74309914D01*
X119396828Y-74309914D02*
X119396828Y-74119438D01*
X119396828Y-74119438D02*
X119434923Y-74043247D01*
X119434923Y-74043247D02*
X119473018Y-74005152D01*
X119473018Y-74005152D02*
X119549209Y-73967057D01*
X119549209Y-73967057D02*
X119701590Y-73967057D01*
X119701590Y-73967057D02*
X119777780Y-74005152D01*
X119777780Y-74005152D02*
X119815875Y-74043247D01*
X119815875Y-74043247D02*
X119853971Y-74119438D01*
X63446428Y-134287295D02*
X63446428Y-133487295D01*
X63446428Y-133487295D02*
X63255952Y-133487295D01*
X63255952Y-133487295D02*
X63141666Y-133525390D01*
X63141666Y-133525390D02*
X63065476Y-133601580D01*
X63065476Y-133601580D02*
X63027381Y-133677771D01*
X63027381Y-133677771D02*
X62989285Y-133830152D01*
X62989285Y-133830152D02*
X62989285Y-133944438D01*
X62989285Y-133944438D02*
X63027381Y-134096819D01*
X63027381Y-134096819D02*
X63065476Y-134173009D01*
X63065476Y-134173009D02*
X63141666Y-134249200D01*
X63141666Y-134249200D02*
X63255952Y-134287295D01*
X63255952Y-134287295D02*
X63446428Y-134287295D01*
X62722619Y-133487295D02*
X62227381Y-133487295D01*
X62227381Y-133487295D02*
X62494047Y-133792057D01*
X62494047Y-133792057D02*
X62379762Y-133792057D01*
X62379762Y-133792057D02*
X62303571Y-133830152D01*
X62303571Y-133830152D02*
X62265476Y-133868247D01*
X62265476Y-133868247D02*
X62227381Y-133944438D01*
X62227381Y-133944438D02*
X62227381Y-134134914D01*
X62227381Y-134134914D02*
X62265476Y-134211104D01*
X62265476Y-134211104D02*
X62303571Y-134249200D01*
X62303571Y-134249200D02*
X62379762Y-134287295D01*
X62379762Y-134287295D02*
X62608333Y-134287295D01*
X62608333Y-134287295D02*
X62684524Y-134249200D01*
X62684524Y-134249200D02*
X62722619Y-134211104D01*
X61846428Y-134287295D02*
X61694047Y-134287295D01*
X61694047Y-134287295D02*
X61617857Y-134249200D01*
X61617857Y-134249200D02*
X61579761Y-134211104D01*
X61579761Y-134211104D02*
X61503571Y-134096819D01*
X61503571Y-134096819D02*
X61465476Y-133944438D01*
X61465476Y-133944438D02*
X61465476Y-133639676D01*
X61465476Y-133639676D02*
X61503571Y-133563485D01*
X61503571Y-133563485D02*
X61541666Y-133525390D01*
X61541666Y-133525390D02*
X61617857Y-133487295D01*
X61617857Y-133487295D02*
X61770238Y-133487295D01*
X61770238Y-133487295D02*
X61846428Y-133525390D01*
X61846428Y-133525390D02*
X61884523Y-133563485D01*
X61884523Y-133563485D02*
X61922619Y-133639676D01*
X61922619Y-133639676D02*
X61922619Y-133830152D01*
X61922619Y-133830152D02*
X61884523Y-133906342D01*
X61884523Y-133906342D02*
X61846428Y-133944438D01*
X61846428Y-133944438D02*
X61770238Y-133982533D01*
X61770238Y-133982533D02*
X61617857Y-133982533D01*
X61617857Y-133982533D02*
X61541666Y-133944438D01*
X61541666Y-133944438D02*
X61503571Y-133906342D01*
X61503571Y-133906342D02*
X61465476Y-133830152D01*
X177615875Y-74462295D02*
X177615875Y-73662295D01*
X177615875Y-73662295D02*
X177425399Y-73662295D01*
X177425399Y-73662295D02*
X177311113Y-73700390D01*
X177311113Y-73700390D02*
X177234923Y-73776580D01*
X177234923Y-73776580D02*
X177196828Y-73852771D01*
X177196828Y-73852771D02*
X177158732Y-74005152D01*
X177158732Y-74005152D02*
X177158732Y-74119438D01*
X177158732Y-74119438D02*
X177196828Y-74271819D01*
X177196828Y-74271819D02*
X177234923Y-74348009D01*
X177234923Y-74348009D02*
X177311113Y-74424200D01*
X177311113Y-74424200D02*
X177425399Y-74462295D01*
X177425399Y-74462295D02*
X177615875Y-74462295D01*
X176777780Y-74462295D02*
X176625399Y-74462295D01*
X176625399Y-74462295D02*
X176549209Y-74424200D01*
X176549209Y-74424200D02*
X176511113Y-74386104D01*
X176511113Y-74386104D02*
X176434923Y-74271819D01*
X176434923Y-74271819D02*
X176396828Y-74119438D01*
X176396828Y-74119438D02*
X176396828Y-73814676D01*
X176396828Y-73814676D02*
X176434923Y-73738485D01*
X176434923Y-73738485D02*
X176473018Y-73700390D01*
X176473018Y-73700390D02*
X176549209Y-73662295D01*
X176549209Y-73662295D02*
X176701590Y-73662295D01*
X176701590Y-73662295D02*
X176777780Y-73700390D01*
X176777780Y-73700390D02*
X176815875Y-73738485D01*
X176815875Y-73738485D02*
X176853971Y-73814676D01*
X176853971Y-73814676D02*
X176853971Y-74005152D01*
X176853971Y-74005152D02*
X176815875Y-74081342D01*
X176815875Y-74081342D02*
X176777780Y-74119438D01*
X176777780Y-74119438D02*
X176701590Y-74157533D01*
X176701590Y-74157533D02*
X176549209Y-74157533D01*
X176549209Y-74157533D02*
X176473018Y-74119438D01*
X176473018Y-74119438D02*
X176434923Y-74081342D01*
X176434923Y-74081342D02*
X176396828Y-74005152D01*
X225496828Y-112462295D02*
X225496828Y-111662295D01*
X225496828Y-111662295D02*
X225306352Y-111662295D01*
X225306352Y-111662295D02*
X225192066Y-111700390D01*
X225192066Y-111700390D02*
X225115876Y-111776580D01*
X225115876Y-111776580D02*
X225077781Y-111852771D01*
X225077781Y-111852771D02*
X225039685Y-112005152D01*
X225039685Y-112005152D02*
X225039685Y-112119438D01*
X225039685Y-112119438D02*
X225077781Y-112271819D01*
X225077781Y-112271819D02*
X225115876Y-112348009D01*
X225115876Y-112348009D02*
X225192066Y-112424200D01*
X225192066Y-112424200D02*
X225306352Y-112462295D01*
X225306352Y-112462295D02*
X225496828Y-112462295D01*
X224773019Y-111662295D02*
X224277781Y-111662295D01*
X224277781Y-111662295D02*
X224544447Y-111967057D01*
X224544447Y-111967057D02*
X224430162Y-111967057D01*
X224430162Y-111967057D02*
X224353971Y-112005152D01*
X224353971Y-112005152D02*
X224315876Y-112043247D01*
X224315876Y-112043247D02*
X224277781Y-112119438D01*
X224277781Y-112119438D02*
X224277781Y-112309914D01*
X224277781Y-112309914D02*
X224315876Y-112386104D01*
X224315876Y-112386104D02*
X224353971Y-112424200D01*
X224353971Y-112424200D02*
X224430162Y-112462295D01*
X224430162Y-112462295D02*
X224658733Y-112462295D01*
X224658733Y-112462295D02*
X224734924Y-112424200D01*
X224734924Y-112424200D02*
X224773019Y-112386104D01*
X223553971Y-111662295D02*
X223934923Y-111662295D01*
X223934923Y-111662295D02*
X223973019Y-112043247D01*
X223973019Y-112043247D02*
X223934923Y-112005152D01*
X223934923Y-112005152D02*
X223858733Y-111967057D01*
X223858733Y-111967057D02*
X223668257Y-111967057D01*
X223668257Y-111967057D02*
X223592066Y-112005152D01*
X223592066Y-112005152D02*
X223553971Y-112043247D01*
X223553971Y-112043247D02*
X223515876Y-112119438D01*
X223515876Y-112119438D02*
X223515876Y-112309914D01*
X223515876Y-112309914D02*
X223553971Y-112386104D01*
X223553971Y-112386104D02*
X223592066Y-112424200D01*
X223592066Y-112424200D02*
X223668257Y-112462295D01*
X223668257Y-112462295D02*
X223858733Y-112462295D01*
X223858733Y-112462295D02*
X223934923Y-112424200D01*
X223934923Y-112424200D02*
X223973019Y-112386104D01*
X163996828Y-93462295D02*
X163996828Y-92662295D01*
X163996828Y-92662295D02*
X163806352Y-92662295D01*
X163806352Y-92662295D02*
X163692066Y-92700390D01*
X163692066Y-92700390D02*
X163615876Y-92776580D01*
X163615876Y-92776580D02*
X163577781Y-92852771D01*
X163577781Y-92852771D02*
X163539685Y-93005152D01*
X163539685Y-93005152D02*
X163539685Y-93119438D01*
X163539685Y-93119438D02*
X163577781Y-93271819D01*
X163577781Y-93271819D02*
X163615876Y-93348009D01*
X163615876Y-93348009D02*
X163692066Y-93424200D01*
X163692066Y-93424200D02*
X163806352Y-93462295D01*
X163806352Y-93462295D02*
X163996828Y-93462295D01*
X163234924Y-92738485D02*
X163196828Y-92700390D01*
X163196828Y-92700390D02*
X163120638Y-92662295D01*
X163120638Y-92662295D02*
X162930162Y-92662295D01*
X162930162Y-92662295D02*
X162853971Y-92700390D01*
X162853971Y-92700390D02*
X162815876Y-92738485D01*
X162815876Y-92738485D02*
X162777781Y-92814676D01*
X162777781Y-92814676D02*
X162777781Y-92890866D01*
X162777781Y-92890866D02*
X162815876Y-93005152D01*
X162815876Y-93005152D02*
X163273019Y-93462295D01*
X163273019Y-93462295D02*
X162777781Y-93462295D01*
X162282542Y-92662295D02*
X162206352Y-92662295D01*
X162206352Y-92662295D02*
X162130161Y-92700390D01*
X162130161Y-92700390D02*
X162092066Y-92738485D01*
X162092066Y-92738485D02*
X162053971Y-92814676D01*
X162053971Y-92814676D02*
X162015876Y-92967057D01*
X162015876Y-92967057D02*
X162015876Y-93157533D01*
X162015876Y-93157533D02*
X162053971Y-93309914D01*
X162053971Y-93309914D02*
X162092066Y-93386104D01*
X162092066Y-93386104D02*
X162130161Y-93424200D01*
X162130161Y-93424200D02*
X162206352Y-93462295D01*
X162206352Y-93462295D02*
X162282542Y-93462295D01*
X162282542Y-93462295D02*
X162358733Y-93424200D01*
X162358733Y-93424200D02*
X162396828Y-93386104D01*
X162396828Y-93386104D02*
X162434923Y-93309914D01*
X162434923Y-93309914D02*
X162473019Y-93157533D01*
X162473019Y-93157533D02*
X162473019Y-92967057D01*
X162473019Y-92967057D02*
X162434923Y-92814676D01*
X162434923Y-92814676D02*
X162396828Y-92738485D01*
X162396828Y-92738485D02*
X162358733Y-92700390D01*
X162358733Y-92700390D02*
X162282542Y-92662295D01*
X25115875Y-74462295D02*
X25115875Y-73662295D01*
X25115875Y-73662295D02*
X24925399Y-73662295D01*
X24925399Y-73662295D02*
X24811113Y-73700390D01*
X24811113Y-73700390D02*
X24734923Y-73776580D01*
X24734923Y-73776580D02*
X24696828Y-73852771D01*
X24696828Y-73852771D02*
X24658732Y-74005152D01*
X24658732Y-74005152D02*
X24658732Y-74119438D01*
X24658732Y-74119438D02*
X24696828Y-74271819D01*
X24696828Y-74271819D02*
X24734923Y-74348009D01*
X24734923Y-74348009D02*
X24811113Y-74424200D01*
X24811113Y-74424200D02*
X24925399Y-74462295D01*
X24925399Y-74462295D02*
X25115875Y-74462295D01*
X23896828Y-74462295D02*
X24353971Y-74462295D01*
X24125399Y-74462295D02*
X24125399Y-73662295D01*
X24125399Y-73662295D02*
X24201590Y-73776580D01*
X24201590Y-73776580D02*
X24277780Y-73852771D01*
X24277780Y-73852771D02*
X24353971Y-73890866D01*
X149496828Y-112462295D02*
X149496828Y-111662295D01*
X149496828Y-111662295D02*
X149306352Y-111662295D01*
X149306352Y-111662295D02*
X149192066Y-111700390D01*
X149192066Y-111700390D02*
X149115876Y-111776580D01*
X149115876Y-111776580D02*
X149077781Y-111852771D01*
X149077781Y-111852771D02*
X149039685Y-112005152D01*
X149039685Y-112005152D02*
X149039685Y-112119438D01*
X149039685Y-112119438D02*
X149077781Y-112271819D01*
X149077781Y-112271819D02*
X149115876Y-112348009D01*
X149115876Y-112348009D02*
X149192066Y-112424200D01*
X149192066Y-112424200D02*
X149306352Y-112462295D01*
X149306352Y-112462295D02*
X149496828Y-112462295D01*
X148773019Y-111662295D02*
X148277781Y-111662295D01*
X148277781Y-111662295D02*
X148544447Y-111967057D01*
X148544447Y-111967057D02*
X148430162Y-111967057D01*
X148430162Y-111967057D02*
X148353971Y-112005152D01*
X148353971Y-112005152D02*
X148315876Y-112043247D01*
X148315876Y-112043247D02*
X148277781Y-112119438D01*
X148277781Y-112119438D02*
X148277781Y-112309914D01*
X148277781Y-112309914D02*
X148315876Y-112386104D01*
X148315876Y-112386104D02*
X148353971Y-112424200D01*
X148353971Y-112424200D02*
X148430162Y-112462295D01*
X148430162Y-112462295D02*
X148658733Y-112462295D01*
X148658733Y-112462295D02*
X148734924Y-112424200D01*
X148734924Y-112424200D02*
X148773019Y-112386104D01*
X147515876Y-112462295D02*
X147973019Y-112462295D01*
X147744447Y-112462295D02*
X147744447Y-111662295D01*
X147744447Y-111662295D02*
X147820638Y-111776580D01*
X147820638Y-111776580D02*
X147896828Y-111852771D01*
X147896828Y-111852771D02*
X147973019Y-111890866D01*
X73496828Y-112462295D02*
X73496828Y-111662295D01*
X73496828Y-111662295D02*
X73306352Y-111662295D01*
X73306352Y-111662295D02*
X73192066Y-111700390D01*
X73192066Y-111700390D02*
X73115876Y-111776580D01*
X73115876Y-111776580D02*
X73077781Y-111852771D01*
X73077781Y-111852771D02*
X73039685Y-112005152D01*
X73039685Y-112005152D02*
X73039685Y-112119438D01*
X73039685Y-112119438D02*
X73077781Y-112271819D01*
X73077781Y-112271819D02*
X73115876Y-112348009D01*
X73115876Y-112348009D02*
X73192066Y-112424200D01*
X73192066Y-112424200D02*
X73306352Y-112462295D01*
X73306352Y-112462295D02*
X73496828Y-112462295D01*
X72734924Y-111738485D02*
X72696828Y-111700390D01*
X72696828Y-111700390D02*
X72620638Y-111662295D01*
X72620638Y-111662295D02*
X72430162Y-111662295D01*
X72430162Y-111662295D02*
X72353971Y-111700390D01*
X72353971Y-111700390D02*
X72315876Y-111738485D01*
X72315876Y-111738485D02*
X72277781Y-111814676D01*
X72277781Y-111814676D02*
X72277781Y-111890866D01*
X72277781Y-111890866D02*
X72315876Y-112005152D01*
X72315876Y-112005152D02*
X72773019Y-112462295D01*
X72773019Y-112462295D02*
X72277781Y-112462295D01*
X72011114Y-111662295D02*
X71477780Y-111662295D01*
X71477780Y-111662295D02*
X71820638Y-112462295D01*
X196996828Y-74462295D02*
X196996828Y-73662295D01*
X196996828Y-73662295D02*
X196806352Y-73662295D01*
X196806352Y-73662295D02*
X196692066Y-73700390D01*
X196692066Y-73700390D02*
X196615876Y-73776580D01*
X196615876Y-73776580D02*
X196577781Y-73852771D01*
X196577781Y-73852771D02*
X196539685Y-74005152D01*
X196539685Y-74005152D02*
X196539685Y-74119438D01*
X196539685Y-74119438D02*
X196577781Y-74271819D01*
X196577781Y-74271819D02*
X196615876Y-74348009D01*
X196615876Y-74348009D02*
X196692066Y-74424200D01*
X196692066Y-74424200D02*
X196806352Y-74462295D01*
X196806352Y-74462295D02*
X196996828Y-74462295D01*
X195777781Y-74462295D02*
X196234924Y-74462295D01*
X196006352Y-74462295D02*
X196006352Y-73662295D01*
X196006352Y-73662295D02*
X196082543Y-73776580D01*
X196082543Y-73776580D02*
X196158733Y-73852771D01*
X196158733Y-73852771D02*
X196234924Y-73890866D01*
X195282542Y-73662295D02*
X195206352Y-73662295D01*
X195206352Y-73662295D02*
X195130161Y-73700390D01*
X195130161Y-73700390D02*
X195092066Y-73738485D01*
X195092066Y-73738485D02*
X195053971Y-73814676D01*
X195053971Y-73814676D02*
X195015876Y-73967057D01*
X195015876Y-73967057D02*
X195015876Y-74157533D01*
X195015876Y-74157533D02*
X195053971Y-74309914D01*
X195053971Y-74309914D02*
X195092066Y-74386104D01*
X195092066Y-74386104D02*
X195130161Y-74424200D01*
X195130161Y-74424200D02*
X195206352Y-74462295D01*
X195206352Y-74462295D02*
X195282542Y-74462295D01*
X195282542Y-74462295D02*
X195358733Y-74424200D01*
X195358733Y-74424200D02*
X195396828Y-74386104D01*
X195396828Y-74386104D02*
X195434923Y-74309914D01*
X195434923Y-74309914D02*
X195473019Y-74157533D01*
X195473019Y-74157533D02*
X195473019Y-73967057D01*
X195473019Y-73967057D02*
X195434923Y-73814676D01*
X195434923Y-73814676D02*
X195396828Y-73738485D01*
X195396828Y-73738485D02*
X195358733Y-73700390D01*
X195358733Y-73700390D02*
X195282542Y-73662295D01*
X215996828Y-74462295D02*
X215996828Y-73662295D01*
X215996828Y-73662295D02*
X215806352Y-73662295D01*
X215806352Y-73662295D02*
X215692066Y-73700390D01*
X215692066Y-73700390D02*
X215615876Y-73776580D01*
X215615876Y-73776580D02*
X215577781Y-73852771D01*
X215577781Y-73852771D02*
X215539685Y-74005152D01*
X215539685Y-74005152D02*
X215539685Y-74119438D01*
X215539685Y-74119438D02*
X215577781Y-74271819D01*
X215577781Y-74271819D02*
X215615876Y-74348009D01*
X215615876Y-74348009D02*
X215692066Y-74424200D01*
X215692066Y-74424200D02*
X215806352Y-74462295D01*
X215806352Y-74462295D02*
X215996828Y-74462295D01*
X214777781Y-74462295D02*
X215234924Y-74462295D01*
X215006352Y-74462295D02*
X215006352Y-73662295D01*
X215006352Y-73662295D02*
X215082543Y-73776580D01*
X215082543Y-73776580D02*
X215158733Y-73852771D01*
X215158733Y-73852771D02*
X215234924Y-73890866D01*
X214015876Y-74462295D02*
X214473019Y-74462295D01*
X214244447Y-74462295D02*
X214244447Y-73662295D01*
X214244447Y-73662295D02*
X214320638Y-73776580D01*
X214320638Y-73776580D02*
X214396828Y-73852771D01*
X214396828Y-73852771D02*
X214473019Y-73890866D01*
X115971428Y-131362295D02*
X115971428Y-130562295D01*
X115971428Y-130562295D02*
X115780952Y-130562295D01*
X115780952Y-130562295D02*
X115666666Y-130600390D01*
X115666666Y-130600390D02*
X115590476Y-130676580D01*
X115590476Y-130676580D02*
X115552381Y-130752771D01*
X115552381Y-130752771D02*
X115514285Y-130905152D01*
X115514285Y-130905152D02*
X115514285Y-131019438D01*
X115514285Y-131019438D02*
X115552381Y-131171819D01*
X115552381Y-131171819D02*
X115590476Y-131248009D01*
X115590476Y-131248009D02*
X115666666Y-131324200D01*
X115666666Y-131324200D02*
X115780952Y-131362295D01*
X115780952Y-131362295D02*
X115971428Y-131362295D01*
X114828571Y-130828961D02*
X114828571Y-131362295D01*
X115019047Y-130524200D02*
X115209524Y-131095628D01*
X115209524Y-131095628D02*
X114714285Y-131095628D01*
X113990476Y-131362295D02*
X114447619Y-131362295D01*
X114219047Y-131362295D02*
X114219047Y-130562295D01*
X114219047Y-130562295D02*
X114295238Y-130676580D01*
X114295238Y-130676580D02*
X114371428Y-130752771D01*
X114371428Y-130752771D02*
X114447619Y-130790866D01*
X206496828Y-112462295D02*
X206496828Y-111662295D01*
X206496828Y-111662295D02*
X206306352Y-111662295D01*
X206306352Y-111662295D02*
X206192066Y-111700390D01*
X206192066Y-111700390D02*
X206115876Y-111776580D01*
X206115876Y-111776580D02*
X206077781Y-111852771D01*
X206077781Y-111852771D02*
X206039685Y-112005152D01*
X206039685Y-112005152D02*
X206039685Y-112119438D01*
X206039685Y-112119438D02*
X206077781Y-112271819D01*
X206077781Y-112271819D02*
X206115876Y-112348009D01*
X206115876Y-112348009D02*
X206192066Y-112424200D01*
X206192066Y-112424200D02*
X206306352Y-112462295D01*
X206306352Y-112462295D02*
X206496828Y-112462295D01*
X205773019Y-111662295D02*
X205277781Y-111662295D01*
X205277781Y-111662295D02*
X205544447Y-111967057D01*
X205544447Y-111967057D02*
X205430162Y-111967057D01*
X205430162Y-111967057D02*
X205353971Y-112005152D01*
X205353971Y-112005152D02*
X205315876Y-112043247D01*
X205315876Y-112043247D02*
X205277781Y-112119438D01*
X205277781Y-112119438D02*
X205277781Y-112309914D01*
X205277781Y-112309914D02*
X205315876Y-112386104D01*
X205315876Y-112386104D02*
X205353971Y-112424200D01*
X205353971Y-112424200D02*
X205430162Y-112462295D01*
X205430162Y-112462295D02*
X205658733Y-112462295D01*
X205658733Y-112462295D02*
X205734924Y-112424200D01*
X205734924Y-112424200D02*
X205773019Y-112386104D01*
X204592066Y-111928961D02*
X204592066Y-112462295D01*
X204782542Y-111624200D02*
X204973019Y-112195628D01*
X204973019Y-112195628D02*
X204477780Y-112195628D01*
X242496828Y-96362295D02*
X242496828Y-95562295D01*
X242496828Y-95562295D02*
X242306352Y-95562295D01*
X242306352Y-95562295D02*
X242192066Y-95600390D01*
X242192066Y-95600390D02*
X242115876Y-95676580D01*
X242115876Y-95676580D02*
X242077781Y-95752771D01*
X242077781Y-95752771D02*
X242039685Y-95905152D01*
X242039685Y-95905152D02*
X242039685Y-96019438D01*
X242039685Y-96019438D02*
X242077781Y-96171819D01*
X242077781Y-96171819D02*
X242115876Y-96248009D01*
X242115876Y-96248009D02*
X242192066Y-96324200D01*
X242192066Y-96324200D02*
X242306352Y-96362295D01*
X242306352Y-96362295D02*
X242496828Y-96362295D01*
X241734924Y-95638485D02*
X241696828Y-95600390D01*
X241696828Y-95600390D02*
X241620638Y-95562295D01*
X241620638Y-95562295D02*
X241430162Y-95562295D01*
X241430162Y-95562295D02*
X241353971Y-95600390D01*
X241353971Y-95600390D02*
X241315876Y-95638485D01*
X241315876Y-95638485D02*
X241277781Y-95714676D01*
X241277781Y-95714676D02*
X241277781Y-95790866D01*
X241277781Y-95790866D02*
X241315876Y-95905152D01*
X241315876Y-95905152D02*
X241773019Y-96362295D01*
X241773019Y-96362295D02*
X241277781Y-96362295D01*
X240592066Y-95828961D02*
X240592066Y-96362295D01*
X240782542Y-95524200D02*
X240973019Y-96095628D01*
X240973019Y-96095628D02*
X240477780Y-96095628D01*
X273802295Y-123488571D02*
X273002295Y-123488571D01*
X273002295Y-123488571D02*
X273002295Y-123679047D01*
X273002295Y-123679047D02*
X273040390Y-123793333D01*
X273040390Y-123793333D02*
X273116580Y-123869523D01*
X273116580Y-123869523D02*
X273192771Y-123907618D01*
X273192771Y-123907618D02*
X273345152Y-123945714D01*
X273345152Y-123945714D02*
X273459438Y-123945714D01*
X273459438Y-123945714D02*
X273611819Y-123907618D01*
X273611819Y-123907618D02*
X273688009Y-123869523D01*
X273688009Y-123869523D02*
X273764200Y-123793333D01*
X273764200Y-123793333D02*
X273802295Y-123679047D01*
X273802295Y-123679047D02*
X273802295Y-123488571D01*
X273268961Y-124631428D02*
X273802295Y-124631428D01*
X272964200Y-124440952D02*
X273535628Y-124250475D01*
X273535628Y-124250475D02*
X273535628Y-124745714D01*
X273345152Y-125164761D02*
X273307057Y-125088571D01*
X273307057Y-125088571D02*
X273268961Y-125050476D01*
X273268961Y-125050476D02*
X273192771Y-125012380D01*
X273192771Y-125012380D02*
X273154676Y-125012380D01*
X273154676Y-125012380D02*
X273078485Y-125050476D01*
X273078485Y-125050476D02*
X273040390Y-125088571D01*
X273040390Y-125088571D02*
X273002295Y-125164761D01*
X273002295Y-125164761D02*
X273002295Y-125317142D01*
X273002295Y-125317142D02*
X273040390Y-125393333D01*
X273040390Y-125393333D02*
X273078485Y-125431428D01*
X273078485Y-125431428D02*
X273154676Y-125469523D01*
X273154676Y-125469523D02*
X273192771Y-125469523D01*
X273192771Y-125469523D02*
X273268961Y-125431428D01*
X273268961Y-125431428D02*
X273307057Y-125393333D01*
X273307057Y-125393333D02*
X273345152Y-125317142D01*
X273345152Y-125317142D02*
X273345152Y-125164761D01*
X273345152Y-125164761D02*
X273383247Y-125088571D01*
X273383247Y-125088571D02*
X273421342Y-125050476D01*
X273421342Y-125050476D02*
X273497533Y-125012380D01*
X273497533Y-125012380D02*
X273649914Y-125012380D01*
X273649914Y-125012380D02*
X273726104Y-125050476D01*
X273726104Y-125050476D02*
X273764200Y-125088571D01*
X273764200Y-125088571D02*
X273802295Y-125164761D01*
X273802295Y-125164761D02*
X273802295Y-125317142D01*
X273802295Y-125317142D02*
X273764200Y-125393333D01*
X273764200Y-125393333D02*
X273726104Y-125431428D01*
X273726104Y-125431428D02*
X273649914Y-125469523D01*
X273649914Y-125469523D02*
X273497533Y-125469523D01*
X273497533Y-125469523D02*
X273421342Y-125431428D01*
X273421342Y-125431428D02*
X273383247Y-125393333D01*
X273383247Y-125393333D02*
X273345152Y-125317142D01*
X111496828Y-112462295D02*
X111496828Y-111662295D01*
X111496828Y-111662295D02*
X111306352Y-111662295D01*
X111306352Y-111662295D02*
X111192066Y-111700390D01*
X111192066Y-111700390D02*
X111115876Y-111776580D01*
X111115876Y-111776580D02*
X111077781Y-111852771D01*
X111077781Y-111852771D02*
X111039685Y-112005152D01*
X111039685Y-112005152D02*
X111039685Y-112119438D01*
X111039685Y-112119438D02*
X111077781Y-112271819D01*
X111077781Y-112271819D02*
X111115876Y-112348009D01*
X111115876Y-112348009D02*
X111192066Y-112424200D01*
X111192066Y-112424200D02*
X111306352Y-112462295D01*
X111306352Y-112462295D02*
X111496828Y-112462295D01*
X110734924Y-111738485D02*
X110696828Y-111700390D01*
X110696828Y-111700390D02*
X110620638Y-111662295D01*
X110620638Y-111662295D02*
X110430162Y-111662295D01*
X110430162Y-111662295D02*
X110353971Y-111700390D01*
X110353971Y-111700390D02*
X110315876Y-111738485D01*
X110315876Y-111738485D02*
X110277781Y-111814676D01*
X110277781Y-111814676D02*
X110277781Y-111890866D01*
X110277781Y-111890866D02*
X110315876Y-112005152D01*
X110315876Y-112005152D02*
X110773019Y-112462295D01*
X110773019Y-112462295D02*
X110277781Y-112462295D01*
X109896828Y-112462295D02*
X109744447Y-112462295D01*
X109744447Y-112462295D02*
X109668257Y-112424200D01*
X109668257Y-112424200D02*
X109630161Y-112386104D01*
X109630161Y-112386104D02*
X109553971Y-112271819D01*
X109553971Y-112271819D02*
X109515876Y-112119438D01*
X109515876Y-112119438D02*
X109515876Y-111814676D01*
X109515876Y-111814676D02*
X109553971Y-111738485D01*
X109553971Y-111738485D02*
X109592066Y-111700390D01*
X109592066Y-111700390D02*
X109668257Y-111662295D01*
X109668257Y-111662295D02*
X109820638Y-111662295D01*
X109820638Y-111662295D02*
X109896828Y-111700390D01*
X109896828Y-111700390D02*
X109934923Y-111738485D01*
X109934923Y-111738485D02*
X109973019Y-111814676D01*
X109973019Y-111814676D02*
X109973019Y-112005152D01*
X109973019Y-112005152D02*
X109934923Y-112081342D01*
X109934923Y-112081342D02*
X109896828Y-112119438D01*
X109896828Y-112119438D02*
X109820638Y-112157533D01*
X109820638Y-112157533D02*
X109668257Y-112157533D01*
X109668257Y-112157533D02*
X109592066Y-112119438D01*
X109592066Y-112119438D02*
X109553971Y-112081342D01*
X109553971Y-112081342D02*
X109515876Y-112005152D01*
X206496828Y-131462295D02*
X206496828Y-130662295D01*
X206496828Y-130662295D02*
X206306352Y-130662295D01*
X206306352Y-130662295D02*
X206192066Y-130700390D01*
X206192066Y-130700390D02*
X206115876Y-130776580D01*
X206115876Y-130776580D02*
X206077781Y-130852771D01*
X206077781Y-130852771D02*
X206039685Y-131005152D01*
X206039685Y-131005152D02*
X206039685Y-131119438D01*
X206039685Y-131119438D02*
X206077781Y-131271819D01*
X206077781Y-131271819D02*
X206115876Y-131348009D01*
X206115876Y-131348009D02*
X206192066Y-131424200D01*
X206192066Y-131424200D02*
X206306352Y-131462295D01*
X206306352Y-131462295D02*
X206496828Y-131462295D01*
X205353971Y-130928961D02*
X205353971Y-131462295D01*
X205544447Y-130624200D02*
X205734924Y-131195628D01*
X205734924Y-131195628D02*
X205239685Y-131195628D01*
X204592066Y-130928961D02*
X204592066Y-131462295D01*
X204782542Y-130624200D02*
X204973019Y-131195628D01*
X204973019Y-131195628D02*
X204477780Y-131195628D01*
X144496828Y-93462295D02*
X144496828Y-92662295D01*
X144496828Y-92662295D02*
X144306352Y-92662295D01*
X144306352Y-92662295D02*
X144192066Y-92700390D01*
X144192066Y-92700390D02*
X144115876Y-92776580D01*
X144115876Y-92776580D02*
X144077781Y-92852771D01*
X144077781Y-92852771D02*
X144039685Y-93005152D01*
X144039685Y-93005152D02*
X144039685Y-93119438D01*
X144039685Y-93119438D02*
X144077781Y-93271819D01*
X144077781Y-93271819D02*
X144115876Y-93348009D01*
X144115876Y-93348009D02*
X144192066Y-93424200D01*
X144192066Y-93424200D02*
X144306352Y-93462295D01*
X144306352Y-93462295D02*
X144496828Y-93462295D01*
X143277781Y-93462295D02*
X143734924Y-93462295D01*
X143506352Y-93462295D02*
X143506352Y-92662295D01*
X143506352Y-92662295D02*
X143582543Y-92776580D01*
X143582543Y-92776580D02*
X143658733Y-92852771D01*
X143658733Y-92852771D02*
X143734924Y-92890866D01*
X142896828Y-93462295D02*
X142744447Y-93462295D01*
X142744447Y-93462295D02*
X142668257Y-93424200D01*
X142668257Y-93424200D02*
X142630161Y-93386104D01*
X142630161Y-93386104D02*
X142553971Y-93271819D01*
X142553971Y-93271819D02*
X142515876Y-93119438D01*
X142515876Y-93119438D02*
X142515876Y-92814676D01*
X142515876Y-92814676D02*
X142553971Y-92738485D01*
X142553971Y-92738485D02*
X142592066Y-92700390D01*
X142592066Y-92700390D02*
X142668257Y-92662295D01*
X142668257Y-92662295D02*
X142820638Y-92662295D01*
X142820638Y-92662295D02*
X142896828Y-92700390D01*
X142896828Y-92700390D02*
X142934923Y-92738485D01*
X142934923Y-92738485D02*
X142973019Y-92814676D01*
X142973019Y-92814676D02*
X142973019Y-93005152D01*
X142973019Y-93005152D02*
X142934923Y-93081342D01*
X142934923Y-93081342D02*
X142896828Y-93119438D01*
X142896828Y-93119438D02*
X142820638Y-93157533D01*
X142820638Y-93157533D02*
X142668257Y-93157533D01*
X142668257Y-93157533D02*
X142592066Y-93119438D01*
X142592066Y-93119438D02*
X142553971Y-93081342D01*
X142553971Y-93081342D02*
X142515876Y-93005152D01*
X158615875Y-74462295D02*
X158615875Y-73662295D01*
X158615875Y-73662295D02*
X158425399Y-73662295D01*
X158425399Y-73662295D02*
X158311113Y-73700390D01*
X158311113Y-73700390D02*
X158234923Y-73776580D01*
X158234923Y-73776580D02*
X158196828Y-73852771D01*
X158196828Y-73852771D02*
X158158732Y-74005152D01*
X158158732Y-74005152D02*
X158158732Y-74119438D01*
X158158732Y-74119438D02*
X158196828Y-74271819D01*
X158196828Y-74271819D02*
X158234923Y-74348009D01*
X158234923Y-74348009D02*
X158311113Y-74424200D01*
X158311113Y-74424200D02*
X158425399Y-74462295D01*
X158425399Y-74462295D02*
X158615875Y-74462295D01*
X157701590Y-74005152D02*
X157777780Y-73967057D01*
X157777780Y-73967057D02*
X157815875Y-73928961D01*
X157815875Y-73928961D02*
X157853971Y-73852771D01*
X157853971Y-73852771D02*
X157853971Y-73814676D01*
X157853971Y-73814676D02*
X157815875Y-73738485D01*
X157815875Y-73738485D02*
X157777780Y-73700390D01*
X157777780Y-73700390D02*
X157701590Y-73662295D01*
X157701590Y-73662295D02*
X157549209Y-73662295D01*
X157549209Y-73662295D02*
X157473018Y-73700390D01*
X157473018Y-73700390D02*
X157434923Y-73738485D01*
X157434923Y-73738485D02*
X157396828Y-73814676D01*
X157396828Y-73814676D02*
X157396828Y-73852771D01*
X157396828Y-73852771D02*
X157434923Y-73928961D01*
X157434923Y-73928961D02*
X157473018Y-73967057D01*
X157473018Y-73967057D02*
X157549209Y-74005152D01*
X157549209Y-74005152D02*
X157701590Y-74005152D01*
X157701590Y-74005152D02*
X157777780Y-74043247D01*
X157777780Y-74043247D02*
X157815875Y-74081342D01*
X157815875Y-74081342D02*
X157853971Y-74157533D01*
X157853971Y-74157533D02*
X157853971Y-74309914D01*
X157853971Y-74309914D02*
X157815875Y-74386104D01*
X157815875Y-74386104D02*
X157777780Y-74424200D01*
X157777780Y-74424200D02*
X157701590Y-74462295D01*
X157701590Y-74462295D02*
X157549209Y-74462295D01*
X157549209Y-74462295D02*
X157473018Y-74424200D01*
X157473018Y-74424200D02*
X157434923Y-74386104D01*
X157434923Y-74386104D02*
X157396828Y-74309914D01*
X157396828Y-74309914D02*
X157396828Y-74157533D01*
X157396828Y-74157533D02*
X157434923Y-74081342D01*
X157434923Y-74081342D02*
X157473018Y-74043247D01*
X157473018Y-74043247D02*
X157549209Y-74005152D01*
X49496828Y-93462295D02*
X49496828Y-92662295D01*
X49496828Y-92662295D02*
X49306352Y-92662295D01*
X49306352Y-92662295D02*
X49192066Y-92700390D01*
X49192066Y-92700390D02*
X49115876Y-92776580D01*
X49115876Y-92776580D02*
X49077781Y-92852771D01*
X49077781Y-92852771D02*
X49039685Y-93005152D01*
X49039685Y-93005152D02*
X49039685Y-93119438D01*
X49039685Y-93119438D02*
X49077781Y-93271819D01*
X49077781Y-93271819D02*
X49115876Y-93348009D01*
X49115876Y-93348009D02*
X49192066Y-93424200D01*
X49192066Y-93424200D02*
X49306352Y-93462295D01*
X49306352Y-93462295D02*
X49496828Y-93462295D01*
X48277781Y-93462295D02*
X48734924Y-93462295D01*
X48506352Y-93462295D02*
X48506352Y-92662295D01*
X48506352Y-92662295D02*
X48582543Y-92776580D01*
X48582543Y-92776580D02*
X48658733Y-92852771D01*
X48658733Y-92852771D02*
X48734924Y-92890866D01*
X47592066Y-92928961D02*
X47592066Y-93462295D01*
X47782542Y-92624200D02*
X47973019Y-93195628D01*
X47973019Y-93195628D02*
X47477780Y-93195628D01*
X201896828Y-93462295D02*
X201896828Y-92662295D01*
X201896828Y-92662295D02*
X201706352Y-92662295D01*
X201706352Y-92662295D02*
X201592066Y-92700390D01*
X201592066Y-92700390D02*
X201515876Y-92776580D01*
X201515876Y-92776580D02*
X201477781Y-92852771D01*
X201477781Y-92852771D02*
X201439685Y-93005152D01*
X201439685Y-93005152D02*
X201439685Y-93119438D01*
X201439685Y-93119438D02*
X201477781Y-93271819D01*
X201477781Y-93271819D02*
X201515876Y-93348009D01*
X201515876Y-93348009D02*
X201592066Y-93424200D01*
X201592066Y-93424200D02*
X201706352Y-93462295D01*
X201706352Y-93462295D02*
X201896828Y-93462295D01*
X201134924Y-92738485D02*
X201096828Y-92700390D01*
X201096828Y-92700390D02*
X201020638Y-92662295D01*
X201020638Y-92662295D02*
X200830162Y-92662295D01*
X200830162Y-92662295D02*
X200753971Y-92700390D01*
X200753971Y-92700390D02*
X200715876Y-92738485D01*
X200715876Y-92738485D02*
X200677781Y-92814676D01*
X200677781Y-92814676D02*
X200677781Y-92890866D01*
X200677781Y-92890866D02*
X200715876Y-93005152D01*
X200715876Y-93005152D02*
X201173019Y-93462295D01*
X201173019Y-93462295D02*
X200677781Y-93462295D01*
X200373019Y-92738485D02*
X200334923Y-92700390D01*
X200334923Y-92700390D02*
X200258733Y-92662295D01*
X200258733Y-92662295D02*
X200068257Y-92662295D01*
X200068257Y-92662295D02*
X199992066Y-92700390D01*
X199992066Y-92700390D02*
X199953971Y-92738485D01*
X199953971Y-92738485D02*
X199915876Y-92814676D01*
X199915876Y-92814676D02*
X199915876Y-92890866D01*
X199915876Y-92890866D02*
X199953971Y-93005152D01*
X199953971Y-93005152D02*
X200411114Y-93462295D01*
X200411114Y-93462295D02*
X199915876Y-93462295D01*
X82615875Y-74462295D02*
X82615875Y-73662295D01*
X82615875Y-73662295D02*
X82425399Y-73662295D01*
X82425399Y-73662295D02*
X82311113Y-73700390D01*
X82311113Y-73700390D02*
X82234923Y-73776580D01*
X82234923Y-73776580D02*
X82196828Y-73852771D01*
X82196828Y-73852771D02*
X82158732Y-74005152D01*
X82158732Y-74005152D02*
X82158732Y-74119438D01*
X82158732Y-74119438D02*
X82196828Y-74271819D01*
X82196828Y-74271819D02*
X82234923Y-74348009D01*
X82234923Y-74348009D02*
X82311113Y-74424200D01*
X82311113Y-74424200D02*
X82425399Y-74462295D01*
X82425399Y-74462295D02*
X82615875Y-74462295D01*
X81473018Y-73928961D02*
X81473018Y-74462295D01*
X81663494Y-73624200D02*
X81853971Y-74195628D01*
X81853971Y-74195628D02*
X81358732Y-74195628D01*
X168496828Y-112462295D02*
X168496828Y-111662295D01*
X168496828Y-111662295D02*
X168306352Y-111662295D01*
X168306352Y-111662295D02*
X168192066Y-111700390D01*
X168192066Y-111700390D02*
X168115876Y-111776580D01*
X168115876Y-111776580D02*
X168077781Y-111852771D01*
X168077781Y-111852771D02*
X168039685Y-112005152D01*
X168039685Y-112005152D02*
X168039685Y-112119438D01*
X168039685Y-112119438D02*
X168077781Y-112271819D01*
X168077781Y-112271819D02*
X168115876Y-112348009D01*
X168115876Y-112348009D02*
X168192066Y-112424200D01*
X168192066Y-112424200D02*
X168306352Y-112462295D01*
X168306352Y-112462295D02*
X168496828Y-112462295D01*
X167773019Y-111662295D02*
X167277781Y-111662295D01*
X167277781Y-111662295D02*
X167544447Y-111967057D01*
X167544447Y-111967057D02*
X167430162Y-111967057D01*
X167430162Y-111967057D02*
X167353971Y-112005152D01*
X167353971Y-112005152D02*
X167315876Y-112043247D01*
X167315876Y-112043247D02*
X167277781Y-112119438D01*
X167277781Y-112119438D02*
X167277781Y-112309914D01*
X167277781Y-112309914D02*
X167315876Y-112386104D01*
X167315876Y-112386104D02*
X167353971Y-112424200D01*
X167353971Y-112424200D02*
X167430162Y-112462295D01*
X167430162Y-112462295D02*
X167658733Y-112462295D01*
X167658733Y-112462295D02*
X167734924Y-112424200D01*
X167734924Y-112424200D02*
X167773019Y-112386104D01*
X166973019Y-111738485D02*
X166934923Y-111700390D01*
X166934923Y-111700390D02*
X166858733Y-111662295D01*
X166858733Y-111662295D02*
X166668257Y-111662295D01*
X166668257Y-111662295D02*
X166592066Y-111700390D01*
X166592066Y-111700390D02*
X166553971Y-111738485D01*
X166553971Y-111738485D02*
X166515876Y-111814676D01*
X166515876Y-111814676D02*
X166515876Y-111890866D01*
X166515876Y-111890866D02*
X166553971Y-112005152D01*
X166553971Y-112005152D02*
X167011114Y-112462295D01*
X167011114Y-112462295D02*
X166515876Y-112462295D01*
X278542295Y-122123971D02*
X277742295Y-122123971D01*
X277742295Y-122123971D02*
X277742295Y-122314447D01*
X277742295Y-122314447D02*
X277780390Y-122428733D01*
X277780390Y-122428733D02*
X277856580Y-122504923D01*
X277856580Y-122504923D02*
X277932771Y-122543018D01*
X277932771Y-122543018D02*
X278085152Y-122581114D01*
X278085152Y-122581114D02*
X278199438Y-122581114D01*
X278199438Y-122581114D02*
X278351819Y-122543018D01*
X278351819Y-122543018D02*
X278428009Y-122504923D01*
X278428009Y-122504923D02*
X278504200Y-122428733D01*
X278504200Y-122428733D02*
X278542295Y-122314447D01*
X278542295Y-122314447D02*
X278542295Y-122123971D01*
X278008961Y-123266828D02*
X278542295Y-123266828D01*
X277704200Y-123076352D02*
X278275628Y-122885875D01*
X278275628Y-122885875D02*
X278275628Y-123381114D01*
X278542295Y-123723971D02*
X278542295Y-123876352D01*
X278542295Y-123876352D02*
X278504200Y-123952542D01*
X278504200Y-123952542D02*
X278466104Y-123990638D01*
X278466104Y-123990638D02*
X278351819Y-124066828D01*
X278351819Y-124066828D02*
X278199438Y-124104923D01*
X278199438Y-124104923D02*
X277894676Y-124104923D01*
X277894676Y-124104923D02*
X277818485Y-124066828D01*
X277818485Y-124066828D02*
X277780390Y-124028733D01*
X277780390Y-124028733D02*
X277742295Y-123952542D01*
X277742295Y-123952542D02*
X277742295Y-123800161D01*
X277742295Y-123800161D02*
X277780390Y-123723971D01*
X277780390Y-123723971D02*
X277818485Y-123685876D01*
X277818485Y-123685876D02*
X277894676Y-123647780D01*
X277894676Y-123647780D02*
X278085152Y-123647780D01*
X278085152Y-123647780D02*
X278161342Y-123685876D01*
X278161342Y-123685876D02*
X278199438Y-123723971D01*
X278199438Y-123723971D02*
X278237533Y-123800161D01*
X278237533Y-123800161D02*
X278237533Y-123952542D01*
X278237533Y-123952542D02*
X278199438Y-124028733D01*
X278199438Y-124028733D02*
X278161342Y-124066828D01*
X278161342Y-124066828D02*
X278085152Y-124104923D01*
X44115875Y-74462295D02*
X44115875Y-73662295D01*
X44115875Y-73662295D02*
X43925399Y-73662295D01*
X43925399Y-73662295D02*
X43811113Y-73700390D01*
X43811113Y-73700390D02*
X43734923Y-73776580D01*
X43734923Y-73776580D02*
X43696828Y-73852771D01*
X43696828Y-73852771D02*
X43658732Y-74005152D01*
X43658732Y-74005152D02*
X43658732Y-74119438D01*
X43658732Y-74119438D02*
X43696828Y-74271819D01*
X43696828Y-74271819D02*
X43734923Y-74348009D01*
X43734923Y-74348009D02*
X43811113Y-74424200D01*
X43811113Y-74424200D02*
X43925399Y-74462295D01*
X43925399Y-74462295D02*
X44115875Y-74462295D01*
X43353971Y-73738485D02*
X43315875Y-73700390D01*
X43315875Y-73700390D02*
X43239685Y-73662295D01*
X43239685Y-73662295D02*
X43049209Y-73662295D01*
X43049209Y-73662295D02*
X42973018Y-73700390D01*
X42973018Y-73700390D02*
X42934923Y-73738485D01*
X42934923Y-73738485D02*
X42896828Y-73814676D01*
X42896828Y-73814676D02*
X42896828Y-73890866D01*
X42896828Y-73890866D02*
X42934923Y-74005152D01*
X42934923Y-74005152D02*
X43392066Y-74462295D01*
X43392066Y-74462295D02*
X42896828Y-74462295D01*
X53996828Y-112462295D02*
X53996828Y-111662295D01*
X53996828Y-111662295D02*
X53806352Y-111662295D01*
X53806352Y-111662295D02*
X53692066Y-111700390D01*
X53692066Y-111700390D02*
X53615876Y-111776580D01*
X53615876Y-111776580D02*
X53577781Y-111852771D01*
X53577781Y-111852771D02*
X53539685Y-112005152D01*
X53539685Y-112005152D02*
X53539685Y-112119438D01*
X53539685Y-112119438D02*
X53577781Y-112271819D01*
X53577781Y-112271819D02*
X53615876Y-112348009D01*
X53615876Y-112348009D02*
X53692066Y-112424200D01*
X53692066Y-112424200D02*
X53806352Y-112462295D01*
X53806352Y-112462295D02*
X53996828Y-112462295D01*
X53234924Y-111738485D02*
X53196828Y-111700390D01*
X53196828Y-111700390D02*
X53120638Y-111662295D01*
X53120638Y-111662295D02*
X52930162Y-111662295D01*
X52930162Y-111662295D02*
X52853971Y-111700390D01*
X52853971Y-111700390D02*
X52815876Y-111738485D01*
X52815876Y-111738485D02*
X52777781Y-111814676D01*
X52777781Y-111814676D02*
X52777781Y-111890866D01*
X52777781Y-111890866D02*
X52815876Y-112005152D01*
X52815876Y-112005152D02*
X53273019Y-112462295D01*
X53273019Y-112462295D02*
X52777781Y-112462295D01*
X52092066Y-111662295D02*
X52244447Y-111662295D01*
X52244447Y-111662295D02*
X52320638Y-111700390D01*
X52320638Y-111700390D02*
X52358733Y-111738485D01*
X52358733Y-111738485D02*
X52434923Y-111852771D01*
X52434923Y-111852771D02*
X52473019Y-112005152D01*
X52473019Y-112005152D02*
X52473019Y-112309914D01*
X52473019Y-112309914D02*
X52434923Y-112386104D01*
X52434923Y-112386104D02*
X52396828Y-112424200D01*
X52396828Y-112424200D02*
X52320638Y-112462295D01*
X52320638Y-112462295D02*
X52168257Y-112462295D01*
X52168257Y-112462295D02*
X52092066Y-112424200D01*
X52092066Y-112424200D02*
X52053971Y-112386104D01*
X52053971Y-112386104D02*
X52015876Y-112309914D01*
X52015876Y-112309914D02*
X52015876Y-112119438D01*
X52015876Y-112119438D02*
X52053971Y-112043247D01*
X52053971Y-112043247D02*
X52092066Y-112005152D01*
X52092066Y-112005152D02*
X52168257Y-111967057D01*
X52168257Y-111967057D02*
X52320638Y-111967057D01*
X52320638Y-111967057D02*
X52396828Y-112005152D01*
X52396828Y-112005152D02*
X52434923Y-112043247D01*
X52434923Y-112043247D02*
X52473019Y-112119438D01*
X30496828Y-112462295D02*
X30496828Y-111662295D01*
X30496828Y-111662295D02*
X30306352Y-111662295D01*
X30306352Y-111662295D02*
X30192066Y-111700390D01*
X30192066Y-111700390D02*
X30115876Y-111776580D01*
X30115876Y-111776580D02*
X30077781Y-111852771D01*
X30077781Y-111852771D02*
X30039685Y-112005152D01*
X30039685Y-112005152D02*
X30039685Y-112119438D01*
X30039685Y-112119438D02*
X30077781Y-112271819D01*
X30077781Y-112271819D02*
X30115876Y-112348009D01*
X30115876Y-112348009D02*
X30192066Y-112424200D01*
X30192066Y-112424200D02*
X30306352Y-112462295D01*
X30306352Y-112462295D02*
X30496828Y-112462295D01*
X29734924Y-111738485D02*
X29696828Y-111700390D01*
X29696828Y-111700390D02*
X29620638Y-111662295D01*
X29620638Y-111662295D02*
X29430162Y-111662295D01*
X29430162Y-111662295D02*
X29353971Y-111700390D01*
X29353971Y-111700390D02*
X29315876Y-111738485D01*
X29315876Y-111738485D02*
X29277781Y-111814676D01*
X29277781Y-111814676D02*
X29277781Y-111890866D01*
X29277781Y-111890866D02*
X29315876Y-112005152D01*
X29315876Y-112005152D02*
X29773019Y-112462295D01*
X29773019Y-112462295D02*
X29277781Y-112462295D01*
X28553971Y-111662295D02*
X28934923Y-111662295D01*
X28934923Y-111662295D02*
X28973019Y-112043247D01*
X28973019Y-112043247D02*
X28934923Y-112005152D01*
X28934923Y-112005152D02*
X28858733Y-111967057D01*
X28858733Y-111967057D02*
X28668257Y-111967057D01*
X28668257Y-111967057D02*
X28592066Y-112005152D01*
X28592066Y-112005152D02*
X28553971Y-112043247D01*
X28553971Y-112043247D02*
X28515876Y-112119438D01*
X28515876Y-112119438D02*
X28515876Y-112309914D01*
X28515876Y-112309914D02*
X28553971Y-112386104D01*
X28553971Y-112386104D02*
X28592066Y-112424200D01*
X28592066Y-112424200D02*
X28668257Y-112462295D01*
X28668257Y-112462295D02*
X28858733Y-112462295D01*
X28858733Y-112462295D02*
X28934923Y-112424200D01*
X28934923Y-112424200D02*
X28973019Y-112386104D01*
X101615875Y-74462295D02*
X101615875Y-73662295D01*
X101615875Y-73662295D02*
X101425399Y-73662295D01*
X101425399Y-73662295D02*
X101311113Y-73700390D01*
X101311113Y-73700390D02*
X101234923Y-73776580D01*
X101234923Y-73776580D02*
X101196828Y-73852771D01*
X101196828Y-73852771D02*
X101158732Y-74005152D01*
X101158732Y-74005152D02*
X101158732Y-74119438D01*
X101158732Y-74119438D02*
X101196828Y-74271819D01*
X101196828Y-74271819D02*
X101234923Y-74348009D01*
X101234923Y-74348009D02*
X101311113Y-74424200D01*
X101311113Y-74424200D02*
X101425399Y-74462295D01*
X101425399Y-74462295D02*
X101615875Y-74462295D01*
X100434923Y-73662295D02*
X100815875Y-73662295D01*
X100815875Y-73662295D02*
X100853971Y-74043247D01*
X100853971Y-74043247D02*
X100815875Y-74005152D01*
X100815875Y-74005152D02*
X100739685Y-73967057D01*
X100739685Y-73967057D02*
X100549209Y-73967057D01*
X100549209Y-73967057D02*
X100473018Y-74005152D01*
X100473018Y-74005152D02*
X100434923Y-74043247D01*
X100434923Y-74043247D02*
X100396828Y-74119438D01*
X100396828Y-74119438D02*
X100396828Y-74309914D01*
X100396828Y-74309914D02*
X100434923Y-74386104D01*
X100434923Y-74386104D02*
X100473018Y-74424200D01*
X100473018Y-74424200D02*
X100549209Y-74462295D01*
X100549209Y-74462295D02*
X100739685Y-74462295D01*
X100739685Y-74462295D02*
X100815875Y-74424200D01*
X100815875Y-74424200D02*
X100853971Y-74386104D01*
X225496828Y-131462295D02*
X225496828Y-130662295D01*
X225496828Y-130662295D02*
X225306352Y-130662295D01*
X225306352Y-130662295D02*
X225192066Y-130700390D01*
X225192066Y-130700390D02*
X225115876Y-130776580D01*
X225115876Y-130776580D02*
X225077781Y-130852771D01*
X225077781Y-130852771D02*
X225039685Y-131005152D01*
X225039685Y-131005152D02*
X225039685Y-131119438D01*
X225039685Y-131119438D02*
X225077781Y-131271819D01*
X225077781Y-131271819D02*
X225115876Y-131348009D01*
X225115876Y-131348009D02*
X225192066Y-131424200D01*
X225192066Y-131424200D02*
X225306352Y-131462295D01*
X225306352Y-131462295D02*
X225496828Y-131462295D01*
X224353971Y-130928961D02*
X224353971Y-131462295D01*
X224544447Y-130624200D02*
X224734924Y-131195628D01*
X224734924Y-131195628D02*
X224239685Y-131195628D01*
X223553971Y-130662295D02*
X223934923Y-130662295D01*
X223934923Y-130662295D02*
X223973019Y-131043247D01*
X223973019Y-131043247D02*
X223934923Y-131005152D01*
X223934923Y-131005152D02*
X223858733Y-130967057D01*
X223858733Y-130967057D02*
X223668257Y-130967057D01*
X223668257Y-130967057D02*
X223592066Y-131005152D01*
X223592066Y-131005152D02*
X223553971Y-131043247D01*
X223553971Y-131043247D02*
X223515876Y-131119438D01*
X223515876Y-131119438D02*
X223515876Y-131309914D01*
X223515876Y-131309914D02*
X223553971Y-131386104D01*
X223553971Y-131386104D02*
X223592066Y-131424200D01*
X223592066Y-131424200D02*
X223668257Y-131462295D01*
X223668257Y-131462295D02*
X223858733Y-131462295D01*
X223858733Y-131462295D02*
X223934923Y-131424200D01*
X223934923Y-131424200D02*
X223973019Y-131386104D01*
X239971428Y-77312295D02*
X239971428Y-76512295D01*
X239971428Y-76512295D02*
X239780952Y-76512295D01*
X239780952Y-76512295D02*
X239666666Y-76550390D01*
X239666666Y-76550390D02*
X239590476Y-76626580D01*
X239590476Y-76626580D02*
X239552381Y-76702771D01*
X239552381Y-76702771D02*
X239514285Y-76855152D01*
X239514285Y-76855152D02*
X239514285Y-76969438D01*
X239514285Y-76969438D02*
X239552381Y-77121819D01*
X239552381Y-77121819D02*
X239590476Y-77198009D01*
X239590476Y-77198009D02*
X239666666Y-77274200D01*
X239666666Y-77274200D02*
X239780952Y-77312295D01*
X239780952Y-77312295D02*
X239971428Y-77312295D01*
X238752381Y-77312295D02*
X239209524Y-77312295D01*
X238980952Y-77312295D02*
X238980952Y-76512295D01*
X238980952Y-76512295D02*
X239057143Y-76626580D01*
X239057143Y-76626580D02*
X239133333Y-76702771D01*
X239133333Y-76702771D02*
X239209524Y-76740866D01*
X238447619Y-76588485D02*
X238409523Y-76550390D01*
X238409523Y-76550390D02*
X238333333Y-76512295D01*
X238333333Y-76512295D02*
X238142857Y-76512295D01*
X238142857Y-76512295D02*
X238066666Y-76550390D01*
X238066666Y-76550390D02*
X238028571Y-76588485D01*
X238028571Y-76588485D02*
X237990476Y-76664676D01*
X237990476Y-76664676D02*
X237990476Y-76740866D01*
X237990476Y-76740866D02*
X238028571Y-76855152D01*
X238028571Y-76855152D02*
X238485714Y-77312295D01*
X238485714Y-77312295D02*
X237990476Y-77312295D01*
X187496828Y-112462295D02*
X187496828Y-111662295D01*
X187496828Y-111662295D02*
X187306352Y-111662295D01*
X187306352Y-111662295D02*
X187192066Y-111700390D01*
X187192066Y-111700390D02*
X187115876Y-111776580D01*
X187115876Y-111776580D02*
X187077781Y-111852771D01*
X187077781Y-111852771D02*
X187039685Y-112005152D01*
X187039685Y-112005152D02*
X187039685Y-112119438D01*
X187039685Y-112119438D02*
X187077781Y-112271819D01*
X187077781Y-112271819D02*
X187115876Y-112348009D01*
X187115876Y-112348009D02*
X187192066Y-112424200D01*
X187192066Y-112424200D02*
X187306352Y-112462295D01*
X187306352Y-112462295D02*
X187496828Y-112462295D01*
X186773019Y-111662295D02*
X186277781Y-111662295D01*
X186277781Y-111662295D02*
X186544447Y-111967057D01*
X186544447Y-111967057D02*
X186430162Y-111967057D01*
X186430162Y-111967057D02*
X186353971Y-112005152D01*
X186353971Y-112005152D02*
X186315876Y-112043247D01*
X186315876Y-112043247D02*
X186277781Y-112119438D01*
X186277781Y-112119438D02*
X186277781Y-112309914D01*
X186277781Y-112309914D02*
X186315876Y-112386104D01*
X186315876Y-112386104D02*
X186353971Y-112424200D01*
X186353971Y-112424200D02*
X186430162Y-112462295D01*
X186430162Y-112462295D02*
X186658733Y-112462295D01*
X186658733Y-112462295D02*
X186734924Y-112424200D01*
X186734924Y-112424200D02*
X186773019Y-112386104D01*
X186011114Y-111662295D02*
X185515876Y-111662295D01*
X185515876Y-111662295D02*
X185782542Y-111967057D01*
X185782542Y-111967057D02*
X185668257Y-111967057D01*
X185668257Y-111967057D02*
X185592066Y-112005152D01*
X185592066Y-112005152D02*
X185553971Y-112043247D01*
X185553971Y-112043247D02*
X185515876Y-112119438D01*
X185515876Y-112119438D02*
X185515876Y-112309914D01*
X185515876Y-112309914D02*
X185553971Y-112386104D01*
X185553971Y-112386104D02*
X185592066Y-112424200D01*
X185592066Y-112424200D02*
X185668257Y-112462295D01*
X185668257Y-112462295D02*
X185896828Y-112462295D01*
X185896828Y-112462295D02*
X185973019Y-112424200D01*
X185973019Y-112424200D02*
X186011114Y-112386104D01*
X92496828Y-112462295D02*
X92496828Y-111662295D01*
X92496828Y-111662295D02*
X92306352Y-111662295D01*
X92306352Y-111662295D02*
X92192066Y-111700390D01*
X92192066Y-111700390D02*
X92115876Y-111776580D01*
X92115876Y-111776580D02*
X92077781Y-111852771D01*
X92077781Y-111852771D02*
X92039685Y-112005152D01*
X92039685Y-112005152D02*
X92039685Y-112119438D01*
X92039685Y-112119438D02*
X92077781Y-112271819D01*
X92077781Y-112271819D02*
X92115876Y-112348009D01*
X92115876Y-112348009D02*
X92192066Y-112424200D01*
X92192066Y-112424200D02*
X92306352Y-112462295D01*
X92306352Y-112462295D02*
X92496828Y-112462295D01*
X91734924Y-111738485D02*
X91696828Y-111700390D01*
X91696828Y-111700390D02*
X91620638Y-111662295D01*
X91620638Y-111662295D02*
X91430162Y-111662295D01*
X91430162Y-111662295D02*
X91353971Y-111700390D01*
X91353971Y-111700390D02*
X91315876Y-111738485D01*
X91315876Y-111738485D02*
X91277781Y-111814676D01*
X91277781Y-111814676D02*
X91277781Y-111890866D01*
X91277781Y-111890866D02*
X91315876Y-112005152D01*
X91315876Y-112005152D02*
X91773019Y-112462295D01*
X91773019Y-112462295D02*
X91277781Y-112462295D01*
X90820638Y-112005152D02*
X90896828Y-111967057D01*
X90896828Y-111967057D02*
X90934923Y-111928961D01*
X90934923Y-111928961D02*
X90973019Y-111852771D01*
X90973019Y-111852771D02*
X90973019Y-111814676D01*
X90973019Y-111814676D02*
X90934923Y-111738485D01*
X90934923Y-111738485D02*
X90896828Y-111700390D01*
X90896828Y-111700390D02*
X90820638Y-111662295D01*
X90820638Y-111662295D02*
X90668257Y-111662295D01*
X90668257Y-111662295D02*
X90592066Y-111700390D01*
X90592066Y-111700390D02*
X90553971Y-111738485D01*
X90553971Y-111738485D02*
X90515876Y-111814676D01*
X90515876Y-111814676D02*
X90515876Y-111852771D01*
X90515876Y-111852771D02*
X90553971Y-111928961D01*
X90553971Y-111928961D02*
X90592066Y-111967057D01*
X90592066Y-111967057D02*
X90668257Y-112005152D01*
X90668257Y-112005152D02*
X90820638Y-112005152D01*
X90820638Y-112005152D02*
X90896828Y-112043247D01*
X90896828Y-112043247D02*
X90934923Y-112081342D01*
X90934923Y-112081342D02*
X90973019Y-112157533D01*
X90973019Y-112157533D02*
X90973019Y-112309914D01*
X90973019Y-112309914D02*
X90934923Y-112386104D01*
X90934923Y-112386104D02*
X90896828Y-112424200D01*
X90896828Y-112424200D02*
X90820638Y-112462295D01*
X90820638Y-112462295D02*
X90668257Y-112462295D01*
X90668257Y-112462295D02*
X90592066Y-112424200D01*
X90592066Y-112424200D02*
X90553971Y-112386104D01*
X90553971Y-112386104D02*
X90515876Y-112309914D01*
X90515876Y-112309914D02*
X90515876Y-112157533D01*
X90515876Y-112157533D02*
X90553971Y-112081342D01*
X90553971Y-112081342D02*
X90592066Y-112043247D01*
X90592066Y-112043247D02*
X90668257Y-112005152D01*
X68496828Y-93462295D02*
X68496828Y-92662295D01*
X68496828Y-92662295D02*
X68306352Y-92662295D01*
X68306352Y-92662295D02*
X68192066Y-92700390D01*
X68192066Y-92700390D02*
X68115876Y-92776580D01*
X68115876Y-92776580D02*
X68077781Y-92852771D01*
X68077781Y-92852771D02*
X68039685Y-93005152D01*
X68039685Y-93005152D02*
X68039685Y-93119438D01*
X68039685Y-93119438D02*
X68077781Y-93271819D01*
X68077781Y-93271819D02*
X68115876Y-93348009D01*
X68115876Y-93348009D02*
X68192066Y-93424200D01*
X68192066Y-93424200D02*
X68306352Y-93462295D01*
X68306352Y-93462295D02*
X68496828Y-93462295D01*
X67277781Y-93462295D02*
X67734924Y-93462295D01*
X67506352Y-93462295D02*
X67506352Y-92662295D01*
X67506352Y-92662295D02*
X67582543Y-92776580D01*
X67582543Y-92776580D02*
X67658733Y-92852771D01*
X67658733Y-92852771D02*
X67734924Y-92890866D01*
X66553971Y-92662295D02*
X66934923Y-92662295D01*
X66934923Y-92662295D02*
X66973019Y-93043247D01*
X66973019Y-93043247D02*
X66934923Y-93005152D01*
X66934923Y-93005152D02*
X66858733Y-92967057D01*
X66858733Y-92967057D02*
X66668257Y-92967057D01*
X66668257Y-92967057D02*
X66592066Y-93005152D01*
X66592066Y-93005152D02*
X66553971Y-93043247D01*
X66553971Y-93043247D02*
X66515876Y-93119438D01*
X66515876Y-93119438D02*
X66515876Y-93309914D01*
X66515876Y-93309914D02*
X66553971Y-93386104D01*
X66553971Y-93386104D02*
X66592066Y-93424200D01*
X66592066Y-93424200D02*
X66668257Y-93462295D01*
X66668257Y-93462295D02*
X66858733Y-93462295D01*
X66858733Y-93462295D02*
X66934923Y-93424200D01*
X66934923Y-93424200D02*
X66973019Y-93386104D01*
X139615875Y-74462295D02*
X139615875Y-73662295D01*
X139615875Y-73662295D02*
X139425399Y-73662295D01*
X139425399Y-73662295D02*
X139311113Y-73700390D01*
X139311113Y-73700390D02*
X139234923Y-73776580D01*
X139234923Y-73776580D02*
X139196828Y-73852771D01*
X139196828Y-73852771D02*
X139158732Y-74005152D01*
X139158732Y-74005152D02*
X139158732Y-74119438D01*
X139158732Y-74119438D02*
X139196828Y-74271819D01*
X139196828Y-74271819D02*
X139234923Y-74348009D01*
X139234923Y-74348009D02*
X139311113Y-74424200D01*
X139311113Y-74424200D02*
X139425399Y-74462295D01*
X139425399Y-74462295D02*
X139615875Y-74462295D01*
X138892066Y-73662295D02*
X138358732Y-73662295D01*
X138358732Y-73662295D02*
X138701590Y-74462295D01*
X25576828Y-131462295D02*
X25576828Y-130662295D01*
X25576828Y-130662295D02*
X25386352Y-130662295D01*
X25386352Y-130662295D02*
X25272066Y-130700390D01*
X25272066Y-130700390D02*
X25195876Y-130776580D01*
X25195876Y-130776580D02*
X25157781Y-130852771D01*
X25157781Y-130852771D02*
X25119685Y-131005152D01*
X25119685Y-131005152D02*
X25119685Y-131119438D01*
X25119685Y-131119438D02*
X25157781Y-131271819D01*
X25157781Y-131271819D02*
X25195876Y-131348009D01*
X25195876Y-131348009D02*
X25272066Y-131424200D01*
X25272066Y-131424200D02*
X25386352Y-131462295D01*
X25386352Y-131462295D02*
X25576828Y-131462295D01*
X24853019Y-130662295D02*
X24357781Y-130662295D01*
X24357781Y-130662295D02*
X24624447Y-130967057D01*
X24624447Y-130967057D02*
X24510162Y-130967057D01*
X24510162Y-130967057D02*
X24433971Y-131005152D01*
X24433971Y-131005152D02*
X24395876Y-131043247D01*
X24395876Y-131043247D02*
X24357781Y-131119438D01*
X24357781Y-131119438D02*
X24357781Y-131309914D01*
X24357781Y-131309914D02*
X24395876Y-131386104D01*
X24395876Y-131386104D02*
X24433971Y-131424200D01*
X24433971Y-131424200D02*
X24510162Y-131462295D01*
X24510162Y-131462295D02*
X24738733Y-131462295D01*
X24738733Y-131462295D02*
X24814924Y-131424200D01*
X24814924Y-131424200D02*
X24853019Y-131386104D01*
X24091114Y-130662295D02*
X23557780Y-130662295D01*
X23557780Y-130662295D02*
X23900638Y-131462295D01*
X87496828Y-93462295D02*
X87496828Y-92662295D01*
X87496828Y-92662295D02*
X87306352Y-92662295D01*
X87306352Y-92662295D02*
X87192066Y-92700390D01*
X87192066Y-92700390D02*
X87115876Y-92776580D01*
X87115876Y-92776580D02*
X87077781Y-92852771D01*
X87077781Y-92852771D02*
X87039685Y-93005152D01*
X87039685Y-93005152D02*
X87039685Y-93119438D01*
X87039685Y-93119438D02*
X87077781Y-93271819D01*
X87077781Y-93271819D02*
X87115876Y-93348009D01*
X87115876Y-93348009D02*
X87192066Y-93424200D01*
X87192066Y-93424200D02*
X87306352Y-93462295D01*
X87306352Y-93462295D02*
X87496828Y-93462295D01*
X86277781Y-93462295D02*
X86734924Y-93462295D01*
X86506352Y-93462295D02*
X86506352Y-92662295D01*
X86506352Y-92662295D02*
X86582543Y-92776580D01*
X86582543Y-92776580D02*
X86658733Y-92852771D01*
X86658733Y-92852771D02*
X86734924Y-92890866D01*
X85592066Y-92662295D02*
X85744447Y-92662295D01*
X85744447Y-92662295D02*
X85820638Y-92700390D01*
X85820638Y-92700390D02*
X85858733Y-92738485D01*
X85858733Y-92738485D02*
X85934923Y-92852771D01*
X85934923Y-92852771D02*
X85973019Y-93005152D01*
X85973019Y-93005152D02*
X85973019Y-93309914D01*
X85973019Y-93309914D02*
X85934923Y-93386104D01*
X85934923Y-93386104D02*
X85896828Y-93424200D01*
X85896828Y-93424200D02*
X85820638Y-93462295D01*
X85820638Y-93462295D02*
X85668257Y-93462295D01*
X85668257Y-93462295D02*
X85592066Y-93424200D01*
X85592066Y-93424200D02*
X85553971Y-93386104D01*
X85553971Y-93386104D02*
X85515876Y-93309914D01*
X85515876Y-93309914D02*
X85515876Y-93119438D01*
X85515876Y-93119438D02*
X85553971Y-93043247D01*
X85553971Y-93043247D02*
X85592066Y-93005152D01*
X85592066Y-93005152D02*
X85668257Y-92967057D01*
X85668257Y-92967057D02*
X85820638Y-92967057D01*
X85820638Y-92967057D02*
X85896828Y-93005152D01*
X85896828Y-93005152D02*
X85934923Y-93043247D01*
X85934923Y-93043247D02*
X85973019Y-93119438D01*
X106496828Y-93462295D02*
X106496828Y-92662295D01*
X106496828Y-92662295D02*
X106306352Y-92662295D01*
X106306352Y-92662295D02*
X106192066Y-92700390D01*
X106192066Y-92700390D02*
X106115876Y-92776580D01*
X106115876Y-92776580D02*
X106077781Y-92852771D01*
X106077781Y-92852771D02*
X106039685Y-93005152D01*
X106039685Y-93005152D02*
X106039685Y-93119438D01*
X106039685Y-93119438D02*
X106077781Y-93271819D01*
X106077781Y-93271819D02*
X106115876Y-93348009D01*
X106115876Y-93348009D02*
X106192066Y-93424200D01*
X106192066Y-93424200D02*
X106306352Y-93462295D01*
X106306352Y-93462295D02*
X106496828Y-93462295D01*
X105277781Y-93462295D02*
X105734924Y-93462295D01*
X105506352Y-93462295D02*
X105506352Y-92662295D01*
X105506352Y-92662295D02*
X105582543Y-92776580D01*
X105582543Y-92776580D02*
X105658733Y-92852771D01*
X105658733Y-92852771D02*
X105734924Y-92890866D01*
X105011114Y-92662295D02*
X104477780Y-92662295D01*
X104477780Y-92662295D02*
X104820638Y-93462295D01*
X44496828Y-131462295D02*
X44496828Y-130662295D01*
X44496828Y-130662295D02*
X44306352Y-130662295D01*
X44306352Y-130662295D02*
X44192066Y-130700390D01*
X44192066Y-130700390D02*
X44115876Y-130776580D01*
X44115876Y-130776580D02*
X44077781Y-130852771D01*
X44077781Y-130852771D02*
X44039685Y-131005152D01*
X44039685Y-131005152D02*
X44039685Y-131119438D01*
X44039685Y-131119438D02*
X44077781Y-131271819D01*
X44077781Y-131271819D02*
X44115876Y-131348009D01*
X44115876Y-131348009D02*
X44192066Y-131424200D01*
X44192066Y-131424200D02*
X44306352Y-131462295D01*
X44306352Y-131462295D02*
X44496828Y-131462295D01*
X43773019Y-130662295D02*
X43277781Y-130662295D01*
X43277781Y-130662295D02*
X43544447Y-130967057D01*
X43544447Y-130967057D02*
X43430162Y-130967057D01*
X43430162Y-130967057D02*
X43353971Y-131005152D01*
X43353971Y-131005152D02*
X43315876Y-131043247D01*
X43315876Y-131043247D02*
X43277781Y-131119438D01*
X43277781Y-131119438D02*
X43277781Y-131309914D01*
X43277781Y-131309914D02*
X43315876Y-131386104D01*
X43315876Y-131386104D02*
X43353971Y-131424200D01*
X43353971Y-131424200D02*
X43430162Y-131462295D01*
X43430162Y-131462295D02*
X43658733Y-131462295D01*
X43658733Y-131462295D02*
X43734924Y-131424200D01*
X43734924Y-131424200D02*
X43773019Y-131386104D01*
X42820638Y-131005152D02*
X42896828Y-130967057D01*
X42896828Y-130967057D02*
X42934923Y-130928961D01*
X42934923Y-130928961D02*
X42973019Y-130852771D01*
X42973019Y-130852771D02*
X42973019Y-130814676D01*
X42973019Y-130814676D02*
X42934923Y-130738485D01*
X42934923Y-130738485D02*
X42896828Y-130700390D01*
X42896828Y-130700390D02*
X42820638Y-130662295D01*
X42820638Y-130662295D02*
X42668257Y-130662295D01*
X42668257Y-130662295D02*
X42592066Y-130700390D01*
X42592066Y-130700390D02*
X42553971Y-130738485D01*
X42553971Y-130738485D02*
X42515876Y-130814676D01*
X42515876Y-130814676D02*
X42515876Y-130852771D01*
X42515876Y-130852771D02*
X42553971Y-130928961D01*
X42553971Y-130928961D02*
X42592066Y-130967057D01*
X42592066Y-130967057D02*
X42668257Y-131005152D01*
X42668257Y-131005152D02*
X42820638Y-131005152D01*
X42820638Y-131005152D02*
X42896828Y-131043247D01*
X42896828Y-131043247D02*
X42934923Y-131081342D01*
X42934923Y-131081342D02*
X42973019Y-131157533D01*
X42973019Y-131157533D02*
X42973019Y-131309914D01*
X42973019Y-131309914D02*
X42934923Y-131386104D01*
X42934923Y-131386104D02*
X42896828Y-131424200D01*
X42896828Y-131424200D02*
X42820638Y-131462295D01*
X42820638Y-131462295D02*
X42668257Y-131462295D01*
X42668257Y-131462295D02*
X42592066Y-131424200D01*
X42592066Y-131424200D02*
X42553971Y-131386104D01*
X42553971Y-131386104D02*
X42515876Y-131309914D01*
X42515876Y-131309914D02*
X42515876Y-131157533D01*
X42515876Y-131157533D02*
X42553971Y-131081342D01*
X42553971Y-131081342D02*
X42592066Y-131043247D01*
X42592066Y-131043247D02*
X42668257Y-131005152D01*
X244496828Y-131462295D02*
X244496828Y-130662295D01*
X244496828Y-130662295D02*
X244306352Y-130662295D01*
X244306352Y-130662295D02*
X244192066Y-130700390D01*
X244192066Y-130700390D02*
X244115876Y-130776580D01*
X244115876Y-130776580D02*
X244077781Y-130852771D01*
X244077781Y-130852771D02*
X244039685Y-131005152D01*
X244039685Y-131005152D02*
X244039685Y-131119438D01*
X244039685Y-131119438D02*
X244077781Y-131271819D01*
X244077781Y-131271819D02*
X244115876Y-131348009D01*
X244115876Y-131348009D02*
X244192066Y-131424200D01*
X244192066Y-131424200D02*
X244306352Y-131462295D01*
X244306352Y-131462295D02*
X244496828Y-131462295D01*
X243353971Y-130928961D02*
X243353971Y-131462295D01*
X243544447Y-130624200D02*
X243734924Y-131195628D01*
X243734924Y-131195628D02*
X243239685Y-131195628D01*
X242592066Y-130662295D02*
X242744447Y-130662295D01*
X242744447Y-130662295D02*
X242820638Y-130700390D01*
X242820638Y-130700390D02*
X242858733Y-130738485D01*
X242858733Y-130738485D02*
X242934923Y-130852771D01*
X242934923Y-130852771D02*
X242973019Y-131005152D01*
X242973019Y-131005152D02*
X242973019Y-131309914D01*
X242973019Y-131309914D02*
X242934923Y-131386104D01*
X242934923Y-131386104D02*
X242896828Y-131424200D01*
X242896828Y-131424200D02*
X242820638Y-131462295D01*
X242820638Y-131462295D02*
X242668257Y-131462295D01*
X242668257Y-131462295D02*
X242592066Y-131424200D01*
X242592066Y-131424200D02*
X242553971Y-131386104D01*
X242553971Y-131386104D02*
X242515876Y-131309914D01*
X242515876Y-131309914D02*
X242515876Y-131119438D01*
X242515876Y-131119438D02*
X242553971Y-131043247D01*
X242553971Y-131043247D02*
X242592066Y-131005152D01*
X242592066Y-131005152D02*
X242668257Y-130967057D01*
X242668257Y-130967057D02*
X242820638Y-130967057D01*
X242820638Y-130967057D02*
X242896828Y-131005152D01*
X242896828Y-131005152D02*
X242934923Y-131043247D01*
X242934923Y-131043247D02*
X242973019Y-131119438D01*
X220996828Y-93462295D02*
X220996828Y-92662295D01*
X220996828Y-92662295D02*
X220806352Y-92662295D01*
X220806352Y-92662295D02*
X220692066Y-92700390D01*
X220692066Y-92700390D02*
X220615876Y-92776580D01*
X220615876Y-92776580D02*
X220577781Y-92852771D01*
X220577781Y-92852771D02*
X220539685Y-93005152D01*
X220539685Y-93005152D02*
X220539685Y-93119438D01*
X220539685Y-93119438D02*
X220577781Y-93271819D01*
X220577781Y-93271819D02*
X220615876Y-93348009D01*
X220615876Y-93348009D02*
X220692066Y-93424200D01*
X220692066Y-93424200D02*
X220806352Y-93462295D01*
X220806352Y-93462295D02*
X220996828Y-93462295D01*
X220234924Y-92738485D02*
X220196828Y-92700390D01*
X220196828Y-92700390D02*
X220120638Y-92662295D01*
X220120638Y-92662295D02*
X219930162Y-92662295D01*
X219930162Y-92662295D02*
X219853971Y-92700390D01*
X219853971Y-92700390D02*
X219815876Y-92738485D01*
X219815876Y-92738485D02*
X219777781Y-92814676D01*
X219777781Y-92814676D02*
X219777781Y-92890866D01*
X219777781Y-92890866D02*
X219815876Y-93005152D01*
X219815876Y-93005152D02*
X220273019Y-93462295D01*
X220273019Y-93462295D02*
X219777781Y-93462295D01*
X219511114Y-92662295D02*
X219015876Y-92662295D01*
X219015876Y-92662295D02*
X219282542Y-92967057D01*
X219282542Y-92967057D02*
X219168257Y-92967057D01*
X219168257Y-92967057D02*
X219092066Y-93005152D01*
X219092066Y-93005152D02*
X219053971Y-93043247D01*
X219053971Y-93043247D02*
X219015876Y-93119438D01*
X219015876Y-93119438D02*
X219015876Y-93309914D01*
X219015876Y-93309914D02*
X219053971Y-93386104D01*
X219053971Y-93386104D02*
X219092066Y-93424200D01*
X219092066Y-93424200D02*
X219168257Y-93462295D01*
X219168257Y-93462295D02*
X219396828Y-93462295D01*
X219396828Y-93462295D02*
X219473019Y-93424200D01*
X219473019Y-93424200D02*
X219511114Y-93386104D01*
X184996828Y-134312295D02*
X184996828Y-133512295D01*
X184996828Y-133512295D02*
X184806352Y-133512295D01*
X184806352Y-133512295D02*
X184692066Y-133550390D01*
X184692066Y-133550390D02*
X184615876Y-133626580D01*
X184615876Y-133626580D02*
X184577781Y-133702771D01*
X184577781Y-133702771D02*
X184539685Y-133855152D01*
X184539685Y-133855152D02*
X184539685Y-133969438D01*
X184539685Y-133969438D02*
X184577781Y-134121819D01*
X184577781Y-134121819D02*
X184615876Y-134198009D01*
X184615876Y-134198009D02*
X184692066Y-134274200D01*
X184692066Y-134274200D02*
X184806352Y-134312295D01*
X184806352Y-134312295D02*
X184996828Y-134312295D01*
X183853971Y-133778961D02*
X183853971Y-134312295D01*
X184044447Y-133474200D02*
X184234924Y-134045628D01*
X184234924Y-134045628D02*
X183739685Y-134045628D01*
X183511114Y-133512295D02*
X183015876Y-133512295D01*
X183015876Y-133512295D02*
X183282542Y-133817057D01*
X183282542Y-133817057D02*
X183168257Y-133817057D01*
X183168257Y-133817057D02*
X183092066Y-133855152D01*
X183092066Y-133855152D02*
X183053971Y-133893247D01*
X183053971Y-133893247D02*
X183015876Y-133969438D01*
X183015876Y-133969438D02*
X183015876Y-134159914D01*
X183015876Y-134159914D02*
X183053971Y-134236104D01*
X183053971Y-134236104D02*
X183092066Y-134274200D01*
X183092066Y-134274200D02*
X183168257Y-134312295D01*
X183168257Y-134312295D02*
X183396828Y-134312295D01*
X183396828Y-134312295D02*
X183473019Y-134274200D01*
X183473019Y-134274200D02*
X183511114Y-134236104D01*
X267521828Y-128837295D02*
X267521828Y-128037295D01*
X267521828Y-128037295D02*
X267331352Y-128037295D01*
X267331352Y-128037295D02*
X267217066Y-128075390D01*
X267217066Y-128075390D02*
X267140876Y-128151580D01*
X267140876Y-128151580D02*
X267102781Y-128227771D01*
X267102781Y-128227771D02*
X267064685Y-128380152D01*
X267064685Y-128380152D02*
X267064685Y-128494438D01*
X267064685Y-128494438D02*
X267102781Y-128646819D01*
X267102781Y-128646819D02*
X267140876Y-128723009D01*
X267140876Y-128723009D02*
X267217066Y-128799200D01*
X267217066Y-128799200D02*
X267331352Y-128837295D01*
X267331352Y-128837295D02*
X267521828Y-128837295D01*
X266378971Y-128303961D02*
X266378971Y-128837295D01*
X266569447Y-127999200D02*
X266759924Y-128570628D01*
X266759924Y-128570628D02*
X266264685Y-128570628D01*
X266036114Y-128037295D02*
X265502780Y-128037295D01*
X265502780Y-128037295D02*
X265845638Y-128837295D01*
X84946428Y-131487295D02*
X84946428Y-130687295D01*
X84946428Y-130687295D02*
X84755952Y-130687295D01*
X84755952Y-130687295D02*
X84641666Y-130725390D01*
X84641666Y-130725390D02*
X84565476Y-130801580D01*
X84565476Y-130801580D02*
X84527381Y-130877771D01*
X84527381Y-130877771D02*
X84489285Y-131030152D01*
X84489285Y-131030152D02*
X84489285Y-131144438D01*
X84489285Y-131144438D02*
X84527381Y-131296819D01*
X84527381Y-131296819D02*
X84565476Y-131373009D01*
X84565476Y-131373009D02*
X84641666Y-131449200D01*
X84641666Y-131449200D02*
X84755952Y-131487295D01*
X84755952Y-131487295D02*
X84946428Y-131487295D01*
X83803571Y-130953961D02*
X83803571Y-131487295D01*
X83994047Y-130649200D02*
X84184524Y-131220628D01*
X84184524Y-131220628D02*
X83689285Y-131220628D01*
X83232142Y-130687295D02*
X83155952Y-130687295D01*
X83155952Y-130687295D02*
X83079761Y-130725390D01*
X83079761Y-130725390D02*
X83041666Y-130763485D01*
X83041666Y-130763485D02*
X83003571Y-130839676D01*
X83003571Y-130839676D02*
X82965476Y-130992057D01*
X82965476Y-130992057D02*
X82965476Y-131182533D01*
X82965476Y-131182533D02*
X83003571Y-131334914D01*
X83003571Y-131334914D02*
X83041666Y-131411104D01*
X83041666Y-131411104D02*
X83079761Y-131449200D01*
X83079761Y-131449200D02*
X83155952Y-131487295D01*
X83155952Y-131487295D02*
X83232142Y-131487295D01*
X83232142Y-131487295D02*
X83308333Y-131449200D01*
X83308333Y-131449200D02*
X83346428Y-131411104D01*
X83346428Y-131411104D02*
X83384523Y-131334914D01*
X83384523Y-131334914D02*
X83422619Y-131182533D01*
X83422619Y-131182533D02*
X83422619Y-130992057D01*
X83422619Y-130992057D02*
X83384523Y-130839676D01*
X83384523Y-130839676D02*
X83346428Y-130763485D01*
X83346428Y-130763485D02*
X83308333Y-130725390D01*
X83308333Y-130725390D02*
X83232142Y-130687295D01*
X125496828Y-93462295D02*
X125496828Y-92662295D01*
X125496828Y-92662295D02*
X125306352Y-92662295D01*
X125306352Y-92662295D02*
X125192066Y-92700390D01*
X125192066Y-92700390D02*
X125115876Y-92776580D01*
X125115876Y-92776580D02*
X125077781Y-92852771D01*
X125077781Y-92852771D02*
X125039685Y-93005152D01*
X125039685Y-93005152D02*
X125039685Y-93119438D01*
X125039685Y-93119438D02*
X125077781Y-93271819D01*
X125077781Y-93271819D02*
X125115876Y-93348009D01*
X125115876Y-93348009D02*
X125192066Y-93424200D01*
X125192066Y-93424200D02*
X125306352Y-93462295D01*
X125306352Y-93462295D02*
X125496828Y-93462295D01*
X124277781Y-93462295D02*
X124734924Y-93462295D01*
X124506352Y-93462295D02*
X124506352Y-92662295D01*
X124506352Y-92662295D02*
X124582543Y-92776580D01*
X124582543Y-92776580D02*
X124658733Y-92852771D01*
X124658733Y-92852771D02*
X124734924Y-92890866D01*
X123820638Y-93005152D02*
X123896828Y-92967057D01*
X123896828Y-92967057D02*
X123934923Y-92928961D01*
X123934923Y-92928961D02*
X123973019Y-92852771D01*
X123973019Y-92852771D02*
X123973019Y-92814676D01*
X123973019Y-92814676D02*
X123934923Y-92738485D01*
X123934923Y-92738485D02*
X123896828Y-92700390D01*
X123896828Y-92700390D02*
X123820638Y-92662295D01*
X123820638Y-92662295D02*
X123668257Y-92662295D01*
X123668257Y-92662295D02*
X123592066Y-92700390D01*
X123592066Y-92700390D02*
X123553971Y-92738485D01*
X123553971Y-92738485D02*
X123515876Y-92814676D01*
X123515876Y-92814676D02*
X123515876Y-92852771D01*
X123515876Y-92852771D02*
X123553971Y-92928961D01*
X123553971Y-92928961D02*
X123592066Y-92967057D01*
X123592066Y-92967057D02*
X123668257Y-93005152D01*
X123668257Y-93005152D02*
X123820638Y-93005152D01*
X123820638Y-93005152D02*
X123896828Y-93043247D01*
X123896828Y-93043247D02*
X123934923Y-93081342D01*
X123934923Y-93081342D02*
X123973019Y-93157533D01*
X123973019Y-93157533D02*
X123973019Y-93309914D01*
X123973019Y-93309914D02*
X123934923Y-93386104D01*
X123934923Y-93386104D02*
X123896828Y-93424200D01*
X123896828Y-93424200D02*
X123820638Y-93462295D01*
X123820638Y-93462295D02*
X123668257Y-93462295D01*
X123668257Y-93462295D02*
X123592066Y-93424200D01*
X123592066Y-93424200D02*
X123553971Y-93386104D01*
X123553971Y-93386104D02*
X123515876Y-93309914D01*
X123515876Y-93309914D02*
X123515876Y-93157533D01*
X123515876Y-93157533D02*
X123553971Y-93081342D01*
X123553971Y-93081342D02*
X123592066Y-93043247D01*
X123592066Y-93043247D02*
X123668257Y-93005152D01*
X27996828Y-93462295D02*
X27996828Y-92662295D01*
X27996828Y-92662295D02*
X27806352Y-92662295D01*
X27806352Y-92662295D02*
X27692066Y-92700390D01*
X27692066Y-92700390D02*
X27615876Y-92776580D01*
X27615876Y-92776580D02*
X27577781Y-92852771D01*
X27577781Y-92852771D02*
X27539685Y-93005152D01*
X27539685Y-93005152D02*
X27539685Y-93119438D01*
X27539685Y-93119438D02*
X27577781Y-93271819D01*
X27577781Y-93271819D02*
X27615876Y-93348009D01*
X27615876Y-93348009D02*
X27692066Y-93424200D01*
X27692066Y-93424200D02*
X27806352Y-93462295D01*
X27806352Y-93462295D02*
X27996828Y-93462295D01*
X26777781Y-93462295D02*
X27234924Y-93462295D01*
X27006352Y-93462295D02*
X27006352Y-92662295D01*
X27006352Y-92662295D02*
X27082543Y-92776580D01*
X27082543Y-92776580D02*
X27158733Y-92852771D01*
X27158733Y-92852771D02*
X27234924Y-92890866D01*
X26511114Y-92662295D02*
X26015876Y-92662295D01*
X26015876Y-92662295D02*
X26282542Y-92967057D01*
X26282542Y-92967057D02*
X26168257Y-92967057D01*
X26168257Y-92967057D02*
X26092066Y-93005152D01*
X26092066Y-93005152D02*
X26053971Y-93043247D01*
X26053971Y-93043247D02*
X26015876Y-93119438D01*
X26015876Y-93119438D02*
X26015876Y-93309914D01*
X26015876Y-93309914D02*
X26053971Y-93386104D01*
X26053971Y-93386104D02*
X26092066Y-93424200D01*
X26092066Y-93424200D02*
X26168257Y-93462295D01*
X26168257Y-93462295D02*
X26396828Y-93462295D01*
X26396828Y-93462295D02*
X26473019Y-93424200D01*
X26473019Y-93424200D02*
X26511114Y-93386104D01*
X244496828Y-112462295D02*
X244496828Y-111662295D01*
X244496828Y-111662295D02*
X244306352Y-111662295D01*
X244306352Y-111662295D02*
X244192066Y-111700390D01*
X244192066Y-111700390D02*
X244115876Y-111776580D01*
X244115876Y-111776580D02*
X244077781Y-111852771D01*
X244077781Y-111852771D02*
X244039685Y-112005152D01*
X244039685Y-112005152D02*
X244039685Y-112119438D01*
X244039685Y-112119438D02*
X244077781Y-112271819D01*
X244077781Y-112271819D02*
X244115876Y-112348009D01*
X244115876Y-112348009D02*
X244192066Y-112424200D01*
X244192066Y-112424200D02*
X244306352Y-112462295D01*
X244306352Y-112462295D02*
X244496828Y-112462295D01*
X243773019Y-111662295D02*
X243277781Y-111662295D01*
X243277781Y-111662295D02*
X243544447Y-111967057D01*
X243544447Y-111967057D02*
X243430162Y-111967057D01*
X243430162Y-111967057D02*
X243353971Y-112005152D01*
X243353971Y-112005152D02*
X243315876Y-112043247D01*
X243315876Y-112043247D02*
X243277781Y-112119438D01*
X243277781Y-112119438D02*
X243277781Y-112309914D01*
X243277781Y-112309914D02*
X243315876Y-112386104D01*
X243315876Y-112386104D02*
X243353971Y-112424200D01*
X243353971Y-112424200D02*
X243430162Y-112462295D01*
X243430162Y-112462295D02*
X243658733Y-112462295D01*
X243658733Y-112462295D02*
X243734924Y-112424200D01*
X243734924Y-112424200D02*
X243773019Y-112386104D01*
X242592066Y-111662295D02*
X242744447Y-111662295D01*
X242744447Y-111662295D02*
X242820638Y-111700390D01*
X242820638Y-111700390D02*
X242858733Y-111738485D01*
X242858733Y-111738485D02*
X242934923Y-111852771D01*
X242934923Y-111852771D02*
X242973019Y-112005152D01*
X242973019Y-112005152D02*
X242973019Y-112309914D01*
X242973019Y-112309914D02*
X242934923Y-112386104D01*
X242934923Y-112386104D02*
X242896828Y-112424200D01*
X242896828Y-112424200D02*
X242820638Y-112462295D01*
X242820638Y-112462295D02*
X242668257Y-112462295D01*
X242668257Y-112462295D02*
X242592066Y-112424200D01*
X242592066Y-112424200D02*
X242553971Y-112386104D01*
X242553971Y-112386104D02*
X242515876Y-112309914D01*
X242515876Y-112309914D02*
X242515876Y-112119438D01*
X242515876Y-112119438D02*
X242553971Y-112043247D01*
X242553971Y-112043247D02*
X242592066Y-112005152D01*
X242592066Y-112005152D02*
X242668257Y-111967057D01*
X242668257Y-111967057D02*
X242820638Y-111967057D01*
X242820638Y-111967057D02*
X242896828Y-112005152D01*
X242896828Y-112005152D02*
X242934923Y-112043247D01*
X242934923Y-112043247D02*
X242973019Y-112119438D01*
X130496828Y-112462295D02*
X130496828Y-111662295D01*
X130496828Y-111662295D02*
X130306352Y-111662295D01*
X130306352Y-111662295D02*
X130192066Y-111700390D01*
X130192066Y-111700390D02*
X130115876Y-111776580D01*
X130115876Y-111776580D02*
X130077781Y-111852771D01*
X130077781Y-111852771D02*
X130039685Y-112005152D01*
X130039685Y-112005152D02*
X130039685Y-112119438D01*
X130039685Y-112119438D02*
X130077781Y-112271819D01*
X130077781Y-112271819D02*
X130115876Y-112348009D01*
X130115876Y-112348009D02*
X130192066Y-112424200D01*
X130192066Y-112424200D02*
X130306352Y-112462295D01*
X130306352Y-112462295D02*
X130496828Y-112462295D01*
X129773019Y-111662295D02*
X129277781Y-111662295D01*
X129277781Y-111662295D02*
X129544447Y-111967057D01*
X129544447Y-111967057D02*
X129430162Y-111967057D01*
X129430162Y-111967057D02*
X129353971Y-112005152D01*
X129353971Y-112005152D02*
X129315876Y-112043247D01*
X129315876Y-112043247D02*
X129277781Y-112119438D01*
X129277781Y-112119438D02*
X129277781Y-112309914D01*
X129277781Y-112309914D02*
X129315876Y-112386104D01*
X129315876Y-112386104D02*
X129353971Y-112424200D01*
X129353971Y-112424200D02*
X129430162Y-112462295D01*
X129430162Y-112462295D02*
X129658733Y-112462295D01*
X129658733Y-112462295D02*
X129734924Y-112424200D01*
X129734924Y-112424200D02*
X129773019Y-112386104D01*
X128782542Y-111662295D02*
X128706352Y-111662295D01*
X128706352Y-111662295D02*
X128630161Y-111700390D01*
X128630161Y-111700390D02*
X128592066Y-111738485D01*
X128592066Y-111738485D02*
X128553971Y-111814676D01*
X128553971Y-111814676D02*
X128515876Y-111967057D01*
X128515876Y-111967057D02*
X128515876Y-112157533D01*
X128515876Y-112157533D02*
X128553971Y-112309914D01*
X128553971Y-112309914D02*
X128592066Y-112386104D01*
X128592066Y-112386104D02*
X128630161Y-112424200D01*
X128630161Y-112424200D02*
X128706352Y-112462295D01*
X128706352Y-112462295D02*
X128782542Y-112462295D01*
X128782542Y-112462295D02*
X128858733Y-112424200D01*
X128858733Y-112424200D02*
X128896828Y-112386104D01*
X128896828Y-112386104D02*
X128934923Y-112309914D01*
X128934923Y-112309914D02*
X128973019Y-112157533D01*
X128973019Y-112157533D02*
X128973019Y-111967057D01*
X128973019Y-111967057D02*
X128934923Y-111814676D01*
X128934923Y-111814676D02*
X128896828Y-111738485D01*
X128896828Y-111738485D02*
X128858733Y-111700390D01*
X128858733Y-111700390D02*
X128782542Y-111662295D01*
X63615875Y-74462295D02*
X63615875Y-73662295D01*
X63615875Y-73662295D02*
X63425399Y-73662295D01*
X63425399Y-73662295D02*
X63311113Y-73700390D01*
X63311113Y-73700390D02*
X63234923Y-73776580D01*
X63234923Y-73776580D02*
X63196828Y-73852771D01*
X63196828Y-73852771D02*
X63158732Y-74005152D01*
X63158732Y-74005152D02*
X63158732Y-74119438D01*
X63158732Y-74119438D02*
X63196828Y-74271819D01*
X63196828Y-74271819D02*
X63234923Y-74348009D01*
X63234923Y-74348009D02*
X63311113Y-74424200D01*
X63311113Y-74424200D02*
X63425399Y-74462295D01*
X63425399Y-74462295D02*
X63615875Y-74462295D01*
X62892066Y-73662295D02*
X62396828Y-73662295D01*
X62396828Y-73662295D02*
X62663494Y-73967057D01*
X62663494Y-73967057D02*
X62549209Y-73967057D01*
X62549209Y-73967057D02*
X62473018Y-74005152D01*
X62473018Y-74005152D02*
X62434923Y-74043247D01*
X62434923Y-74043247D02*
X62396828Y-74119438D01*
X62396828Y-74119438D02*
X62396828Y-74309914D01*
X62396828Y-74309914D02*
X62434923Y-74386104D01*
X62434923Y-74386104D02*
X62473018Y-74424200D01*
X62473018Y-74424200D02*
X62549209Y-74462295D01*
X62549209Y-74462295D02*
X62777780Y-74462295D01*
X62777780Y-74462295D02*
X62853971Y-74424200D01*
X62853971Y-74424200D02*
X62892066Y-74386104D01*
X182896828Y-93462295D02*
X182896828Y-92662295D01*
X182896828Y-92662295D02*
X182706352Y-92662295D01*
X182706352Y-92662295D02*
X182592066Y-92700390D01*
X182592066Y-92700390D02*
X182515876Y-92776580D01*
X182515876Y-92776580D02*
X182477781Y-92852771D01*
X182477781Y-92852771D02*
X182439685Y-93005152D01*
X182439685Y-93005152D02*
X182439685Y-93119438D01*
X182439685Y-93119438D02*
X182477781Y-93271819D01*
X182477781Y-93271819D02*
X182515876Y-93348009D01*
X182515876Y-93348009D02*
X182592066Y-93424200D01*
X182592066Y-93424200D02*
X182706352Y-93462295D01*
X182706352Y-93462295D02*
X182896828Y-93462295D01*
X182134924Y-92738485D02*
X182096828Y-92700390D01*
X182096828Y-92700390D02*
X182020638Y-92662295D01*
X182020638Y-92662295D02*
X181830162Y-92662295D01*
X181830162Y-92662295D02*
X181753971Y-92700390D01*
X181753971Y-92700390D02*
X181715876Y-92738485D01*
X181715876Y-92738485D02*
X181677781Y-92814676D01*
X181677781Y-92814676D02*
X181677781Y-92890866D01*
X181677781Y-92890866D02*
X181715876Y-93005152D01*
X181715876Y-93005152D02*
X182173019Y-93462295D01*
X182173019Y-93462295D02*
X181677781Y-93462295D01*
X180915876Y-93462295D02*
X181373019Y-93462295D01*
X181144447Y-93462295D02*
X181144447Y-92662295D01*
X181144447Y-92662295D02*
X181220638Y-92776580D01*
X181220638Y-92776580D02*
X181296828Y-92852771D01*
X181296828Y-92852771D02*
X181373019Y-92890866D01*
X153971428Y-131362295D02*
X153971428Y-130562295D01*
X153971428Y-130562295D02*
X153780952Y-130562295D01*
X153780952Y-130562295D02*
X153666666Y-130600390D01*
X153666666Y-130600390D02*
X153590476Y-130676580D01*
X153590476Y-130676580D02*
X153552381Y-130752771D01*
X153552381Y-130752771D02*
X153514285Y-130905152D01*
X153514285Y-130905152D02*
X153514285Y-131019438D01*
X153514285Y-131019438D02*
X153552381Y-131171819D01*
X153552381Y-131171819D02*
X153590476Y-131248009D01*
X153590476Y-131248009D02*
X153666666Y-131324200D01*
X153666666Y-131324200D02*
X153780952Y-131362295D01*
X153780952Y-131362295D02*
X153971428Y-131362295D01*
X152828571Y-130828961D02*
X152828571Y-131362295D01*
X153019047Y-130524200D02*
X153209524Y-131095628D01*
X153209524Y-131095628D02*
X152714285Y-131095628D01*
X152447619Y-130638485D02*
X152409523Y-130600390D01*
X152409523Y-130600390D02*
X152333333Y-130562295D01*
X152333333Y-130562295D02*
X152142857Y-130562295D01*
X152142857Y-130562295D02*
X152066666Y-130600390D01*
X152066666Y-130600390D02*
X152028571Y-130638485D01*
X152028571Y-130638485D02*
X151990476Y-130714676D01*
X151990476Y-130714676D02*
X151990476Y-130790866D01*
X151990476Y-130790866D02*
X152028571Y-130905152D01*
X152028571Y-130905152D02*
X152485714Y-131362295D01*
X152485714Y-131362295D02*
X151990476Y-131362295D01*
X272683023Y-85212295D02*
X273140166Y-85212295D01*
X272911594Y-85212295D02*
X272911594Y-84412295D01*
X272911594Y-84412295D02*
X272987785Y-84526580D01*
X272987785Y-84526580D02*
X273063975Y-84602771D01*
X273063975Y-84602771D02*
X273140166Y-84640866D01*
X272187784Y-84412295D02*
X272111594Y-84412295D01*
X272111594Y-84412295D02*
X272035403Y-84450390D01*
X272035403Y-84450390D02*
X271997308Y-84488485D01*
X271997308Y-84488485D02*
X271959213Y-84564676D01*
X271959213Y-84564676D02*
X271921118Y-84717057D01*
X271921118Y-84717057D02*
X271921118Y-84907533D01*
X271921118Y-84907533D02*
X271959213Y-85059914D01*
X271959213Y-85059914D02*
X271997308Y-85136104D01*
X271997308Y-85136104D02*
X272035403Y-85174200D01*
X272035403Y-85174200D02*
X272111594Y-85212295D01*
X272111594Y-85212295D02*
X272187784Y-85212295D01*
X272187784Y-85212295D02*
X272263975Y-85174200D01*
X272263975Y-85174200D02*
X272302070Y-85136104D01*
X272302070Y-85136104D02*
X272340165Y-85059914D01*
X272340165Y-85059914D02*
X272378261Y-84907533D01*
X272378261Y-84907533D02*
X272378261Y-84717057D01*
X272378261Y-84717057D02*
X272340165Y-84564676D01*
X272340165Y-84564676D02*
X272302070Y-84488485D01*
X272302070Y-84488485D02*
X272263975Y-84450390D01*
X272263975Y-84450390D02*
X272187784Y-84412295D01*
X271425879Y-84412295D02*
X271349689Y-84412295D01*
X271349689Y-84412295D02*
X271273498Y-84450390D01*
X271273498Y-84450390D02*
X271235403Y-84488485D01*
X271235403Y-84488485D02*
X271197308Y-84564676D01*
X271197308Y-84564676D02*
X271159213Y-84717057D01*
X271159213Y-84717057D02*
X271159213Y-84907533D01*
X271159213Y-84907533D02*
X271197308Y-85059914D01*
X271197308Y-85059914D02*
X271235403Y-85136104D01*
X271235403Y-85136104D02*
X271273498Y-85174200D01*
X271273498Y-85174200D02*
X271349689Y-85212295D01*
X271349689Y-85212295D02*
X271425879Y-85212295D01*
X271425879Y-85212295D02*
X271502070Y-85174200D01*
X271502070Y-85174200D02*
X271540165Y-85136104D01*
X271540165Y-85136104D02*
X271578260Y-85059914D01*
X271578260Y-85059914D02*
X271616356Y-84907533D01*
X271616356Y-84907533D02*
X271616356Y-84717057D01*
X271616356Y-84717057D02*
X271578260Y-84564676D01*
X271578260Y-84564676D02*
X271540165Y-84488485D01*
X271540165Y-84488485D02*
X271502070Y-84450390D01*
X271502070Y-84450390D02*
X271425879Y-84412295D01*
X262141975Y-71712295D02*
X261875308Y-72512295D01*
X261875308Y-72512295D02*
X261608642Y-71712295D01*
X260884832Y-72436104D02*
X260922928Y-72474200D01*
X260922928Y-72474200D02*
X261037213Y-72512295D01*
X261037213Y-72512295D02*
X261113404Y-72512295D01*
X261113404Y-72512295D02*
X261227690Y-72474200D01*
X261227690Y-72474200D02*
X261303880Y-72398009D01*
X261303880Y-72398009D02*
X261341975Y-72321819D01*
X261341975Y-72321819D02*
X261380071Y-72169438D01*
X261380071Y-72169438D02*
X261380071Y-72055152D01*
X261380071Y-72055152D02*
X261341975Y-71902771D01*
X261341975Y-71902771D02*
X261303880Y-71826580D01*
X261303880Y-71826580D02*
X261227690Y-71750390D01*
X261227690Y-71750390D02*
X261113404Y-71712295D01*
X261113404Y-71712295D02*
X261037213Y-71712295D01*
X261037213Y-71712295D02*
X260922928Y-71750390D01*
X260922928Y-71750390D02*
X260884832Y-71788485D01*
X260084832Y-72436104D02*
X260122928Y-72474200D01*
X260122928Y-72474200D02*
X260237213Y-72512295D01*
X260237213Y-72512295D02*
X260313404Y-72512295D01*
X260313404Y-72512295D02*
X260427690Y-72474200D01*
X260427690Y-72474200D02*
X260503880Y-72398009D01*
X260503880Y-72398009D02*
X260541975Y-72321819D01*
X260541975Y-72321819D02*
X260580071Y-72169438D01*
X260580071Y-72169438D02*
X260580071Y-72055152D01*
X260580071Y-72055152D02*
X260541975Y-71902771D01*
X260541975Y-71902771D02*
X260503880Y-71826580D01*
X260503880Y-71826580D02*
X260427690Y-71750390D01*
X260427690Y-71750390D02*
X260313404Y-71712295D01*
X260313404Y-71712295D02*
X260237213Y-71712295D01*
X260237213Y-71712295D02*
X260122928Y-71750390D01*
X260122928Y-71750390D02*
X260084832Y-71788485D01*
X261691165Y-64892295D02*
X261957832Y-64511342D01*
X262148308Y-64892295D02*
X262148308Y-64092295D01*
X262148308Y-64092295D02*
X261843546Y-64092295D01*
X261843546Y-64092295D02*
X261767356Y-64130390D01*
X261767356Y-64130390D02*
X261729261Y-64168485D01*
X261729261Y-64168485D02*
X261691165Y-64244676D01*
X261691165Y-64244676D02*
X261691165Y-64358961D01*
X261691165Y-64358961D02*
X261729261Y-64435152D01*
X261729261Y-64435152D02*
X261767356Y-64473247D01*
X261767356Y-64473247D02*
X261843546Y-64511342D01*
X261843546Y-64511342D02*
X262148308Y-64511342D01*
X261386404Y-64663723D02*
X261005451Y-64663723D01*
X261462594Y-64892295D02*
X261195927Y-64092295D01*
X261195927Y-64092295D02*
X260929261Y-64892295D01*
X260738785Y-64092295D02*
X260548309Y-64892295D01*
X260548309Y-64892295D02*
X260395928Y-64320866D01*
X260395928Y-64320866D02*
X260243547Y-64892295D01*
X260243547Y-64892295D02*
X260053071Y-64092295D01*
X261875308Y-79332295D02*
X261799118Y-79332295D01*
X261799118Y-79332295D02*
X261722927Y-79370390D01*
X261722927Y-79370390D02*
X261684832Y-79408485D01*
X261684832Y-79408485D02*
X261646737Y-79484676D01*
X261646737Y-79484676D02*
X261608642Y-79637057D01*
X261608642Y-79637057D02*
X261608642Y-79827533D01*
X261608642Y-79827533D02*
X261646737Y-79979914D01*
X261646737Y-79979914D02*
X261684832Y-80056104D01*
X261684832Y-80056104D02*
X261722927Y-80094200D01*
X261722927Y-80094200D02*
X261799118Y-80132295D01*
X261799118Y-80132295D02*
X261875308Y-80132295D01*
X261875308Y-80132295D02*
X261951499Y-80094200D01*
X261951499Y-80094200D02*
X261989594Y-80056104D01*
X261989594Y-80056104D02*
X262027689Y-79979914D01*
X262027689Y-79979914D02*
X262065785Y-79827533D01*
X262065785Y-79827533D02*
X262065785Y-79637057D01*
X262065785Y-79637057D02*
X262027689Y-79484676D01*
X262027689Y-79484676D02*
X261989594Y-79408485D01*
X261989594Y-79408485D02*
X261951499Y-79370390D01*
X261951499Y-79370390D02*
X261875308Y-79332295D01*
X261113403Y-79332295D02*
X261037213Y-79332295D01*
X261037213Y-79332295D02*
X260961022Y-79370390D01*
X260961022Y-79370390D02*
X260922927Y-79408485D01*
X260922927Y-79408485D02*
X260884832Y-79484676D01*
X260884832Y-79484676D02*
X260846737Y-79637057D01*
X260846737Y-79637057D02*
X260846737Y-79827533D01*
X260846737Y-79827533D02*
X260884832Y-79979914D01*
X260884832Y-79979914D02*
X260922927Y-80056104D01*
X260922927Y-80056104D02*
X260961022Y-80094200D01*
X260961022Y-80094200D02*
X261037213Y-80132295D01*
X261037213Y-80132295D02*
X261113403Y-80132295D01*
X261113403Y-80132295D02*
X261189594Y-80094200D01*
X261189594Y-80094200D02*
X261227689Y-80056104D01*
X261227689Y-80056104D02*
X261265784Y-79979914D01*
X261265784Y-79979914D02*
X261303880Y-79827533D01*
X261303880Y-79827533D02*
X261303880Y-79637057D01*
X261303880Y-79637057D02*
X261265784Y-79484676D01*
X261265784Y-79484676D02*
X261227689Y-79408485D01*
X261227689Y-79408485D02*
X261189594Y-79370390D01*
X261189594Y-79370390D02*
X261113403Y-79332295D01*
X260541975Y-79408485D02*
X260503879Y-79370390D01*
X260503879Y-79370390D02*
X260427689Y-79332295D01*
X260427689Y-79332295D02*
X260237213Y-79332295D01*
X260237213Y-79332295D02*
X260161022Y-79370390D01*
X260161022Y-79370390D02*
X260122927Y-79408485D01*
X260122927Y-79408485D02*
X260084832Y-79484676D01*
X260084832Y-79484676D02*
X260084832Y-79560866D01*
X260084832Y-79560866D02*
X260122927Y-79675152D01*
X260122927Y-79675152D02*
X260580070Y-80132295D01*
X260580070Y-80132295D02*
X260084832Y-80132295D01*
X272683023Y-69210390D02*
X272759213Y-69172295D01*
X272759213Y-69172295D02*
X272873499Y-69172295D01*
X272873499Y-69172295D02*
X272987785Y-69210390D01*
X272987785Y-69210390D02*
X273063975Y-69286580D01*
X273063975Y-69286580D02*
X273102070Y-69362771D01*
X273102070Y-69362771D02*
X273140166Y-69515152D01*
X273140166Y-69515152D02*
X273140166Y-69629438D01*
X273140166Y-69629438D02*
X273102070Y-69781819D01*
X273102070Y-69781819D02*
X273063975Y-69858009D01*
X273063975Y-69858009D02*
X272987785Y-69934200D01*
X272987785Y-69934200D02*
X272873499Y-69972295D01*
X272873499Y-69972295D02*
X272797308Y-69972295D01*
X272797308Y-69972295D02*
X272683023Y-69934200D01*
X272683023Y-69934200D02*
X272644927Y-69896104D01*
X272644927Y-69896104D02*
X272644927Y-69629438D01*
X272644927Y-69629438D02*
X272797308Y-69629438D01*
X272302070Y-69972295D02*
X272302070Y-69172295D01*
X272302070Y-69172295D02*
X271844927Y-69972295D01*
X271844927Y-69972295D02*
X271844927Y-69172295D01*
X271463975Y-69972295D02*
X271463975Y-69172295D01*
X271463975Y-69172295D02*
X271273499Y-69172295D01*
X271273499Y-69172295D02*
X271159213Y-69210390D01*
X271159213Y-69210390D02*
X271083023Y-69286580D01*
X271083023Y-69286580D02*
X271044928Y-69362771D01*
X271044928Y-69362771D02*
X271006832Y-69515152D01*
X271006832Y-69515152D02*
X271006832Y-69629438D01*
X271006832Y-69629438D02*
X271044928Y-69781819D01*
X271044928Y-69781819D02*
X271083023Y-69858009D01*
X271083023Y-69858009D02*
X271159213Y-69934200D01*
X271159213Y-69934200D02*
X271273499Y-69972295D01*
X271273499Y-69972295D02*
X271463975Y-69972295D01*
X261875308Y-74252295D02*
X261799118Y-74252295D01*
X261799118Y-74252295D02*
X261722927Y-74290390D01*
X261722927Y-74290390D02*
X261684832Y-74328485D01*
X261684832Y-74328485D02*
X261646737Y-74404676D01*
X261646737Y-74404676D02*
X261608642Y-74557057D01*
X261608642Y-74557057D02*
X261608642Y-74747533D01*
X261608642Y-74747533D02*
X261646737Y-74899914D01*
X261646737Y-74899914D02*
X261684832Y-74976104D01*
X261684832Y-74976104D02*
X261722927Y-75014200D01*
X261722927Y-75014200D02*
X261799118Y-75052295D01*
X261799118Y-75052295D02*
X261875308Y-75052295D01*
X261875308Y-75052295D02*
X261951499Y-75014200D01*
X261951499Y-75014200D02*
X261989594Y-74976104D01*
X261989594Y-74976104D02*
X262027689Y-74899914D01*
X262027689Y-74899914D02*
X262065785Y-74747533D01*
X262065785Y-74747533D02*
X262065785Y-74557057D01*
X262065785Y-74557057D02*
X262027689Y-74404676D01*
X262027689Y-74404676D02*
X261989594Y-74328485D01*
X261989594Y-74328485D02*
X261951499Y-74290390D01*
X261951499Y-74290390D02*
X261875308Y-74252295D01*
X261341975Y-74252295D02*
X260846737Y-74252295D01*
X260846737Y-74252295D02*
X261113403Y-74557057D01*
X261113403Y-74557057D02*
X260999118Y-74557057D01*
X260999118Y-74557057D02*
X260922927Y-74595152D01*
X260922927Y-74595152D02*
X260884832Y-74633247D01*
X260884832Y-74633247D02*
X260846737Y-74709438D01*
X260846737Y-74709438D02*
X260846737Y-74899914D01*
X260846737Y-74899914D02*
X260884832Y-74976104D01*
X260884832Y-74976104D02*
X260922927Y-75014200D01*
X260922927Y-75014200D02*
X260999118Y-75052295D01*
X260999118Y-75052295D02*
X261227689Y-75052295D01*
X261227689Y-75052295D02*
X261303880Y-75014200D01*
X261303880Y-75014200D02*
X261341975Y-74976104D01*
X260084832Y-75052295D02*
X260541975Y-75052295D01*
X260313403Y-75052295D02*
X260313403Y-74252295D01*
X260313403Y-74252295D02*
X260389594Y-74366580D01*
X260389594Y-74366580D02*
X260465784Y-74442771D01*
X260465784Y-74442771D02*
X260541975Y-74480866D01*
X261875308Y-76792295D02*
X261799118Y-76792295D01*
X261799118Y-76792295D02*
X261722927Y-76830390D01*
X261722927Y-76830390D02*
X261684832Y-76868485D01*
X261684832Y-76868485D02*
X261646737Y-76944676D01*
X261646737Y-76944676D02*
X261608642Y-77097057D01*
X261608642Y-77097057D02*
X261608642Y-77287533D01*
X261608642Y-77287533D02*
X261646737Y-77439914D01*
X261646737Y-77439914D02*
X261684832Y-77516104D01*
X261684832Y-77516104D02*
X261722927Y-77554200D01*
X261722927Y-77554200D02*
X261799118Y-77592295D01*
X261799118Y-77592295D02*
X261875308Y-77592295D01*
X261875308Y-77592295D02*
X261951499Y-77554200D01*
X261951499Y-77554200D02*
X261989594Y-77516104D01*
X261989594Y-77516104D02*
X262027689Y-77439914D01*
X262027689Y-77439914D02*
X262065785Y-77287533D01*
X262065785Y-77287533D02*
X262065785Y-77097057D01*
X262065785Y-77097057D02*
X262027689Y-76944676D01*
X262027689Y-76944676D02*
X261989594Y-76868485D01*
X261989594Y-76868485D02*
X261951499Y-76830390D01*
X261951499Y-76830390D02*
X261875308Y-76792295D01*
X261303880Y-76868485D02*
X261265784Y-76830390D01*
X261265784Y-76830390D02*
X261189594Y-76792295D01*
X261189594Y-76792295D02*
X260999118Y-76792295D01*
X260999118Y-76792295D02*
X260922927Y-76830390D01*
X260922927Y-76830390D02*
X260884832Y-76868485D01*
X260884832Y-76868485D02*
X260846737Y-76944676D01*
X260846737Y-76944676D02*
X260846737Y-77020866D01*
X260846737Y-77020866D02*
X260884832Y-77135152D01*
X260884832Y-77135152D02*
X261341975Y-77592295D01*
X261341975Y-77592295D02*
X260846737Y-77592295D01*
X260465784Y-77592295D02*
X260313403Y-77592295D01*
X260313403Y-77592295D02*
X260237213Y-77554200D01*
X260237213Y-77554200D02*
X260199117Y-77516104D01*
X260199117Y-77516104D02*
X260122927Y-77401819D01*
X260122927Y-77401819D02*
X260084832Y-77249438D01*
X260084832Y-77249438D02*
X260084832Y-76944676D01*
X260084832Y-76944676D02*
X260122927Y-76868485D01*
X260122927Y-76868485D02*
X260161022Y-76830390D01*
X260161022Y-76830390D02*
X260237213Y-76792295D01*
X260237213Y-76792295D02*
X260389594Y-76792295D01*
X260389594Y-76792295D02*
X260465784Y-76830390D01*
X260465784Y-76830390D02*
X260503879Y-76868485D01*
X260503879Y-76868485D02*
X260541975Y-76944676D01*
X260541975Y-76944676D02*
X260541975Y-77135152D01*
X260541975Y-77135152D02*
X260503879Y-77211342D01*
X260503879Y-77211342D02*
X260465784Y-77249438D01*
X260465784Y-77249438D02*
X260389594Y-77287533D01*
X260389594Y-77287533D02*
X260237213Y-77287533D01*
X260237213Y-77287533D02*
X260161022Y-77249438D01*
X260161022Y-77249438D02*
X260122927Y-77211342D01*
X260122927Y-77211342D02*
X260084832Y-77135152D01*
X261608642Y-87752295D02*
X262065785Y-87752295D01*
X261837213Y-87752295D02*
X261837213Y-86952295D01*
X261837213Y-86952295D02*
X261913404Y-87066580D01*
X261913404Y-87066580D02*
X261989594Y-87142771D01*
X261989594Y-87142771D02*
X262065785Y-87180866D01*
X260846737Y-87752295D02*
X261303880Y-87752295D01*
X261075308Y-87752295D02*
X261075308Y-86952295D01*
X261075308Y-86952295D02*
X261151499Y-87066580D01*
X261151499Y-87066580D02*
X261227689Y-87142771D01*
X261227689Y-87142771D02*
X261303880Y-87180866D01*
X260084832Y-87752295D02*
X260541975Y-87752295D01*
X260313403Y-87752295D02*
X260313403Y-86952295D01*
X260313403Y-86952295D02*
X260389594Y-87066580D01*
X260389594Y-87066580D02*
X260465784Y-87142771D01*
X260465784Y-87142771D02*
X260541975Y-87180866D01*
X272949689Y-64092295D02*
X272873499Y-64092295D01*
X272873499Y-64092295D02*
X272797308Y-64130390D01*
X272797308Y-64130390D02*
X272759213Y-64168485D01*
X272759213Y-64168485D02*
X272721118Y-64244676D01*
X272721118Y-64244676D02*
X272683023Y-64397057D01*
X272683023Y-64397057D02*
X272683023Y-64587533D01*
X272683023Y-64587533D02*
X272721118Y-64739914D01*
X272721118Y-64739914D02*
X272759213Y-64816104D01*
X272759213Y-64816104D02*
X272797308Y-64854200D01*
X272797308Y-64854200D02*
X272873499Y-64892295D01*
X272873499Y-64892295D02*
X272949689Y-64892295D01*
X272949689Y-64892295D02*
X273025880Y-64854200D01*
X273025880Y-64854200D02*
X273063975Y-64816104D01*
X273063975Y-64816104D02*
X273102070Y-64739914D01*
X273102070Y-64739914D02*
X273140166Y-64587533D01*
X273140166Y-64587533D02*
X273140166Y-64397057D01*
X273140166Y-64397057D02*
X273102070Y-64244676D01*
X273102070Y-64244676D02*
X273063975Y-64168485D01*
X273063975Y-64168485D02*
X273025880Y-64130390D01*
X273025880Y-64130390D02*
X272949689Y-64092295D01*
X272187784Y-64092295D02*
X272111594Y-64092295D01*
X272111594Y-64092295D02*
X272035403Y-64130390D01*
X272035403Y-64130390D02*
X271997308Y-64168485D01*
X271997308Y-64168485D02*
X271959213Y-64244676D01*
X271959213Y-64244676D02*
X271921118Y-64397057D01*
X271921118Y-64397057D02*
X271921118Y-64587533D01*
X271921118Y-64587533D02*
X271959213Y-64739914D01*
X271959213Y-64739914D02*
X271997308Y-64816104D01*
X271997308Y-64816104D02*
X272035403Y-64854200D01*
X272035403Y-64854200D02*
X272111594Y-64892295D01*
X272111594Y-64892295D02*
X272187784Y-64892295D01*
X272187784Y-64892295D02*
X272263975Y-64854200D01*
X272263975Y-64854200D02*
X272302070Y-64816104D01*
X272302070Y-64816104D02*
X272340165Y-64739914D01*
X272340165Y-64739914D02*
X272378261Y-64587533D01*
X272378261Y-64587533D02*
X272378261Y-64397057D01*
X272378261Y-64397057D02*
X272340165Y-64244676D01*
X272340165Y-64244676D02*
X272302070Y-64168485D01*
X272302070Y-64168485D02*
X272263975Y-64130390D01*
X272263975Y-64130390D02*
X272187784Y-64092295D01*
X271235403Y-64092295D02*
X271387784Y-64092295D01*
X271387784Y-64092295D02*
X271463975Y-64130390D01*
X271463975Y-64130390D02*
X271502070Y-64168485D01*
X271502070Y-64168485D02*
X271578260Y-64282771D01*
X271578260Y-64282771D02*
X271616356Y-64435152D01*
X271616356Y-64435152D02*
X271616356Y-64739914D01*
X271616356Y-64739914D02*
X271578260Y-64816104D01*
X271578260Y-64816104D02*
X271540165Y-64854200D01*
X271540165Y-64854200D02*
X271463975Y-64892295D01*
X271463975Y-64892295D02*
X271311594Y-64892295D01*
X271311594Y-64892295D02*
X271235403Y-64854200D01*
X271235403Y-64854200D02*
X271197308Y-64816104D01*
X271197308Y-64816104D02*
X271159213Y-64739914D01*
X271159213Y-64739914D02*
X271159213Y-64549438D01*
X271159213Y-64549438D02*
X271197308Y-64473247D01*
X271197308Y-64473247D02*
X271235403Y-64435152D01*
X271235403Y-64435152D02*
X271311594Y-64397057D01*
X271311594Y-64397057D02*
X271463975Y-64397057D01*
X271463975Y-64397057D02*
X271540165Y-64435152D01*
X271540165Y-64435152D02*
X271578260Y-64473247D01*
X271578260Y-64473247D02*
X271616356Y-64549438D01*
X272949689Y-81872295D02*
X272873499Y-81872295D01*
X272873499Y-81872295D02*
X272797308Y-81910390D01*
X272797308Y-81910390D02*
X272759213Y-81948485D01*
X272759213Y-81948485D02*
X272721118Y-82024676D01*
X272721118Y-82024676D02*
X272683023Y-82177057D01*
X272683023Y-82177057D02*
X272683023Y-82367533D01*
X272683023Y-82367533D02*
X272721118Y-82519914D01*
X272721118Y-82519914D02*
X272759213Y-82596104D01*
X272759213Y-82596104D02*
X272797308Y-82634200D01*
X272797308Y-82634200D02*
X272873499Y-82672295D01*
X272873499Y-82672295D02*
X272949689Y-82672295D01*
X272949689Y-82672295D02*
X273025880Y-82634200D01*
X273025880Y-82634200D02*
X273063975Y-82596104D01*
X273063975Y-82596104D02*
X273102070Y-82519914D01*
X273102070Y-82519914D02*
X273140166Y-82367533D01*
X273140166Y-82367533D02*
X273140166Y-82177057D01*
X273140166Y-82177057D02*
X273102070Y-82024676D01*
X273102070Y-82024676D02*
X273063975Y-81948485D01*
X273063975Y-81948485D02*
X273025880Y-81910390D01*
X273025880Y-81910390D02*
X272949689Y-81872295D01*
X272378261Y-81948485D02*
X272340165Y-81910390D01*
X272340165Y-81910390D02*
X272263975Y-81872295D01*
X272263975Y-81872295D02*
X272073499Y-81872295D01*
X272073499Y-81872295D02*
X271997308Y-81910390D01*
X271997308Y-81910390D02*
X271959213Y-81948485D01*
X271959213Y-81948485D02*
X271921118Y-82024676D01*
X271921118Y-82024676D02*
X271921118Y-82100866D01*
X271921118Y-82100866D02*
X271959213Y-82215152D01*
X271959213Y-82215152D02*
X272416356Y-82672295D01*
X272416356Y-82672295D02*
X271921118Y-82672295D01*
X271235403Y-82138961D02*
X271235403Y-82672295D01*
X271425879Y-81834200D02*
X271616356Y-82405628D01*
X271616356Y-82405628D02*
X271121117Y-82405628D01*
X261608642Y-82672295D02*
X262065785Y-82672295D01*
X261837213Y-82672295D02*
X261837213Y-81872295D01*
X261837213Y-81872295D02*
X261913404Y-81986580D01*
X261913404Y-81986580D02*
X261989594Y-82062771D01*
X261989594Y-82062771D02*
X262065785Y-82100866D01*
X260846737Y-82672295D02*
X261303880Y-82672295D01*
X261075308Y-82672295D02*
X261075308Y-81872295D01*
X261075308Y-81872295D02*
X261151499Y-81986580D01*
X261151499Y-81986580D02*
X261227689Y-82062771D01*
X261227689Y-82062771D02*
X261303880Y-82100866D01*
X260122927Y-81872295D02*
X260503879Y-81872295D01*
X260503879Y-81872295D02*
X260541975Y-82253247D01*
X260541975Y-82253247D02*
X260503879Y-82215152D01*
X260503879Y-82215152D02*
X260427689Y-82177057D01*
X260427689Y-82177057D02*
X260237213Y-82177057D01*
X260237213Y-82177057D02*
X260161022Y-82215152D01*
X260161022Y-82215152D02*
X260122927Y-82253247D01*
X260122927Y-82253247D02*
X260084832Y-82329438D01*
X260084832Y-82329438D02*
X260084832Y-82519914D01*
X260084832Y-82519914D02*
X260122927Y-82596104D01*
X260122927Y-82596104D02*
X260161022Y-82634200D01*
X260161022Y-82634200D02*
X260237213Y-82672295D01*
X260237213Y-82672295D02*
X260427689Y-82672295D01*
X260427689Y-82672295D02*
X260503879Y-82634200D01*
X260503879Y-82634200D02*
X260541975Y-82596104D01*
X261767356Y-66670390D02*
X261843546Y-66632295D01*
X261843546Y-66632295D02*
X261957832Y-66632295D01*
X261957832Y-66632295D02*
X262072118Y-66670390D01*
X262072118Y-66670390D02*
X262148308Y-66746580D01*
X262148308Y-66746580D02*
X262186403Y-66822771D01*
X262186403Y-66822771D02*
X262224499Y-66975152D01*
X262224499Y-66975152D02*
X262224499Y-67089438D01*
X262224499Y-67089438D02*
X262186403Y-67241819D01*
X262186403Y-67241819D02*
X262148308Y-67318009D01*
X262148308Y-67318009D02*
X262072118Y-67394200D01*
X262072118Y-67394200D02*
X261957832Y-67432295D01*
X261957832Y-67432295D02*
X261881641Y-67432295D01*
X261881641Y-67432295D02*
X261767356Y-67394200D01*
X261767356Y-67394200D02*
X261729260Y-67356104D01*
X261729260Y-67356104D02*
X261729260Y-67089438D01*
X261729260Y-67089438D02*
X261881641Y-67089438D01*
X261386403Y-67432295D02*
X261386403Y-66632295D01*
X261386403Y-66632295D02*
X260929260Y-67432295D01*
X260929260Y-67432295D02*
X260929260Y-66632295D01*
X260548308Y-67432295D02*
X260548308Y-66632295D01*
X260548308Y-66632295D02*
X260357832Y-66632295D01*
X260357832Y-66632295D02*
X260243546Y-66670390D01*
X260243546Y-66670390D02*
X260167356Y-66746580D01*
X260167356Y-66746580D02*
X260129261Y-66822771D01*
X260129261Y-66822771D02*
X260091165Y-66975152D01*
X260091165Y-66975152D02*
X260091165Y-67089438D01*
X260091165Y-67089438D02*
X260129261Y-67241819D01*
X260129261Y-67241819D02*
X260167356Y-67318009D01*
X260167356Y-67318009D02*
X260243546Y-67394200D01*
X260243546Y-67394200D02*
X260357832Y-67432295D01*
X260357832Y-67432295D02*
X260548308Y-67432295D01*
X272949689Y-76862295D02*
X272873499Y-76862295D01*
X272873499Y-76862295D02*
X272797308Y-76900390D01*
X272797308Y-76900390D02*
X272759213Y-76938485D01*
X272759213Y-76938485D02*
X272721118Y-77014676D01*
X272721118Y-77014676D02*
X272683023Y-77167057D01*
X272683023Y-77167057D02*
X272683023Y-77357533D01*
X272683023Y-77357533D02*
X272721118Y-77509914D01*
X272721118Y-77509914D02*
X272759213Y-77586104D01*
X272759213Y-77586104D02*
X272797308Y-77624200D01*
X272797308Y-77624200D02*
X272873499Y-77662295D01*
X272873499Y-77662295D02*
X272949689Y-77662295D01*
X272949689Y-77662295D02*
X273025880Y-77624200D01*
X273025880Y-77624200D02*
X273063975Y-77586104D01*
X273063975Y-77586104D02*
X273102070Y-77509914D01*
X273102070Y-77509914D02*
X273140166Y-77357533D01*
X273140166Y-77357533D02*
X273140166Y-77167057D01*
X273140166Y-77167057D02*
X273102070Y-77014676D01*
X273102070Y-77014676D02*
X273063975Y-76938485D01*
X273063975Y-76938485D02*
X273025880Y-76900390D01*
X273025880Y-76900390D02*
X272949689Y-76862295D01*
X272378261Y-76938485D02*
X272340165Y-76900390D01*
X272340165Y-76900390D02*
X272263975Y-76862295D01*
X272263975Y-76862295D02*
X272073499Y-76862295D01*
X272073499Y-76862295D02*
X271997308Y-76900390D01*
X271997308Y-76900390D02*
X271959213Y-76938485D01*
X271959213Y-76938485D02*
X271921118Y-77014676D01*
X271921118Y-77014676D02*
X271921118Y-77090866D01*
X271921118Y-77090866D02*
X271959213Y-77205152D01*
X271959213Y-77205152D02*
X272416356Y-77662295D01*
X272416356Y-77662295D02*
X271921118Y-77662295D01*
X271425879Y-76862295D02*
X271349689Y-76862295D01*
X271349689Y-76862295D02*
X271273498Y-76900390D01*
X271273498Y-76900390D02*
X271235403Y-76938485D01*
X271235403Y-76938485D02*
X271197308Y-77014676D01*
X271197308Y-77014676D02*
X271159213Y-77167057D01*
X271159213Y-77167057D02*
X271159213Y-77357533D01*
X271159213Y-77357533D02*
X271197308Y-77509914D01*
X271197308Y-77509914D02*
X271235403Y-77586104D01*
X271235403Y-77586104D02*
X271273498Y-77624200D01*
X271273498Y-77624200D02*
X271349689Y-77662295D01*
X271349689Y-77662295D02*
X271425879Y-77662295D01*
X271425879Y-77662295D02*
X271502070Y-77624200D01*
X271502070Y-77624200D02*
X271540165Y-77586104D01*
X271540165Y-77586104D02*
X271578260Y-77509914D01*
X271578260Y-77509914D02*
X271616356Y-77357533D01*
X271616356Y-77357533D02*
X271616356Y-77167057D01*
X271616356Y-77167057D02*
X271578260Y-77014676D01*
X271578260Y-77014676D02*
X271540165Y-76938485D01*
X271540165Y-76938485D02*
X271502070Y-76900390D01*
X271502070Y-76900390D02*
X271425879Y-76862295D01*
X272683023Y-71750390D02*
X272759213Y-71712295D01*
X272759213Y-71712295D02*
X272873499Y-71712295D01*
X272873499Y-71712295D02*
X272987785Y-71750390D01*
X272987785Y-71750390D02*
X273063975Y-71826580D01*
X273063975Y-71826580D02*
X273102070Y-71902771D01*
X273102070Y-71902771D02*
X273140166Y-72055152D01*
X273140166Y-72055152D02*
X273140166Y-72169438D01*
X273140166Y-72169438D02*
X273102070Y-72321819D01*
X273102070Y-72321819D02*
X273063975Y-72398009D01*
X273063975Y-72398009D02*
X272987785Y-72474200D01*
X272987785Y-72474200D02*
X272873499Y-72512295D01*
X272873499Y-72512295D02*
X272797308Y-72512295D01*
X272797308Y-72512295D02*
X272683023Y-72474200D01*
X272683023Y-72474200D02*
X272644927Y-72436104D01*
X272644927Y-72436104D02*
X272644927Y-72169438D01*
X272644927Y-72169438D02*
X272797308Y-72169438D01*
X272302070Y-72512295D02*
X272302070Y-71712295D01*
X272302070Y-71712295D02*
X271844927Y-72512295D01*
X271844927Y-72512295D02*
X271844927Y-71712295D01*
X271463975Y-72512295D02*
X271463975Y-71712295D01*
X271463975Y-71712295D02*
X271273499Y-71712295D01*
X271273499Y-71712295D02*
X271159213Y-71750390D01*
X271159213Y-71750390D02*
X271083023Y-71826580D01*
X271083023Y-71826580D02*
X271044928Y-71902771D01*
X271044928Y-71902771D02*
X271006832Y-72055152D01*
X271006832Y-72055152D02*
X271006832Y-72169438D01*
X271006832Y-72169438D02*
X271044928Y-72321819D01*
X271044928Y-72321819D02*
X271083023Y-72398009D01*
X271083023Y-72398009D02*
X271159213Y-72474200D01*
X271159213Y-72474200D02*
X271273499Y-72512295D01*
X271273499Y-72512295D02*
X271463975Y-72512295D01*
X272949689Y-66562295D02*
X272873499Y-66562295D01*
X272873499Y-66562295D02*
X272797308Y-66600390D01*
X272797308Y-66600390D02*
X272759213Y-66638485D01*
X272759213Y-66638485D02*
X272721118Y-66714676D01*
X272721118Y-66714676D02*
X272683023Y-66867057D01*
X272683023Y-66867057D02*
X272683023Y-67057533D01*
X272683023Y-67057533D02*
X272721118Y-67209914D01*
X272721118Y-67209914D02*
X272759213Y-67286104D01*
X272759213Y-67286104D02*
X272797308Y-67324200D01*
X272797308Y-67324200D02*
X272873499Y-67362295D01*
X272873499Y-67362295D02*
X272949689Y-67362295D01*
X272949689Y-67362295D02*
X273025880Y-67324200D01*
X273025880Y-67324200D02*
X273063975Y-67286104D01*
X273063975Y-67286104D02*
X273102070Y-67209914D01*
X273102070Y-67209914D02*
X273140166Y-67057533D01*
X273140166Y-67057533D02*
X273140166Y-66867057D01*
X273140166Y-66867057D02*
X273102070Y-66714676D01*
X273102070Y-66714676D02*
X273063975Y-66638485D01*
X273063975Y-66638485D02*
X273025880Y-66600390D01*
X273025880Y-66600390D02*
X272949689Y-66562295D01*
X272187784Y-66562295D02*
X272111594Y-66562295D01*
X272111594Y-66562295D02*
X272035403Y-66600390D01*
X272035403Y-66600390D02*
X271997308Y-66638485D01*
X271997308Y-66638485D02*
X271959213Y-66714676D01*
X271959213Y-66714676D02*
X271921118Y-66867057D01*
X271921118Y-66867057D02*
X271921118Y-67057533D01*
X271921118Y-67057533D02*
X271959213Y-67209914D01*
X271959213Y-67209914D02*
X271997308Y-67286104D01*
X271997308Y-67286104D02*
X272035403Y-67324200D01*
X272035403Y-67324200D02*
X272111594Y-67362295D01*
X272111594Y-67362295D02*
X272187784Y-67362295D01*
X272187784Y-67362295D02*
X272263975Y-67324200D01*
X272263975Y-67324200D02*
X272302070Y-67286104D01*
X272302070Y-67286104D02*
X272340165Y-67209914D01*
X272340165Y-67209914D02*
X272378261Y-67057533D01*
X272378261Y-67057533D02*
X272378261Y-66867057D01*
X272378261Y-66867057D02*
X272340165Y-66714676D01*
X272340165Y-66714676D02*
X272302070Y-66638485D01*
X272302070Y-66638485D02*
X272263975Y-66600390D01*
X272263975Y-66600390D02*
X272187784Y-66562295D01*
X271463975Y-66905152D02*
X271540165Y-66867057D01*
X271540165Y-66867057D02*
X271578260Y-66828961D01*
X271578260Y-66828961D02*
X271616356Y-66752771D01*
X271616356Y-66752771D02*
X271616356Y-66714676D01*
X271616356Y-66714676D02*
X271578260Y-66638485D01*
X271578260Y-66638485D02*
X271540165Y-66600390D01*
X271540165Y-66600390D02*
X271463975Y-66562295D01*
X271463975Y-66562295D02*
X271311594Y-66562295D01*
X271311594Y-66562295D02*
X271235403Y-66600390D01*
X271235403Y-66600390D02*
X271197308Y-66638485D01*
X271197308Y-66638485D02*
X271159213Y-66714676D01*
X271159213Y-66714676D02*
X271159213Y-66752771D01*
X271159213Y-66752771D02*
X271197308Y-66828961D01*
X271197308Y-66828961D02*
X271235403Y-66867057D01*
X271235403Y-66867057D02*
X271311594Y-66905152D01*
X271311594Y-66905152D02*
X271463975Y-66905152D01*
X271463975Y-66905152D02*
X271540165Y-66943247D01*
X271540165Y-66943247D02*
X271578260Y-66981342D01*
X271578260Y-66981342D02*
X271616356Y-67057533D01*
X271616356Y-67057533D02*
X271616356Y-67209914D01*
X271616356Y-67209914D02*
X271578260Y-67286104D01*
X271578260Y-67286104D02*
X271540165Y-67324200D01*
X271540165Y-67324200D02*
X271463975Y-67362295D01*
X271463975Y-67362295D02*
X271311594Y-67362295D01*
X271311594Y-67362295D02*
X271235403Y-67324200D01*
X271235403Y-67324200D02*
X271197308Y-67286104D01*
X271197308Y-67286104D02*
X271159213Y-67209914D01*
X271159213Y-67209914D02*
X271159213Y-67057533D01*
X271159213Y-67057533D02*
X271197308Y-66981342D01*
X271197308Y-66981342D02*
X271235403Y-66943247D01*
X271235403Y-66943247D02*
X271311594Y-66905152D01*
X261462594Y-69972295D02*
X261729261Y-69591342D01*
X261919737Y-69972295D02*
X261919737Y-69172295D01*
X261919737Y-69172295D02*
X261614975Y-69172295D01*
X261614975Y-69172295D02*
X261538785Y-69210390D01*
X261538785Y-69210390D02*
X261500690Y-69248485D01*
X261500690Y-69248485D02*
X261462594Y-69324676D01*
X261462594Y-69324676D02*
X261462594Y-69438961D01*
X261462594Y-69438961D02*
X261500690Y-69515152D01*
X261500690Y-69515152D02*
X261538785Y-69553247D01*
X261538785Y-69553247D02*
X261614975Y-69591342D01*
X261614975Y-69591342D02*
X261919737Y-69591342D01*
X261157833Y-69934200D02*
X261043547Y-69972295D01*
X261043547Y-69972295D02*
X260853071Y-69972295D01*
X260853071Y-69972295D02*
X260776880Y-69934200D01*
X260776880Y-69934200D02*
X260738785Y-69896104D01*
X260738785Y-69896104D02*
X260700690Y-69819914D01*
X260700690Y-69819914D02*
X260700690Y-69743723D01*
X260700690Y-69743723D02*
X260738785Y-69667533D01*
X260738785Y-69667533D02*
X260776880Y-69629438D01*
X260776880Y-69629438D02*
X260853071Y-69591342D01*
X260853071Y-69591342D02*
X261005452Y-69553247D01*
X261005452Y-69553247D02*
X261081642Y-69515152D01*
X261081642Y-69515152D02*
X261119737Y-69477057D01*
X261119737Y-69477057D02*
X261157833Y-69400866D01*
X261157833Y-69400866D02*
X261157833Y-69324676D01*
X261157833Y-69324676D02*
X261119737Y-69248485D01*
X261119737Y-69248485D02*
X261081642Y-69210390D01*
X261081642Y-69210390D02*
X261005452Y-69172295D01*
X261005452Y-69172295D02*
X260814975Y-69172295D01*
X260814975Y-69172295D02*
X260700690Y-69210390D01*
X260472118Y-69172295D02*
X260014975Y-69172295D01*
X260243547Y-69972295D02*
X260243547Y-69172295D01*
D11*
X271394214Y-90178328D02*
X271394214Y-91178328D01*
X271394214Y-90321185D02*
X271322785Y-90249757D01*
X271322785Y-90249757D02*
X271179928Y-90178328D01*
X271179928Y-90178328D02*
X270965642Y-90178328D01*
X270965642Y-90178328D02*
X270822785Y-90249757D01*
X270822785Y-90249757D02*
X270751357Y-90392614D01*
X270751357Y-90392614D02*
X270751357Y-91178328D01*
X270037071Y-91178328D02*
X270037071Y-90178328D01*
X270037071Y-89678328D02*
X270108499Y-89749757D01*
X270108499Y-89749757D02*
X270037071Y-89821185D01*
X270037071Y-89821185D02*
X269965642Y-89749757D01*
X269965642Y-89749757D02*
X270037071Y-89678328D01*
X270037071Y-89678328D02*
X270037071Y-89821185D01*
X268679928Y-91106900D02*
X268822785Y-91178328D01*
X268822785Y-91178328D02*
X269108499Y-91178328D01*
X269108499Y-91178328D02*
X269251356Y-91106900D01*
X269251356Y-91106900D02*
X269322785Y-91035471D01*
X269322785Y-91035471D02*
X269394213Y-90892614D01*
X269394213Y-90892614D02*
X269394213Y-90464042D01*
X269394213Y-90464042D02*
X269322785Y-90321185D01*
X269322785Y-90321185D02*
X269251356Y-90249757D01*
X269251356Y-90249757D02*
X269108499Y-90178328D01*
X269108499Y-90178328D02*
X268822785Y-90178328D01*
X268822785Y-90178328D02*
X268679928Y-90249757D01*
X267465642Y-91106900D02*
X267608499Y-91178328D01*
X267608499Y-91178328D02*
X267894214Y-91178328D01*
X267894214Y-91178328D02*
X268037071Y-91106900D01*
X268037071Y-91106900D02*
X268108499Y-90964042D01*
X268108499Y-90964042D02*
X268108499Y-90392614D01*
X268108499Y-90392614D02*
X268037071Y-90249757D01*
X268037071Y-90249757D02*
X267894214Y-90178328D01*
X267894214Y-90178328D02*
X267608499Y-90178328D01*
X267608499Y-90178328D02*
X267465642Y-90249757D01*
X267465642Y-90249757D02*
X267394214Y-90392614D01*
X267394214Y-90392614D02*
X267394214Y-90535471D01*
X267394214Y-90535471D02*
X268108499Y-90678328D01*
X266751357Y-91035471D02*
X266679928Y-91106900D01*
X266679928Y-91106900D02*
X266751357Y-91178328D01*
X266751357Y-91178328D02*
X266822785Y-91106900D01*
X266822785Y-91106900D02*
X266751357Y-91035471D01*
X266751357Y-91035471D02*
X266751357Y-91178328D01*
X266751357Y-90606900D02*
X266822785Y-89749757D01*
X266822785Y-89749757D02*
X266751357Y-89678328D01*
X266751357Y-89678328D02*
X266679928Y-89749757D01*
X266679928Y-89749757D02*
X266751357Y-90606900D01*
X266751357Y-90606900D02*
X266751357Y-89678328D01*
X266037071Y-90178328D02*
X266037071Y-91178328D01*
X266037071Y-90321185D02*
X265965642Y-90249757D01*
X265965642Y-90249757D02*
X265822785Y-90178328D01*
X265822785Y-90178328D02*
X265608499Y-90178328D01*
X265608499Y-90178328D02*
X265465642Y-90249757D01*
X265465642Y-90249757D02*
X265394214Y-90392614D01*
X265394214Y-90392614D02*
X265394214Y-91178328D01*
X264037071Y-91178328D02*
X264037071Y-90392614D01*
X264037071Y-90392614D02*
X264108499Y-90249757D01*
X264108499Y-90249757D02*
X264251356Y-90178328D01*
X264251356Y-90178328D02*
X264537071Y-90178328D01*
X264537071Y-90178328D02*
X264679928Y-90249757D01*
X264037071Y-91106900D02*
X264179928Y-91178328D01*
X264179928Y-91178328D02*
X264537071Y-91178328D01*
X264537071Y-91178328D02*
X264679928Y-91106900D01*
X264679928Y-91106900D02*
X264751356Y-90964042D01*
X264751356Y-90964042D02*
X264751356Y-90821185D01*
X264751356Y-90821185D02*
X264679928Y-90678328D01*
X264679928Y-90678328D02*
X264537071Y-90606900D01*
X264537071Y-90606900D02*
X264179928Y-90606900D01*
X264179928Y-90606900D02*
X264037071Y-90535471D01*
X263322785Y-90178328D02*
X263322785Y-91178328D01*
X263322785Y-90321185D02*
X263251356Y-90249757D01*
X263251356Y-90249757D02*
X263108499Y-90178328D01*
X263108499Y-90178328D02*
X262894213Y-90178328D01*
X262894213Y-90178328D02*
X262751356Y-90249757D01*
X262751356Y-90249757D02*
X262679928Y-90392614D01*
X262679928Y-90392614D02*
X262679928Y-91178328D01*
X261751356Y-91178328D02*
X261894213Y-91106900D01*
X261894213Y-91106900D02*
X261965642Y-91035471D01*
X261965642Y-91035471D02*
X262037070Y-90892614D01*
X262037070Y-90892614D02*
X262037070Y-90464042D01*
X262037070Y-90464042D02*
X261965642Y-90321185D01*
X261965642Y-90321185D02*
X261894213Y-90249757D01*
X261894213Y-90249757D02*
X261751356Y-90178328D01*
X261751356Y-90178328D02*
X261537070Y-90178328D01*
X261537070Y-90178328D02*
X261394213Y-90249757D01*
X261394213Y-90249757D02*
X261322785Y-90321185D01*
X261322785Y-90321185D02*
X261251356Y-90464042D01*
X261251356Y-90464042D02*
X261251356Y-90892614D01*
X261251356Y-90892614D02*
X261322785Y-91035471D01*
X261322785Y-91035471D02*
X261394213Y-91106900D01*
X261394213Y-91106900D02*
X261537070Y-91178328D01*
X261537070Y-91178328D02*
X261751356Y-91178328D01*
D10*
X272683023Y-90292295D02*
X273140166Y-90292295D01*
X272911594Y-90292295D02*
X272911594Y-89492295D01*
X272911594Y-89492295D02*
X272987785Y-89606580D01*
X272987785Y-89606580D02*
X273063975Y-89682771D01*
X273063975Y-89682771D02*
X273140166Y-89720866D01*
X272187784Y-89492295D02*
X272111594Y-89492295D01*
X272111594Y-89492295D02*
X272035403Y-89530390D01*
X272035403Y-89530390D02*
X271997308Y-89568485D01*
X271997308Y-89568485D02*
X271959213Y-89644676D01*
X271959213Y-89644676D02*
X271921118Y-89797057D01*
X271921118Y-89797057D02*
X271921118Y-89987533D01*
X271921118Y-89987533D02*
X271959213Y-90139914D01*
X271959213Y-90139914D02*
X271997308Y-90216104D01*
X271997308Y-90216104D02*
X272035403Y-90254200D01*
X272035403Y-90254200D02*
X272111594Y-90292295D01*
X272111594Y-90292295D02*
X272187784Y-90292295D01*
X272187784Y-90292295D02*
X272263975Y-90254200D01*
X272263975Y-90254200D02*
X272302070Y-90216104D01*
X272302070Y-90216104D02*
X272340165Y-90139914D01*
X272340165Y-90139914D02*
X272378261Y-89987533D01*
X272378261Y-89987533D02*
X272378261Y-89797057D01*
X272378261Y-89797057D02*
X272340165Y-89644676D01*
X272340165Y-89644676D02*
X272302070Y-89568485D01*
X272302070Y-89568485D02*
X272263975Y-89530390D01*
X272263975Y-89530390D02*
X272187784Y-89492295D01*
X271235403Y-89758961D02*
X271235403Y-90292295D01*
X271425879Y-89454200D02*
X271616356Y-90025628D01*
X271616356Y-90025628D02*
X271121117Y-90025628D01*
X272949689Y-74262295D02*
X272873499Y-74262295D01*
X272873499Y-74262295D02*
X272797308Y-74300390D01*
X272797308Y-74300390D02*
X272759213Y-74338485D01*
X272759213Y-74338485D02*
X272721118Y-74414676D01*
X272721118Y-74414676D02*
X272683023Y-74567057D01*
X272683023Y-74567057D02*
X272683023Y-74757533D01*
X272683023Y-74757533D02*
X272721118Y-74909914D01*
X272721118Y-74909914D02*
X272759213Y-74986104D01*
X272759213Y-74986104D02*
X272797308Y-75024200D01*
X272797308Y-75024200D02*
X272873499Y-75062295D01*
X272873499Y-75062295D02*
X272949689Y-75062295D01*
X272949689Y-75062295D02*
X273025880Y-75024200D01*
X273025880Y-75024200D02*
X273063975Y-74986104D01*
X273063975Y-74986104D02*
X273102070Y-74909914D01*
X273102070Y-74909914D02*
X273140166Y-74757533D01*
X273140166Y-74757533D02*
X273140166Y-74567057D01*
X273140166Y-74567057D02*
X273102070Y-74414676D01*
X273102070Y-74414676D02*
X273063975Y-74338485D01*
X273063975Y-74338485D02*
X273025880Y-74300390D01*
X273025880Y-74300390D02*
X272949689Y-74262295D01*
X271921118Y-75062295D02*
X272378261Y-75062295D01*
X272149689Y-75062295D02*
X272149689Y-74262295D01*
X272149689Y-74262295D02*
X272225880Y-74376580D01*
X272225880Y-74376580D02*
X272302070Y-74452771D01*
X272302070Y-74452771D02*
X272378261Y-74490866D01*
X271654451Y-74262295D02*
X271121117Y-74262295D01*
X271121117Y-74262295D02*
X271463975Y-75062295D01*
X261875308Y-89492295D02*
X261799118Y-89492295D01*
X261799118Y-89492295D02*
X261722927Y-89530390D01*
X261722927Y-89530390D02*
X261684832Y-89568485D01*
X261684832Y-89568485D02*
X261646737Y-89644676D01*
X261646737Y-89644676D02*
X261608642Y-89797057D01*
X261608642Y-89797057D02*
X261608642Y-89987533D01*
X261608642Y-89987533D02*
X261646737Y-90139914D01*
X261646737Y-90139914D02*
X261684832Y-90216104D01*
X261684832Y-90216104D02*
X261722927Y-90254200D01*
X261722927Y-90254200D02*
X261799118Y-90292295D01*
X261799118Y-90292295D02*
X261875308Y-90292295D01*
X261875308Y-90292295D02*
X261951499Y-90254200D01*
X261951499Y-90254200D02*
X261989594Y-90216104D01*
X261989594Y-90216104D02*
X262027689Y-90139914D01*
X262027689Y-90139914D02*
X262065785Y-89987533D01*
X262065785Y-89987533D02*
X262065785Y-89797057D01*
X262065785Y-89797057D02*
X262027689Y-89644676D01*
X262027689Y-89644676D02*
X261989594Y-89568485D01*
X261989594Y-89568485D02*
X261951499Y-89530390D01*
X261951499Y-89530390D02*
X261875308Y-89492295D01*
X260846737Y-90292295D02*
X261303880Y-90292295D01*
X261075308Y-90292295D02*
X261075308Y-89492295D01*
X261075308Y-89492295D02*
X261151499Y-89606580D01*
X261151499Y-89606580D02*
X261227689Y-89682771D01*
X261227689Y-89682771D02*
X261303880Y-89720866D01*
X260351498Y-89492295D02*
X260275308Y-89492295D01*
X260275308Y-89492295D02*
X260199117Y-89530390D01*
X260199117Y-89530390D02*
X260161022Y-89568485D01*
X260161022Y-89568485D02*
X260122927Y-89644676D01*
X260122927Y-89644676D02*
X260084832Y-89797057D01*
X260084832Y-89797057D02*
X260084832Y-89987533D01*
X260084832Y-89987533D02*
X260122927Y-90139914D01*
X260122927Y-90139914D02*
X260161022Y-90216104D01*
X260161022Y-90216104D02*
X260199117Y-90254200D01*
X260199117Y-90254200D02*
X260275308Y-90292295D01*
X260275308Y-90292295D02*
X260351498Y-90292295D01*
X260351498Y-90292295D02*
X260427689Y-90254200D01*
X260427689Y-90254200D02*
X260465784Y-90216104D01*
X260465784Y-90216104D02*
X260503879Y-90139914D01*
X260503879Y-90139914D02*
X260541975Y-89987533D01*
X260541975Y-89987533D02*
X260541975Y-89797057D01*
X260541975Y-89797057D02*
X260503879Y-89644676D01*
X260503879Y-89644676D02*
X260465784Y-89568485D01*
X260465784Y-89568485D02*
X260427689Y-89530390D01*
X260427689Y-89530390D02*
X260351498Y-89492295D01*
X261608642Y-85212295D02*
X262065785Y-85212295D01*
X261837213Y-85212295D02*
X261837213Y-84412295D01*
X261837213Y-84412295D02*
X261913404Y-84526580D01*
X261913404Y-84526580D02*
X261989594Y-84602771D01*
X261989594Y-84602771D02*
X262065785Y-84640866D01*
X260846737Y-85212295D02*
X261303880Y-85212295D01*
X261075308Y-85212295D02*
X261075308Y-84412295D01*
X261075308Y-84412295D02*
X261151499Y-84526580D01*
X261151499Y-84526580D02*
X261227689Y-84602771D01*
X261227689Y-84602771D02*
X261303880Y-84640866D01*
X260580070Y-84412295D02*
X260084832Y-84412295D01*
X260084832Y-84412295D02*
X260351498Y-84717057D01*
X260351498Y-84717057D02*
X260237213Y-84717057D01*
X260237213Y-84717057D02*
X260161022Y-84755152D01*
X260161022Y-84755152D02*
X260122927Y-84793247D01*
X260122927Y-84793247D02*
X260084832Y-84869438D01*
X260084832Y-84869438D02*
X260084832Y-85059914D01*
X260084832Y-85059914D02*
X260122927Y-85136104D01*
X260122927Y-85136104D02*
X260161022Y-85174200D01*
X260161022Y-85174200D02*
X260237213Y-85212295D01*
X260237213Y-85212295D02*
X260465784Y-85212295D01*
X260465784Y-85212295D02*
X260541975Y-85174200D01*
X260541975Y-85174200D02*
X260580070Y-85136104D01*
X272949689Y-79362295D02*
X272873499Y-79362295D01*
X272873499Y-79362295D02*
X272797308Y-79400390D01*
X272797308Y-79400390D02*
X272759213Y-79438485D01*
X272759213Y-79438485D02*
X272721118Y-79514676D01*
X272721118Y-79514676D02*
X272683023Y-79667057D01*
X272683023Y-79667057D02*
X272683023Y-79857533D01*
X272683023Y-79857533D02*
X272721118Y-80009914D01*
X272721118Y-80009914D02*
X272759213Y-80086104D01*
X272759213Y-80086104D02*
X272797308Y-80124200D01*
X272797308Y-80124200D02*
X272873499Y-80162295D01*
X272873499Y-80162295D02*
X272949689Y-80162295D01*
X272949689Y-80162295D02*
X273025880Y-80124200D01*
X273025880Y-80124200D02*
X273063975Y-80086104D01*
X273063975Y-80086104D02*
X273102070Y-80009914D01*
X273102070Y-80009914D02*
X273140166Y-79857533D01*
X273140166Y-79857533D02*
X273140166Y-79667057D01*
X273140166Y-79667057D02*
X273102070Y-79514676D01*
X273102070Y-79514676D02*
X273063975Y-79438485D01*
X273063975Y-79438485D02*
X273025880Y-79400390D01*
X273025880Y-79400390D02*
X272949689Y-79362295D01*
X272378261Y-79438485D02*
X272340165Y-79400390D01*
X272340165Y-79400390D02*
X272263975Y-79362295D01*
X272263975Y-79362295D02*
X272073499Y-79362295D01*
X272073499Y-79362295D02*
X271997308Y-79400390D01*
X271997308Y-79400390D02*
X271959213Y-79438485D01*
X271959213Y-79438485D02*
X271921118Y-79514676D01*
X271921118Y-79514676D02*
X271921118Y-79590866D01*
X271921118Y-79590866D02*
X271959213Y-79705152D01*
X271959213Y-79705152D02*
X272416356Y-80162295D01*
X272416356Y-80162295D02*
X271921118Y-80162295D01*
X271616356Y-79438485D02*
X271578260Y-79400390D01*
X271578260Y-79400390D02*
X271502070Y-79362295D01*
X271502070Y-79362295D02*
X271311594Y-79362295D01*
X271311594Y-79362295D02*
X271235403Y-79400390D01*
X271235403Y-79400390D02*
X271197308Y-79438485D01*
X271197308Y-79438485D02*
X271159213Y-79514676D01*
X271159213Y-79514676D02*
X271159213Y-79590866D01*
X271159213Y-79590866D02*
X271197308Y-79705152D01*
X271197308Y-79705152D02*
X271654451Y-80162295D01*
X271654451Y-80162295D02*
X271159213Y-80162295D01*
X271204819Y-102466666D02*
X271919104Y-102466666D01*
X271919104Y-102466666D02*
X272061961Y-102419047D01*
X272061961Y-102419047D02*
X272157200Y-102323809D01*
X272157200Y-102323809D02*
X272204819Y-102180952D01*
X272204819Y-102180952D02*
X272204819Y-102085714D01*
X271300057Y-102895238D02*
X271252438Y-102942857D01*
X271252438Y-102942857D02*
X271204819Y-103038095D01*
X271204819Y-103038095D02*
X271204819Y-103276190D01*
X271204819Y-103276190D02*
X271252438Y-103371428D01*
X271252438Y-103371428D02*
X271300057Y-103419047D01*
X271300057Y-103419047D02*
X271395295Y-103466666D01*
X271395295Y-103466666D02*
X271490533Y-103466666D01*
X271490533Y-103466666D02*
X271633390Y-103419047D01*
X271633390Y-103419047D02*
X272204819Y-102847619D01*
X272204819Y-102847619D02*
X272204819Y-103466666D01*
%TO.C,D6*%
X117460000Y-74738000D02*
X117460000Y-76262000D01*
X117460000Y-76262000D02*
X122540000Y-76262000D01*
X117587000Y-74738000D02*
X117587000Y-76262000D01*
X117714000Y-76262000D02*
X117714000Y-74738000D01*
X117841000Y-74738000D02*
X117841000Y-76262000D01*
X117968000Y-76262000D02*
X117968000Y-74738000D01*
X118095000Y-74738000D02*
X118095000Y-76262000D01*
X118222000Y-74738000D02*
X118222000Y-76262000D01*
X122540000Y-74738000D02*
X117460000Y-74738000D01*
X122540000Y-76262000D02*
X122540000Y-74738000D01*
%TO.C,D39*%
X59960000Y-131738000D02*
X59960000Y-133262000D01*
X59960000Y-133262000D02*
X65040000Y-133262000D01*
X60087000Y-131738000D02*
X60087000Y-133262000D01*
X60214000Y-133262000D02*
X60214000Y-131738000D01*
X60341000Y-131738000D02*
X60341000Y-133262000D01*
X60468000Y-133262000D02*
X60468000Y-131738000D01*
X60595000Y-131738000D02*
X60595000Y-133262000D01*
X60722000Y-131738000D02*
X60722000Y-133262000D01*
X65040000Y-131738000D02*
X59960000Y-131738000D01*
X65040000Y-133262000D02*
X65040000Y-131738000D01*
%TO.C,D9*%
X174460000Y-74738000D02*
X174460000Y-76262000D01*
X174460000Y-76262000D02*
X179540000Y-76262000D01*
X174587000Y-74738000D02*
X174587000Y-76262000D01*
X174714000Y-76262000D02*
X174714000Y-74738000D01*
X174841000Y-74738000D02*
X174841000Y-76262000D01*
X174968000Y-76262000D02*
X174968000Y-74738000D01*
X175095000Y-74738000D02*
X175095000Y-76262000D01*
X175222000Y-74738000D02*
X175222000Y-76262000D01*
X179540000Y-74738000D02*
X174460000Y-74738000D01*
X179540000Y-76262000D02*
X179540000Y-74738000D01*
%TO.C,D35*%
X221960000Y-112738000D02*
X221960000Y-114262000D01*
X221960000Y-114262000D02*
X227040000Y-114262000D01*
X222087000Y-112738000D02*
X222087000Y-114262000D01*
X222214000Y-114262000D02*
X222214000Y-112738000D01*
X222341000Y-112738000D02*
X222341000Y-114262000D01*
X222468000Y-114262000D02*
X222468000Y-112738000D01*
X222595000Y-112738000D02*
X222595000Y-114262000D01*
X222722000Y-112738000D02*
X222722000Y-114262000D01*
X227040000Y-112738000D02*
X221960000Y-112738000D01*
X227040000Y-114262000D02*
X227040000Y-112738000D01*
%TO.C,D20*%
X160460000Y-93738000D02*
X160460000Y-95262000D01*
X160460000Y-95262000D02*
X165540000Y-95262000D01*
X160587000Y-93738000D02*
X160587000Y-95262000D01*
X160714000Y-95262000D02*
X160714000Y-93738000D01*
X160841000Y-93738000D02*
X160841000Y-95262000D01*
X160968000Y-95262000D02*
X160968000Y-93738000D01*
X161095000Y-93738000D02*
X161095000Y-95262000D01*
X161222000Y-93738000D02*
X161222000Y-95262000D01*
X165540000Y-93738000D02*
X160460000Y-93738000D01*
X165540000Y-95262000D02*
X165540000Y-93738000D01*
%TO.C,D1*%
X21960000Y-74738000D02*
X21960000Y-76262000D01*
X21960000Y-76262000D02*
X27040000Y-76262000D01*
X22087000Y-74738000D02*
X22087000Y-76262000D01*
X22214000Y-76262000D02*
X22214000Y-74738000D01*
X22341000Y-74738000D02*
X22341000Y-76262000D01*
X22468000Y-76262000D02*
X22468000Y-74738000D01*
X22595000Y-74738000D02*
X22595000Y-76262000D01*
X22722000Y-74738000D02*
X22722000Y-76262000D01*
X27040000Y-74738000D02*
X21960000Y-74738000D01*
X27040000Y-76262000D02*
X27040000Y-74738000D01*
%TO.C,D31*%
X145960000Y-112738000D02*
X145960000Y-114262000D01*
X145960000Y-114262000D02*
X151040000Y-114262000D01*
X146087000Y-112738000D02*
X146087000Y-114262000D01*
X146214000Y-114262000D02*
X146214000Y-112738000D01*
X146341000Y-112738000D02*
X146341000Y-114262000D01*
X146468000Y-114262000D02*
X146468000Y-112738000D01*
X146595000Y-112738000D02*
X146595000Y-114262000D01*
X146722000Y-112738000D02*
X146722000Y-114262000D01*
X151040000Y-112738000D02*
X145960000Y-112738000D01*
X151040000Y-114262000D02*
X151040000Y-112738000D01*
%TO.C,D27*%
X69960000Y-112738000D02*
X69960000Y-114262000D01*
X69960000Y-114262000D02*
X75040000Y-114262000D01*
X70087000Y-112738000D02*
X70087000Y-114262000D01*
X70214000Y-114262000D02*
X70214000Y-112738000D01*
X70341000Y-112738000D02*
X70341000Y-114262000D01*
X70468000Y-114262000D02*
X70468000Y-112738000D01*
X70595000Y-112738000D02*
X70595000Y-114262000D01*
X70722000Y-112738000D02*
X70722000Y-114262000D01*
X75040000Y-112738000D02*
X69960000Y-112738000D01*
X75040000Y-114262000D02*
X75040000Y-112738000D01*
%TO.C,D10*%
X193460000Y-74738000D02*
X193460000Y-76262000D01*
X193460000Y-76262000D02*
X198540000Y-76262000D01*
X193587000Y-74738000D02*
X193587000Y-76262000D01*
X193714000Y-76262000D02*
X193714000Y-74738000D01*
X193841000Y-74738000D02*
X193841000Y-76262000D01*
X193968000Y-76262000D02*
X193968000Y-74738000D01*
X194095000Y-74738000D02*
X194095000Y-76262000D01*
X194222000Y-74738000D02*
X194222000Y-76262000D01*
X198540000Y-74738000D02*
X193460000Y-74738000D01*
X198540000Y-76262000D02*
X198540000Y-74738000D01*
%TO.C,D11*%
X212460000Y-74738000D02*
X212460000Y-76262000D01*
X212460000Y-76262000D02*
X217540000Y-76262000D01*
X212587000Y-74738000D02*
X212587000Y-76262000D01*
X212714000Y-76262000D02*
X212714000Y-74738000D01*
X212841000Y-74738000D02*
X212841000Y-76262000D01*
X212968000Y-76262000D02*
X212968000Y-74738000D01*
X213095000Y-74738000D02*
X213095000Y-76262000D01*
X213222000Y-74738000D02*
X213222000Y-76262000D01*
X217540000Y-74738000D02*
X212460000Y-74738000D01*
X217540000Y-76262000D02*
X217540000Y-74738000D01*
%TO.C,D41*%
X112460000Y-131738000D02*
X112460000Y-133262000D01*
X112460000Y-133262000D02*
X117540000Y-133262000D01*
X112587000Y-131738000D02*
X112587000Y-133262000D01*
X112714000Y-133262000D02*
X112714000Y-131738000D01*
X112841000Y-131738000D02*
X112841000Y-133262000D01*
X112968000Y-133262000D02*
X112968000Y-131738000D01*
X113095000Y-131738000D02*
X113095000Y-133262000D01*
X113222000Y-131738000D02*
X113222000Y-133262000D01*
X117540000Y-131738000D02*
X112460000Y-131738000D01*
X117540000Y-133262000D02*
X117540000Y-131738000D01*
%TO.C,D34*%
X202960000Y-112738000D02*
X202960000Y-114262000D01*
X202960000Y-114262000D02*
X208040000Y-114262000D01*
X203087000Y-112738000D02*
X203087000Y-114262000D01*
X203214000Y-114262000D02*
X203214000Y-112738000D01*
X203341000Y-112738000D02*
X203341000Y-114262000D01*
X203468000Y-114262000D02*
X203468000Y-112738000D01*
X203595000Y-112738000D02*
X203595000Y-114262000D01*
X203722000Y-112738000D02*
X203722000Y-114262000D01*
X208040000Y-112738000D02*
X202960000Y-112738000D01*
X208040000Y-114262000D02*
X208040000Y-112738000D01*
%TO.C,D24*%
X238960000Y-93738000D02*
X238960000Y-95262000D01*
X238960000Y-95262000D02*
X244040000Y-95262000D01*
X239087000Y-93738000D02*
X239087000Y-95262000D01*
X239214000Y-95262000D02*
X239214000Y-93738000D01*
X239341000Y-93738000D02*
X239341000Y-95262000D01*
X239468000Y-95262000D02*
X239468000Y-93738000D01*
X239595000Y-93738000D02*
X239595000Y-95262000D01*
X239722000Y-93738000D02*
X239722000Y-95262000D01*
X244040000Y-93738000D02*
X238960000Y-93738000D01*
X244040000Y-95262000D02*
X244040000Y-93738000D01*
%TO.C,D48*%
X274008000Y-122000000D02*
X274008000Y-127080000D01*
X274008000Y-122254000D02*
X275532000Y-122254000D01*
X274008000Y-122508000D02*
X275532000Y-122508000D01*
X274008000Y-127080000D02*
X275532000Y-127080000D01*
X275532000Y-122000000D02*
X274008000Y-122000000D01*
X275532000Y-122127000D02*
X274008000Y-122127000D01*
X275532000Y-122381000D02*
X274008000Y-122381000D01*
X275532000Y-122635000D02*
X274008000Y-122635000D01*
X275532000Y-122762000D02*
X274008000Y-122762000D01*
X275532000Y-127080000D02*
X275532000Y-122000000D01*
%TO.C,D29*%
X107960000Y-112738000D02*
X107960000Y-114262000D01*
X107960000Y-114262000D02*
X113040000Y-114262000D01*
X108087000Y-112738000D02*
X108087000Y-114262000D01*
X108214000Y-114262000D02*
X108214000Y-112738000D01*
X108341000Y-112738000D02*
X108341000Y-114262000D01*
X108468000Y-114262000D02*
X108468000Y-112738000D01*
X108595000Y-112738000D02*
X108595000Y-114262000D01*
X108722000Y-112738000D02*
X108722000Y-114262000D01*
X113040000Y-112738000D02*
X107960000Y-112738000D01*
X113040000Y-114262000D02*
X113040000Y-112738000D01*
%TO.C,D44*%
X202960000Y-131738000D02*
X202960000Y-133262000D01*
X202960000Y-133262000D02*
X208040000Y-133262000D01*
X203087000Y-131738000D02*
X203087000Y-133262000D01*
X203214000Y-133262000D02*
X203214000Y-131738000D01*
X203341000Y-131738000D02*
X203341000Y-133262000D01*
X203468000Y-133262000D02*
X203468000Y-131738000D01*
X203595000Y-131738000D02*
X203595000Y-133262000D01*
X203722000Y-131738000D02*
X203722000Y-133262000D01*
X208040000Y-131738000D02*
X202960000Y-131738000D01*
X208040000Y-133262000D02*
X208040000Y-131738000D01*
%TO.C,D19*%
X140960000Y-93738000D02*
X140960000Y-95262000D01*
X140960000Y-95262000D02*
X146040000Y-95262000D01*
X141087000Y-93738000D02*
X141087000Y-95262000D01*
X141214000Y-95262000D02*
X141214000Y-93738000D01*
X141341000Y-93738000D02*
X141341000Y-95262000D01*
X141468000Y-95262000D02*
X141468000Y-93738000D01*
X141595000Y-93738000D02*
X141595000Y-95262000D01*
X141722000Y-93738000D02*
X141722000Y-95262000D01*
X146040000Y-93738000D02*
X140960000Y-93738000D01*
X146040000Y-95262000D02*
X146040000Y-93738000D01*
%TO.C,D8*%
X155460000Y-74738000D02*
X155460000Y-76262000D01*
X155460000Y-76262000D02*
X160540000Y-76262000D01*
X155587000Y-74738000D02*
X155587000Y-76262000D01*
X155714000Y-76262000D02*
X155714000Y-74738000D01*
X155841000Y-74738000D02*
X155841000Y-76262000D01*
X155968000Y-76262000D02*
X155968000Y-74738000D01*
X156095000Y-74738000D02*
X156095000Y-76262000D01*
X156222000Y-74738000D02*
X156222000Y-76262000D01*
X160540000Y-74738000D02*
X155460000Y-74738000D01*
X160540000Y-76262000D02*
X160540000Y-74738000D01*
%TO.C,D14*%
X45960000Y-93738000D02*
X45960000Y-95262000D01*
X45960000Y-95262000D02*
X51040000Y-95262000D01*
X46087000Y-93738000D02*
X46087000Y-95262000D01*
X46214000Y-95262000D02*
X46214000Y-93738000D01*
X46341000Y-93738000D02*
X46341000Y-95262000D01*
X46468000Y-95262000D02*
X46468000Y-93738000D01*
X46595000Y-93738000D02*
X46595000Y-95262000D01*
X46722000Y-93738000D02*
X46722000Y-95262000D01*
X51040000Y-93738000D02*
X45960000Y-93738000D01*
X51040000Y-95262000D02*
X51040000Y-93738000D01*
%TO.C,D22*%
X198360000Y-93738000D02*
X198360000Y-95262000D01*
X198360000Y-95262000D02*
X203440000Y-95262000D01*
X198487000Y-93738000D02*
X198487000Y-95262000D01*
X198614000Y-95262000D02*
X198614000Y-93738000D01*
X198741000Y-93738000D02*
X198741000Y-95262000D01*
X198868000Y-95262000D02*
X198868000Y-93738000D01*
X198995000Y-93738000D02*
X198995000Y-95262000D01*
X199122000Y-93738000D02*
X199122000Y-95262000D01*
X203440000Y-93738000D02*
X198360000Y-93738000D01*
X203440000Y-95262000D02*
X203440000Y-93738000D01*
%TO.C,D4*%
X79460000Y-74738000D02*
X79460000Y-76262000D01*
X79460000Y-76262000D02*
X84540000Y-76262000D01*
X79587000Y-74738000D02*
X79587000Y-76262000D01*
X79714000Y-76262000D02*
X79714000Y-74738000D01*
X79841000Y-74738000D02*
X79841000Y-76262000D01*
X79968000Y-76262000D02*
X79968000Y-74738000D01*
X80095000Y-74738000D02*
X80095000Y-76262000D01*
X80222000Y-74738000D02*
X80222000Y-76262000D01*
X84540000Y-74738000D02*
X79460000Y-74738000D01*
X84540000Y-76262000D02*
X84540000Y-74738000D01*
%TO.C,D32*%
X164960000Y-112738000D02*
X164960000Y-114262000D01*
X164960000Y-114262000D02*
X170040000Y-114262000D01*
X165087000Y-112738000D02*
X165087000Y-114262000D01*
X165214000Y-114262000D02*
X165214000Y-112738000D01*
X165341000Y-112738000D02*
X165341000Y-114262000D01*
X165468000Y-114262000D02*
X165468000Y-112738000D01*
X165595000Y-112738000D02*
X165595000Y-114262000D01*
X165722000Y-112738000D02*
X165722000Y-114262000D01*
X170040000Y-112738000D02*
X164960000Y-112738000D01*
X170040000Y-114262000D02*
X170040000Y-112738000D01*
%TO.C,D49*%
X276018000Y-120530000D02*
X276018000Y-125610000D01*
X276018000Y-120784000D02*
X277542000Y-120784000D01*
X276018000Y-121038000D02*
X277542000Y-121038000D01*
X276018000Y-125610000D02*
X277542000Y-125610000D01*
X277542000Y-120530000D02*
X276018000Y-120530000D01*
X277542000Y-120657000D02*
X276018000Y-120657000D01*
X277542000Y-120911000D02*
X276018000Y-120911000D01*
X277542000Y-121165000D02*
X276018000Y-121165000D01*
X277542000Y-121292000D02*
X276018000Y-121292000D01*
X277542000Y-125610000D02*
X277542000Y-120530000D01*
%TO.C,D2*%
X40960000Y-74738000D02*
X40960000Y-76262000D01*
X40960000Y-76262000D02*
X46040000Y-76262000D01*
X41087000Y-74738000D02*
X41087000Y-76262000D01*
X41214000Y-76262000D02*
X41214000Y-74738000D01*
X41341000Y-74738000D02*
X41341000Y-76262000D01*
X41468000Y-76262000D02*
X41468000Y-74738000D01*
X41595000Y-74738000D02*
X41595000Y-76262000D01*
X41722000Y-74738000D02*
X41722000Y-76262000D01*
X46040000Y-74738000D02*
X40960000Y-74738000D01*
X46040000Y-76262000D02*
X46040000Y-74738000D01*
%TO.C,D26*%
X50460000Y-112738000D02*
X50460000Y-114262000D01*
X50460000Y-114262000D02*
X55540000Y-114262000D01*
X50587000Y-112738000D02*
X50587000Y-114262000D01*
X50714000Y-114262000D02*
X50714000Y-112738000D01*
X50841000Y-112738000D02*
X50841000Y-114262000D01*
X50968000Y-114262000D02*
X50968000Y-112738000D01*
X51095000Y-112738000D02*
X51095000Y-114262000D01*
X51222000Y-112738000D02*
X51222000Y-114262000D01*
X55540000Y-112738000D02*
X50460000Y-112738000D01*
X55540000Y-114262000D02*
X55540000Y-112738000D01*
%TO.C,D25*%
X26960000Y-112738000D02*
X26960000Y-114262000D01*
X26960000Y-114262000D02*
X32040000Y-114262000D01*
X27087000Y-112738000D02*
X27087000Y-114262000D01*
X27214000Y-114262000D02*
X27214000Y-112738000D01*
X27341000Y-112738000D02*
X27341000Y-114262000D01*
X27468000Y-114262000D02*
X27468000Y-112738000D01*
X27595000Y-112738000D02*
X27595000Y-114262000D01*
X27722000Y-112738000D02*
X27722000Y-114262000D01*
X32040000Y-112738000D02*
X26960000Y-112738000D01*
X32040000Y-114262000D02*
X32040000Y-112738000D01*
%TO.C,D5*%
X98460000Y-74738000D02*
X98460000Y-76262000D01*
X98460000Y-76262000D02*
X103540000Y-76262000D01*
X98587000Y-74738000D02*
X98587000Y-76262000D01*
X98714000Y-76262000D02*
X98714000Y-74738000D01*
X98841000Y-74738000D02*
X98841000Y-76262000D01*
X98968000Y-76262000D02*
X98968000Y-74738000D01*
X99095000Y-74738000D02*
X99095000Y-76262000D01*
X99222000Y-74738000D02*
X99222000Y-76262000D01*
X103540000Y-74738000D02*
X98460000Y-74738000D01*
X103540000Y-76262000D02*
X103540000Y-74738000D01*
%TO.C,D45*%
X221960000Y-131738000D02*
X221960000Y-133262000D01*
X221960000Y-133262000D02*
X227040000Y-133262000D01*
X222087000Y-131738000D02*
X222087000Y-133262000D01*
X222214000Y-133262000D02*
X222214000Y-131738000D01*
X222341000Y-131738000D02*
X222341000Y-133262000D01*
X222468000Y-133262000D02*
X222468000Y-131738000D01*
X222595000Y-131738000D02*
X222595000Y-133262000D01*
X222722000Y-131738000D02*
X222722000Y-133262000D01*
X227040000Y-131738000D02*
X221960000Y-131738000D01*
X227040000Y-133262000D02*
X227040000Y-131738000D01*
%TO.C,D12*%
X236460000Y-74738000D02*
X236460000Y-76262000D01*
X236460000Y-76262000D02*
X241540000Y-76262000D01*
X236587000Y-74738000D02*
X236587000Y-76262000D01*
X236714000Y-76262000D02*
X236714000Y-74738000D01*
X236841000Y-74738000D02*
X236841000Y-76262000D01*
X236968000Y-76262000D02*
X236968000Y-74738000D01*
X237095000Y-74738000D02*
X237095000Y-76262000D01*
X237222000Y-74738000D02*
X237222000Y-76262000D01*
X241540000Y-74738000D02*
X236460000Y-74738000D01*
X241540000Y-76262000D02*
X241540000Y-74738000D01*
%TO.C,D33*%
X183960000Y-112738000D02*
X183960000Y-114262000D01*
X183960000Y-114262000D02*
X189040000Y-114262000D01*
X184087000Y-112738000D02*
X184087000Y-114262000D01*
X184214000Y-114262000D02*
X184214000Y-112738000D01*
X184341000Y-112738000D02*
X184341000Y-114262000D01*
X184468000Y-114262000D02*
X184468000Y-112738000D01*
X184595000Y-112738000D02*
X184595000Y-114262000D01*
X184722000Y-112738000D02*
X184722000Y-114262000D01*
X189040000Y-112738000D02*
X183960000Y-112738000D01*
X189040000Y-114262000D02*
X189040000Y-112738000D01*
%TO.C,D28*%
X88960000Y-112738000D02*
X88960000Y-114262000D01*
X88960000Y-114262000D02*
X94040000Y-114262000D01*
X89087000Y-112738000D02*
X89087000Y-114262000D01*
X89214000Y-114262000D02*
X89214000Y-112738000D01*
X89341000Y-112738000D02*
X89341000Y-114262000D01*
X89468000Y-114262000D02*
X89468000Y-112738000D01*
X89595000Y-112738000D02*
X89595000Y-114262000D01*
X89722000Y-112738000D02*
X89722000Y-114262000D01*
X94040000Y-112738000D02*
X88960000Y-112738000D01*
X94040000Y-114262000D02*
X94040000Y-112738000D01*
%TO.C,D15*%
X64960000Y-93738000D02*
X64960000Y-95262000D01*
X64960000Y-95262000D02*
X70040000Y-95262000D01*
X65087000Y-93738000D02*
X65087000Y-95262000D01*
X65214000Y-95262000D02*
X65214000Y-93738000D01*
X65341000Y-93738000D02*
X65341000Y-95262000D01*
X65468000Y-95262000D02*
X65468000Y-93738000D01*
X65595000Y-93738000D02*
X65595000Y-95262000D01*
X65722000Y-93738000D02*
X65722000Y-95262000D01*
X70040000Y-93738000D02*
X64960000Y-93738000D01*
X70040000Y-95262000D02*
X70040000Y-93738000D01*
%TO.C,D7*%
X136460000Y-74738000D02*
X136460000Y-76262000D01*
X136460000Y-76262000D02*
X141540000Y-76262000D01*
X136587000Y-74738000D02*
X136587000Y-76262000D01*
X136714000Y-76262000D02*
X136714000Y-74738000D01*
X136841000Y-74738000D02*
X136841000Y-76262000D01*
X136968000Y-76262000D02*
X136968000Y-74738000D01*
X137095000Y-74738000D02*
X137095000Y-76262000D01*
X137222000Y-74738000D02*
X137222000Y-76262000D01*
X141540000Y-74738000D02*
X136460000Y-74738000D01*
X141540000Y-76262000D02*
X141540000Y-74738000D01*
%TO.C,D37*%
X22040000Y-131738000D02*
X22040000Y-133262000D01*
X22040000Y-133262000D02*
X27120000Y-133262000D01*
X22167000Y-131738000D02*
X22167000Y-133262000D01*
X22294000Y-133262000D02*
X22294000Y-131738000D01*
X22421000Y-131738000D02*
X22421000Y-133262000D01*
X22548000Y-133262000D02*
X22548000Y-131738000D01*
X22675000Y-131738000D02*
X22675000Y-133262000D01*
X22802000Y-131738000D02*
X22802000Y-133262000D01*
X27120000Y-131738000D02*
X22040000Y-131738000D01*
X27120000Y-133262000D02*
X27120000Y-131738000D01*
%TO.C,D16*%
X83960000Y-93738000D02*
X83960000Y-95262000D01*
X83960000Y-95262000D02*
X89040000Y-95262000D01*
X84087000Y-93738000D02*
X84087000Y-95262000D01*
X84214000Y-95262000D02*
X84214000Y-93738000D01*
X84341000Y-93738000D02*
X84341000Y-95262000D01*
X84468000Y-95262000D02*
X84468000Y-93738000D01*
X84595000Y-93738000D02*
X84595000Y-95262000D01*
X84722000Y-93738000D02*
X84722000Y-95262000D01*
X89040000Y-93738000D02*
X83960000Y-93738000D01*
X89040000Y-95262000D02*
X89040000Y-93738000D01*
%TO.C,D17*%
X102960000Y-93738000D02*
X102960000Y-95262000D01*
X102960000Y-95262000D02*
X108040000Y-95262000D01*
X103087000Y-93738000D02*
X103087000Y-95262000D01*
X103214000Y-95262000D02*
X103214000Y-93738000D01*
X103341000Y-93738000D02*
X103341000Y-95262000D01*
X103468000Y-95262000D02*
X103468000Y-93738000D01*
X103595000Y-93738000D02*
X103595000Y-95262000D01*
X103722000Y-93738000D02*
X103722000Y-95262000D01*
X108040000Y-93738000D02*
X102960000Y-93738000D01*
X108040000Y-95262000D02*
X108040000Y-93738000D01*
%TO.C,D38*%
X40960000Y-131738000D02*
X40960000Y-133262000D01*
X40960000Y-133262000D02*
X46040000Y-133262000D01*
X41087000Y-131738000D02*
X41087000Y-133262000D01*
X41214000Y-133262000D02*
X41214000Y-131738000D01*
X41341000Y-131738000D02*
X41341000Y-133262000D01*
X41468000Y-133262000D02*
X41468000Y-131738000D01*
X41595000Y-131738000D02*
X41595000Y-133262000D01*
X41722000Y-131738000D02*
X41722000Y-133262000D01*
X46040000Y-131738000D02*
X40960000Y-131738000D01*
X46040000Y-133262000D02*
X46040000Y-131738000D01*
%TO.C,D46*%
X240960000Y-131738000D02*
X240960000Y-133262000D01*
X240960000Y-133262000D02*
X246040000Y-133262000D01*
X241087000Y-131738000D02*
X241087000Y-133262000D01*
X241214000Y-133262000D02*
X241214000Y-131738000D01*
X241341000Y-131738000D02*
X241341000Y-133262000D01*
X241468000Y-133262000D02*
X241468000Y-131738000D01*
X241595000Y-131738000D02*
X241595000Y-133262000D01*
X241722000Y-131738000D02*
X241722000Y-133262000D01*
X246040000Y-131738000D02*
X240960000Y-131738000D01*
X246040000Y-133262000D02*
X246040000Y-131738000D01*
%TO.C,D23*%
X217460000Y-93738000D02*
X217460000Y-95262000D01*
X217460000Y-95262000D02*
X222540000Y-95262000D01*
X217587000Y-93738000D02*
X217587000Y-95262000D01*
X217714000Y-95262000D02*
X217714000Y-93738000D01*
X217841000Y-93738000D02*
X217841000Y-95262000D01*
X217968000Y-95262000D02*
X217968000Y-93738000D01*
X218095000Y-93738000D02*
X218095000Y-95262000D01*
X218222000Y-93738000D02*
X218222000Y-95262000D01*
X222540000Y-93738000D02*
X217460000Y-93738000D01*
X222540000Y-95262000D02*
X222540000Y-93738000D01*
%TO.C,D43*%
X181460000Y-131738000D02*
X181460000Y-133262000D01*
X181460000Y-133262000D02*
X186540000Y-133262000D01*
X181587000Y-131738000D02*
X181587000Y-133262000D01*
X181714000Y-133262000D02*
X181714000Y-131738000D01*
X181841000Y-131738000D02*
X181841000Y-133262000D01*
X181968000Y-133262000D02*
X181968000Y-131738000D01*
X182095000Y-131738000D02*
X182095000Y-133262000D01*
X182222000Y-131738000D02*
X182222000Y-133262000D01*
X186540000Y-131738000D02*
X181460000Y-131738000D01*
X186540000Y-133262000D02*
X186540000Y-131738000D01*
%TO.C,D47*%
X263985000Y-129113000D02*
X263985000Y-130637000D01*
X263985000Y-130637000D02*
X269065000Y-130637000D01*
X264112000Y-129113000D02*
X264112000Y-130637000D01*
X264239000Y-130637000D02*
X264239000Y-129113000D01*
X264366000Y-129113000D02*
X264366000Y-130637000D01*
X264493000Y-130637000D02*
X264493000Y-129113000D01*
X264620000Y-129113000D02*
X264620000Y-130637000D01*
X264747000Y-129113000D02*
X264747000Y-130637000D01*
X269065000Y-129113000D02*
X263985000Y-129113000D01*
X269065000Y-130637000D02*
X269065000Y-129113000D01*
%TO.C,D40*%
X81460000Y-131738000D02*
X81460000Y-133262000D01*
X81460000Y-133262000D02*
X86540000Y-133262000D01*
X81587000Y-131738000D02*
X81587000Y-133262000D01*
X81714000Y-133262000D02*
X81714000Y-131738000D01*
X81841000Y-131738000D02*
X81841000Y-133262000D01*
X81968000Y-133262000D02*
X81968000Y-131738000D01*
X82095000Y-131738000D02*
X82095000Y-133262000D01*
X82222000Y-131738000D02*
X82222000Y-133262000D01*
X86540000Y-131738000D02*
X81460000Y-131738000D01*
X86540000Y-133262000D02*
X86540000Y-131738000D01*
%TO.C,D18*%
X121960000Y-93738000D02*
X121960000Y-95262000D01*
X121960000Y-95262000D02*
X127040000Y-95262000D01*
X122087000Y-93738000D02*
X122087000Y-95262000D01*
X122214000Y-95262000D02*
X122214000Y-93738000D01*
X122341000Y-93738000D02*
X122341000Y-95262000D01*
X122468000Y-95262000D02*
X122468000Y-93738000D01*
X122595000Y-93738000D02*
X122595000Y-95262000D01*
X122722000Y-93738000D02*
X122722000Y-95262000D01*
X127040000Y-93738000D02*
X121960000Y-93738000D01*
X127040000Y-95262000D02*
X127040000Y-93738000D01*
%TO.C,D13*%
X24460000Y-93738000D02*
X24460000Y-95262000D01*
X24460000Y-95262000D02*
X29540000Y-95262000D01*
X24587000Y-93738000D02*
X24587000Y-95262000D01*
X24714000Y-95262000D02*
X24714000Y-93738000D01*
X24841000Y-93738000D02*
X24841000Y-95262000D01*
X24968000Y-95262000D02*
X24968000Y-93738000D01*
X25095000Y-93738000D02*
X25095000Y-95262000D01*
X25222000Y-93738000D02*
X25222000Y-95262000D01*
X29540000Y-93738000D02*
X24460000Y-93738000D01*
X29540000Y-95262000D02*
X29540000Y-93738000D01*
%TO.C,D36*%
X240960000Y-112738000D02*
X240960000Y-114262000D01*
X240960000Y-114262000D02*
X246040000Y-114262000D01*
X241087000Y-112738000D02*
X241087000Y-114262000D01*
X241214000Y-114262000D02*
X241214000Y-112738000D01*
X241341000Y-112738000D02*
X241341000Y-114262000D01*
X241468000Y-114262000D02*
X241468000Y-112738000D01*
X241595000Y-112738000D02*
X241595000Y-114262000D01*
X241722000Y-112738000D02*
X241722000Y-114262000D01*
X246040000Y-112738000D02*
X240960000Y-112738000D01*
X246040000Y-114262000D02*
X246040000Y-112738000D01*
%TO.C,D30*%
X126960000Y-112738000D02*
X126960000Y-114262000D01*
X126960000Y-114262000D02*
X132040000Y-114262000D01*
X127087000Y-112738000D02*
X127087000Y-114262000D01*
X127214000Y-114262000D02*
X127214000Y-112738000D01*
X127341000Y-112738000D02*
X127341000Y-114262000D01*
X127468000Y-114262000D02*
X127468000Y-112738000D01*
X127595000Y-112738000D02*
X127595000Y-114262000D01*
X127722000Y-112738000D02*
X127722000Y-114262000D01*
X132040000Y-112738000D02*
X126960000Y-112738000D01*
X132040000Y-114262000D02*
X132040000Y-112738000D01*
%TO.C,D3*%
X60460000Y-74738000D02*
X60460000Y-76262000D01*
X60460000Y-76262000D02*
X65540000Y-76262000D01*
X60587000Y-74738000D02*
X60587000Y-76262000D01*
X60714000Y-76262000D02*
X60714000Y-74738000D01*
X60841000Y-74738000D02*
X60841000Y-76262000D01*
X60968000Y-76262000D02*
X60968000Y-74738000D01*
X61095000Y-74738000D02*
X61095000Y-76262000D01*
X61222000Y-74738000D02*
X61222000Y-76262000D01*
X65540000Y-74738000D02*
X60460000Y-74738000D01*
X65540000Y-76262000D02*
X65540000Y-74738000D01*
%TO.C,D21*%
X179360000Y-93738000D02*
X179360000Y-95262000D01*
X179360000Y-95262000D02*
X184440000Y-95262000D01*
X179487000Y-93738000D02*
X179487000Y-95262000D01*
X179614000Y-95262000D02*
X179614000Y-93738000D01*
X179741000Y-93738000D02*
X179741000Y-95262000D01*
X179868000Y-95262000D02*
X179868000Y-93738000D01*
X179995000Y-93738000D02*
X179995000Y-95262000D01*
X180122000Y-93738000D02*
X180122000Y-95262000D01*
X184440000Y-93738000D02*
X179360000Y-93738000D01*
X184440000Y-95262000D02*
X184440000Y-93738000D01*
%TO.C,D42*%
X150460000Y-131738000D02*
X150460000Y-133262000D01*
X150460000Y-133262000D02*
X155540000Y-133262000D01*
X150587000Y-131738000D02*
X150587000Y-133262000D01*
X150714000Y-133262000D02*
X150714000Y-131738000D01*
X150841000Y-131738000D02*
X150841000Y-133262000D01*
X150968000Y-133262000D02*
X150968000Y-131738000D01*
X151095000Y-131738000D02*
X151095000Y-133262000D01*
X151222000Y-131738000D02*
X151222000Y-133262000D01*
X155540000Y-131738000D02*
X150460000Y-131738000D01*
X155540000Y-133262000D02*
X155540000Y-131738000D01*
D12*
%TO.C,U2*%
X257722500Y-60720000D02*
X275502500Y-60720000D01*
X257722500Y-63260000D02*
X257722500Y-60720000D01*
X257722500Y-93740000D02*
X257722500Y-63260000D01*
X275502500Y-60720000D02*
X275502500Y-63260000D01*
X275502500Y-63260000D02*
X275502500Y-93740000D01*
X275502500Y-93740000D02*
X257722500Y-93740000D01*
D13*
%TO.C,J2*%
X262840000Y-99740000D02*
X270660000Y-99740000D01*
X262840000Y-103300000D02*
X267200000Y-103300000D01*
X262840000Y-105860000D02*
X262840000Y-99740000D01*
X265100000Y-100500000D02*
X265100000Y-101500000D01*
X265100000Y-101500000D02*
X266700000Y-101500000D01*
X265100000Y-104100000D02*
X262840000Y-104100000D01*
X265100000Y-104100000D02*
X266700000Y-104100000D01*
X265100000Y-104600000D02*
X262840000Y-104600000D01*
X265100000Y-105100000D02*
X265100000Y-104100000D01*
X266700000Y-100500000D02*
X265100000Y-100500000D01*
X266700000Y-101500000D02*
X266700000Y-100500000D01*
X266700000Y-104100000D02*
X266700000Y-105100000D01*
X266700000Y-105100000D02*
X265100000Y-105100000D01*
X267200000Y-102300000D02*
X262840000Y-102300000D01*
X267200000Y-103300000D02*
X267200000Y-102300000D01*
X269060000Y-99740000D02*
X269060000Y-100660000D01*
X269060000Y-100660000D02*
X269060000Y-100940000D01*
X269060000Y-104660000D02*
X269060000Y-104940000D01*
X269060000Y-104660000D02*
X270275000Y-104660000D01*
X269060000Y-104940000D02*
X270660000Y-104940000D01*
X269060000Y-105860000D02*
X269060000Y-104940000D01*
X270660000Y-99740000D02*
X270660000Y-100660000D01*
X270660000Y-100660000D02*
X269060000Y-100660000D01*
X270660000Y-104940000D02*
X270660000Y-105860000D01*
X270660000Y-105860000D02*
X262840000Y-105860000D01*
%TD*%
D14*
%TO.C,U2*%
X274232500Y-64530000D03*
X274232500Y-67070000D03*
X274232500Y-69610000D03*
X274232500Y-72150000D03*
X274232500Y-74690000D03*
X274232500Y-77230000D03*
X274232500Y-79770000D03*
X274232500Y-82310000D03*
X274232500Y-84850000D03*
X274232500Y-87390000D03*
X274232500Y-89930000D03*
X274232500Y-92470000D03*
X258992500Y-92470000D03*
X258992500Y-89930000D03*
X258992500Y-87390000D03*
X258992500Y-84850000D03*
X258992500Y-82310000D03*
X258992500Y-79770000D03*
X258992500Y-77230000D03*
X258992500Y-74690000D03*
X258992500Y-72150000D03*
X258992500Y-69610000D03*
X258992500Y-67070000D03*
X258992500Y-64530000D03*
X271692500Y-87390000D03*
X269152500Y-87390000D03*
X266612500Y-87390000D03*
%TD*%
M02*
