M48
; DRILL file {KiCad 9.0.6} date 2025-12-30T17:34:52-0700
; FORMAT={-:-/ absolute / metric / decimal}
; #@! TF.CreationDate,2025-12-30T17:34:52-07:00
; #@! TF.GenerationSoftware,Kicad,Pcbnew,9.0.6
; #@! TF.FileFunction,Plated,1,2,PTH
FMAT,2
METRIC
; #@! TA.AperFunction,Plated,PTH,ViaDrill
T1C0.400
; #@! TA.AperFunction,Plated,PTH,ComponentDrill
T2C0.750
; #@! TA.AperFunction,Plated,PTH,ComponentDrill
T3C0.813
; #@! TA.AperFunction,Plated,PTH,ComponentDrill
T4C0.990
; #@! TA.AperFunction,Plated,PTH,ComponentDrill
T5C1.000
; #@! TA.AperFunction,Plated,PTH,ComponentDrill
T6C1.092
; #@! TA.AperFunction,Plated,PTH,ComponentDrill
T7C1.300
; #@! TA.AperFunction,Plated,PTH,ComponentDrill
T8C1.500
; #@! TA.AperFunction,Plated,PTH,ComponentDrill
T9C2.499
%
G90
G05
T1
X131.715Y-78.085
X150.765Y-78.535
X174.565Y-97.835
X193.6Y-98.0
X230.987Y-116.312
X243.125Y-116.275
X252.4Y-84.3
X252.9Y-91.4
X253.0Y-85.2
X254.7Y-91.5
X255.3Y-77.3
X256.5Y-77.3
T2
X269.2Y-101.8
X269.2Y-103.8
T3
X262.803Y-97.5
X265.342Y-97.5
X267.882Y-97.5
X270.423Y-97.5
T4
X275.188Y-100.4
X275.188Y-105.4
T5
X20.6Y-75.5
X20.68Y-132.5
X23.1Y-94.5
X25.6Y-113.5
X28.4Y-75.5
X28.48Y-132.5
X30.9Y-94.5
X33.4Y-113.5
X39.6Y-75.5
X39.6Y-132.5
X44.6Y-94.5
X47.4Y-75.5
X47.4Y-132.5
X49.1Y-113.5
X52.4Y-94.5
X56.9Y-113.5
X58.6Y-132.5
X59.1Y-75.5
X63.6Y-94.5
X66.4Y-132.5
X66.9Y-75.5
X68.6Y-113.5
X71.4Y-94.5
X76.4Y-113.5
X78.1Y-75.5
X80.1Y-132.5
X82.6Y-94.5
X85.9Y-75.5
X87.6Y-113.5
X87.9Y-132.5
X90.4Y-94.5
X95.4Y-113.5
X97.1Y-75.5
X101.6Y-94.5
X104.9Y-75.5
X106.6Y-113.5
X109.4Y-94.5
X111.1Y-132.5
X114.4Y-113.5
X116.1Y-75.5
X118.9Y-132.5
X120.6Y-94.5
X123.9Y-75.5
X125.6Y-113.5
X128.4Y-94.5
X133.4Y-113.5
X135.1Y-75.5
X139.6Y-94.5
X142.9Y-75.5
X144.6Y-113.5
X147.4Y-94.5
X149.1Y-132.5
X152.4Y-113.5
X154.1Y-75.5
X156.9Y-132.5
X159.1Y-94.5
X161.9Y-75.5
X163.6Y-113.5
X166.9Y-94.5
X171.4Y-113.5
X173.1Y-75.5
X178.0Y-94.5
X180.1Y-132.5
X180.9Y-75.5
X182.6Y-113.5
X185.8Y-94.5
X187.9Y-132.5
X190.4Y-113.5
X192.1Y-75.5
X197.0Y-94.5
X199.9Y-75.5
X201.6Y-113.5
X201.6Y-132.5
X204.8Y-94.5
X209.4Y-113.5
X209.4Y-132.5
X211.1Y-75.5
X216.1Y-94.5
X218.9Y-75.5
X220.6Y-113.5
X220.6Y-132.5
X223.9Y-94.5
X228.4Y-113.5
X228.4Y-132.5
X235.1Y-75.5
X237.6Y-94.5
X239.6Y-113.5
X239.6Y-132.5
X242.9Y-75.5
X245.4Y-94.5
X247.4Y-113.5
X247.4Y-132.5
X262.625Y-129.875
X264.113Y-108.5
X264.113Y-123.0
X266.613Y-108.5
X269.113Y-108.5
X269.113Y-123.0
X270.425Y-129.875
X274.77Y-120.64
X274.77Y-128.44
X276.78Y-119.17
X276.78Y-126.97
T6
X258.993Y-64.53
X258.993Y-67.07
X258.993Y-69.61
X258.993Y-72.15
X258.993Y-74.69
X258.993Y-77.23
X258.993Y-79.77
X258.993Y-82.31
X258.993Y-84.85
X258.993Y-87.39
X258.993Y-89.93
X258.993Y-92.47
X266.613Y-87.39
X269.152Y-87.39
X271.692Y-87.39
X274.233Y-64.53
X274.233Y-67.07
X274.233Y-69.61
X274.233Y-72.15
X274.233Y-74.69
X274.233Y-77.23
X274.233Y-79.77
X274.233Y-82.31
X274.233Y-84.85
X274.233Y-87.39
X274.233Y-89.93
X274.233Y-92.47
T7
X277.678Y-99.39
X277.678Y-106.4
T8
G00X261.012Y-115.35
M15
G01X261.012Y-116.65
M16
G05
G00X272.212Y-115.35
M15
G01X272.212Y-116.65
M16
G05
T9
G00X17.549Y-79.0
M15
G01X20.051Y-79.0
M16
G05
G00X17.549Y-117.1
M15
G01X20.051Y-117.1
M16
G05
G00X248.149Y-79.0
M15
G01X250.651Y-79.0
M16
G05
G00X248.149Y-117.1
M15
G01X250.651Y-117.1
M16
G05
M30
