%TF.GenerationSoftware,KiCad,Pcbnew,9.0.6*%
%TF.CreationDate,2025-12-30T17:34:46-07:00*%
%TF.ProjectId,Hotswap PCB,486f7473-7761-4702-9050-43422e6b6963,rev?*%
%TF.SameCoordinates,Original*%
%TF.FileFunction,Legend,Top*%
%TF.FilePolarity,Positive*%
%FSLAX46Y46*%
G04 Gerber Fmt 4.6, Leading zero omitted, Abs format (unit mm)*
G04 Created by KiCad (PCBNEW 9.0.6) date 2025-12-30 17:34:46*
%MOMM*%
%LPD*%
G01*
G04 APERTURE LIST*
%ADD10C,0.125000*%
%ADD11C,0.150000*%
%ADD12C,0.120000*%
%ADD13C,0.381000*%
%ADD14R,1.600000X1.600000*%
%ADD15C,1.600000*%
%ADD16C,1.397000*%
%ADD17C,1.752600*%
G04 APERTURE END LIST*
D10*
G36*
X270745259Y-133827258D02*
G01*
X270650077Y-133971876D01*
X270576182Y-134094154D01*
X270513460Y-134210296D01*
X270473234Y-134298128D01*
X270445782Y-134377946D01*
X270438887Y-134423333D01*
X270447121Y-134467186D01*
X270468483Y-134490582D01*
X270505474Y-134498987D01*
X270552054Y-134486914D01*
X270648080Y-134433809D01*
X270825218Y-134306371D01*
X270823111Y-134377079D01*
X270660247Y-134530435D01*
X270542814Y-134618075D01*
X270459664Y-134659824D01*
X270400968Y-134671178D01*
X270340922Y-134663884D01*
X270298068Y-134644257D01*
X270267846Y-134613290D01*
X270248422Y-134568724D01*
X270241142Y-134505581D01*
X270249384Y-134440857D01*
X270278900Y-134349962D01*
X270338503Y-134224488D01*
X270451851Y-134031189D01*
X270635625Y-133754168D01*
X270243706Y-134174113D01*
X270083788Y-134336001D01*
X269918375Y-134492850D01*
X269845652Y-134562001D01*
X269780072Y-134611186D01*
X269745927Y-134624605D01*
X269708357Y-134629138D01*
X269670210Y-134623873D01*
X269637175Y-134608442D01*
X269607881Y-134582060D01*
X269586644Y-134548458D01*
X269572955Y-134505045D01*
X269567948Y-134449070D01*
X269575364Y-134392499D01*
X269600737Y-134320751D01*
X269639506Y-134245826D01*
X269700113Y-134150391D01*
X269771766Y-134052026D01*
X269864061Y-133937625D01*
X270082323Y-133670912D01*
X270132912Y-133598263D01*
X270142773Y-133571719D01*
X270138767Y-133560335D01*
X270126378Y-133556423D01*
X270061257Y-133574375D01*
X269940906Y-133632627D01*
X269748290Y-133747574D01*
X269659453Y-133798924D01*
X269574542Y-133838249D01*
X269494394Y-133866308D01*
X269454191Y-133872962D01*
X269435041Y-133870044D01*
X269419845Y-133861696D01*
X269409456Y-133848748D01*
X269406014Y-133832753D01*
X269410240Y-133804673D01*
X269427538Y-133751878D01*
X269483409Y-133635466D01*
X269544317Y-133545341D01*
X269596996Y-133494691D01*
X269663565Y-133446224D01*
X269746184Y-133400077D01*
X269876458Y-133344252D01*
X270009508Y-133303174D01*
X270139693Y-133276694D01*
X270232899Y-133269193D01*
X270293174Y-133275595D01*
X270328703Y-133291359D01*
X270350747Y-133319073D01*
X270358928Y-133363899D01*
X270351048Y-133467300D01*
X270331267Y-133534350D01*
X270297557Y-133598025D01*
X270239035Y-133690329D01*
X270168876Y-133790988D01*
X270074538Y-133915643D01*
X269996136Y-134017309D01*
X269932663Y-134107252D01*
X269819915Y-134275871D01*
X269801535Y-134313205D01*
X269796376Y-134341267D01*
X269804986Y-134368295D01*
X269830173Y-134377079D01*
X269859815Y-134371805D01*
X269889615Y-134355097D01*
X270012622Y-134251416D01*
X270223648Y-134056236D01*
X270410127Y-133861513D01*
X270623351Y-133621819D01*
X270807724Y-133410610D01*
X270847778Y-133376716D01*
X270873395Y-133368387D01*
X270893054Y-133376033D01*
X270913787Y-133404840D01*
X270926660Y-133445373D01*
X270931739Y-133506964D01*
X270924405Y-133543557D01*
X270896384Y-133599929D01*
X270745259Y-133827258D01*
G37*
G36*
X270805709Y-134389627D02*
G01*
X270805709Y-134323498D01*
X270889790Y-134212215D01*
X270860063Y-134198938D01*
X270842071Y-134184738D01*
X270831334Y-134165627D01*
X270827233Y-134135920D01*
X270833811Y-134097850D01*
X270857916Y-134043321D01*
X270892083Y-133989394D01*
X270933754Y-133938541D01*
X270979679Y-133896166D01*
X271015819Y-133875435D01*
X271043480Y-133868291D01*
X271058883Y-133873226D01*
X271063904Y-133887708D01*
X271058332Y-133908584D01*
X271032214Y-133958233D01*
X271224618Y-133931458D01*
X271298652Y-133925718D01*
X271328328Y-133929748D01*
X271343050Y-133943345D01*
X271356996Y-133972430D01*
X271368262Y-134039383D01*
X271363987Y-134060455D01*
X271349302Y-134085636D01*
X271284273Y-134158176D01*
X271234182Y-134219078D01*
X271193048Y-134284755D01*
X271163500Y-134350054D01*
X271156137Y-134387704D01*
X271162497Y-134413966D01*
X271180651Y-134429553D01*
X271215579Y-134435697D01*
X271255484Y-134426693D01*
X271323194Y-134390535D01*
X271432833Y-134309210D01*
X271432833Y-134377537D01*
X271292424Y-134517671D01*
X271237142Y-134565140D01*
X271189934Y-134599004D01*
X271143112Y-134622405D01*
X271105945Y-134629138D01*
X271067080Y-134619633D01*
X271034229Y-134589845D01*
X271013559Y-134544918D01*
X271005561Y-134475997D01*
X271010734Y-134431070D01*
X271028092Y-134375888D01*
X271054712Y-134319460D01*
X271094129Y-134253889D01*
X271192040Y-134122639D01*
X271127469Y-134135370D01*
X271051631Y-134149109D01*
X270990174Y-134160191D01*
X270942383Y-134240525D01*
X270881315Y-134316877D01*
X270805709Y-134389627D01*
G37*
G36*
X271848657Y-133855376D02*
G01*
X271824152Y-133850741D01*
X271799930Y-133836051D01*
X271782661Y-133814125D01*
X271776941Y-133787233D01*
X271786477Y-133742840D01*
X271819989Y-133687581D01*
X271851463Y-133655066D01*
X271880739Y-133637944D01*
X271909107Y-133632627D01*
X271937627Y-133637467D01*
X271960306Y-133651495D01*
X271975353Y-133673599D01*
X271980823Y-133705900D01*
X271971493Y-133749116D01*
X271938782Y-133802528D01*
X271908121Y-133833462D01*
X271878470Y-133850104D01*
X271848657Y-133855376D01*
G37*
G36*
X271918357Y-134316446D02*
G01*
X271918357Y-134390818D01*
X271817343Y-134507229D01*
X271732886Y-134582243D01*
X271672849Y-134621044D01*
X271624985Y-134640901D01*
X271586340Y-134646723D01*
X271535781Y-134637229D01*
X271494922Y-134609184D01*
X271461318Y-134558796D01*
X271430793Y-134467638D01*
X271420377Y-134366638D01*
X271428528Y-134290525D01*
X271448037Y-134230717D01*
X271489986Y-134157077D01*
X271574116Y-134040231D01*
X271644510Y-133971093D01*
X271704093Y-133936102D01*
X271756424Y-133925718D01*
X271793283Y-133932071D01*
X271812285Y-133948076D01*
X271818890Y-133974811D01*
X271811006Y-134011711D01*
X271778406Y-134079408D01*
X271737264Y-134144324D01*
X271706233Y-134180799D01*
X271589912Y-134301242D01*
X271569573Y-134337574D01*
X271562801Y-134378545D01*
X271569711Y-134412468D01*
X271590461Y-134440277D01*
X271621430Y-134458548D01*
X271662177Y-134465006D01*
X271710427Y-134456937D01*
X271768240Y-134429652D01*
X271829360Y-134387688D01*
X271918357Y-134316446D01*
G37*
G36*
X272451812Y-133890640D02*
G01*
X272483474Y-133906759D01*
X272504228Y-133933443D01*
X272511684Y-133973071D01*
X272500300Y-134035852D01*
X272463508Y-134102031D01*
X272406306Y-134162785D01*
X272316412Y-134229434D01*
X272210739Y-134289175D01*
X272073146Y-134351159D01*
X272073146Y-134376987D01*
X272081155Y-134433027D01*
X272102822Y-134471967D01*
X272136871Y-134497381D01*
X272180766Y-134506039D01*
X272230838Y-134500382D01*
X272284722Y-134482500D01*
X272337588Y-134455503D01*
X272391792Y-134419944D01*
X272521943Y-134315438D01*
X272521943Y-134376987D01*
X272404514Y-134504914D01*
X272304689Y-134590211D01*
X272234372Y-134632513D01*
X272166230Y-134656520D01*
X272098792Y-134664309D01*
X272041494Y-134656232D01*
X271994146Y-134632938D01*
X271954261Y-134593509D01*
X271925968Y-134543599D01*
X271907704Y-134480146D01*
X271901047Y-134399610D01*
X271906770Y-134329156D01*
X271918432Y-134284114D01*
X272083405Y-134284114D01*
X272170516Y-134242681D01*
X272241216Y-134194263D01*
X272300606Y-134139197D01*
X272338028Y-134091590D01*
X272363270Y-134044737D01*
X272369260Y-134019782D01*
X272363706Y-134001803D01*
X272347736Y-133996060D01*
X272327211Y-134000618D01*
X272287836Y-134019874D01*
X272247049Y-134046495D01*
X272203755Y-134081789D01*
X272163792Y-134122926D01*
X272127460Y-134171640D01*
X272099552Y-134225529D01*
X272083405Y-134284114D01*
X271918432Y-134284114D01*
X271923536Y-134264400D01*
X271951239Y-134204247D01*
X272013096Y-134118891D01*
X272115187Y-134019050D01*
X272194763Y-133959314D01*
X272269884Y-133918574D01*
X272345567Y-133892447D01*
X272407179Y-133884685D01*
X272451812Y-133890640D01*
G37*
G36*
X273090006Y-133402988D02*
G01*
X273100615Y-133417205D01*
X273107851Y-133482509D01*
X273097149Y-133575430D01*
X273061075Y-133690536D01*
X272992080Y-133833578D01*
X272908580Y-133967811D01*
X272801945Y-134109265D01*
X272669313Y-134258743D01*
X272659054Y-134340809D01*
X272666593Y-134402140D01*
X272687173Y-134447421D01*
X272720850Y-134478169D01*
X272765666Y-134488454D01*
X272791045Y-134483889D01*
X272820896Y-134468487D01*
X272883453Y-134418845D01*
X273011588Y-134300967D01*
X273011588Y-134376621D01*
X272911216Y-134498022D01*
X272829424Y-134577984D01*
X272762932Y-134626306D01*
X272708567Y-134651108D01*
X272663176Y-134658447D01*
X272619225Y-134650088D01*
X272581756Y-134624901D01*
X272548870Y-134579037D01*
X272526968Y-134524417D01*
X272512618Y-134455862D01*
X272507380Y-134370301D01*
X272518482Y-134262067D01*
X272556564Y-134121723D01*
X272558774Y-134116136D01*
X272705216Y-134116136D01*
X272756904Y-134061054D01*
X272808165Y-133997159D01*
X272901954Y-133854644D01*
X272971105Y-133718173D01*
X272991110Y-133660644D01*
X272996201Y-133626948D01*
X272991597Y-133608540D01*
X272979806Y-133603318D01*
X272956267Y-133614583D01*
X272918596Y-133652741D01*
X272872373Y-133716615D01*
X272815858Y-133815168D01*
X272748729Y-133966489D01*
X272705216Y-134116136D01*
X272558774Y-134116136D01*
X272613172Y-133978619D01*
X272688180Y-133829548D01*
X272774283Y-133687776D01*
X272859364Y-133571169D01*
X272950029Y-133472615D01*
X273023862Y-133416838D01*
X273053530Y-133401971D01*
X273072039Y-133398154D01*
X273090006Y-133402988D01*
G37*
D11*
X265160119Y-95404819D02*
X265350595Y-95404819D01*
X265350595Y-95404819D02*
X265445833Y-95452438D01*
X265445833Y-95452438D02*
X265541071Y-95547676D01*
X265541071Y-95547676D02*
X265588690Y-95738152D01*
X265588690Y-95738152D02*
X265588690Y-96071485D01*
X265588690Y-96071485D02*
X265541071Y-96261961D01*
X265541071Y-96261961D02*
X265445833Y-96357200D01*
X265445833Y-96357200D02*
X265350595Y-96404819D01*
X265350595Y-96404819D02*
X265160119Y-96404819D01*
X265160119Y-96404819D02*
X265064881Y-96357200D01*
X265064881Y-96357200D02*
X264969643Y-96261961D01*
X264969643Y-96261961D02*
X264922024Y-96071485D01*
X264922024Y-96071485D02*
X264922024Y-95738152D01*
X264922024Y-95738152D02*
X264969643Y-95547676D01*
X264969643Y-95547676D02*
X265064881Y-95452438D01*
X265064881Y-95452438D02*
X265160119Y-95404819D01*
X266493452Y-96404819D02*
X266017262Y-96404819D01*
X266017262Y-96404819D02*
X266017262Y-95404819D01*
X266826786Y-95881009D02*
X267160119Y-95881009D01*
X267302976Y-96404819D02*
X266826786Y-96404819D01*
X266826786Y-96404819D02*
X266826786Y-95404819D01*
X266826786Y-95404819D02*
X267302976Y-95404819D01*
X267731548Y-96404819D02*
X267731548Y-95404819D01*
X267731548Y-95404819D02*
X267969643Y-95404819D01*
X267969643Y-95404819D02*
X268112500Y-95452438D01*
X268112500Y-95452438D02*
X268207738Y-95547676D01*
X268207738Y-95547676D02*
X268255357Y-95642914D01*
X268255357Y-95642914D02*
X268302976Y-95833390D01*
X268302976Y-95833390D02*
X268302976Y-95976247D01*
X268302976Y-95976247D02*
X268255357Y-96166723D01*
X268255357Y-96166723D02*
X268207738Y-96261961D01*
X268207738Y-96261961D02*
X268112500Y-96357200D01*
X268112500Y-96357200D02*
X267969643Y-96404819D01*
X267969643Y-96404819D02*
X267731548Y-96404819D01*
X274219700Y-112633332D02*
X274267319Y-112490475D01*
X274267319Y-112490475D02*
X274267319Y-112252380D01*
X274267319Y-112252380D02*
X274219700Y-112157142D01*
X274219700Y-112157142D02*
X274172080Y-112109523D01*
X274172080Y-112109523D02*
X274076842Y-112061904D01*
X274076842Y-112061904D02*
X273981604Y-112061904D01*
X273981604Y-112061904D02*
X273886366Y-112109523D01*
X273886366Y-112109523D02*
X273838747Y-112157142D01*
X273838747Y-112157142D02*
X273791128Y-112252380D01*
X273791128Y-112252380D02*
X273743509Y-112442856D01*
X273743509Y-112442856D02*
X273695890Y-112538094D01*
X273695890Y-112538094D02*
X273648271Y-112585713D01*
X273648271Y-112585713D02*
X273553033Y-112633332D01*
X273553033Y-112633332D02*
X273457795Y-112633332D01*
X273457795Y-112633332D02*
X273362557Y-112585713D01*
X273362557Y-112585713D02*
X273314938Y-112538094D01*
X273314938Y-112538094D02*
X273267319Y-112442856D01*
X273267319Y-112442856D02*
X273267319Y-112204761D01*
X273267319Y-112204761D02*
X273314938Y-112061904D01*
X273267319Y-111728570D02*
X274267319Y-111490475D01*
X274267319Y-111490475D02*
X273553033Y-111299999D01*
X273553033Y-111299999D02*
X274267319Y-111109523D01*
X274267319Y-111109523D02*
X273267319Y-110871428D01*
X274267319Y-109966666D02*
X274267319Y-110538094D01*
X274267319Y-110252380D02*
X273267319Y-110252380D01*
X273267319Y-110252380D02*
X273410176Y-110347618D01*
X273410176Y-110347618D02*
X273505414Y-110442856D01*
X273505414Y-110442856D02*
X273553033Y-110538094D01*
X277274700Y-104233332D02*
X277322319Y-104090475D01*
X277322319Y-104090475D02*
X277322319Y-103852380D01*
X277322319Y-103852380D02*
X277274700Y-103757142D01*
X277274700Y-103757142D02*
X277227080Y-103709523D01*
X277227080Y-103709523D02*
X277131842Y-103661904D01*
X277131842Y-103661904D02*
X277036604Y-103661904D01*
X277036604Y-103661904D02*
X276941366Y-103709523D01*
X276941366Y-103709523D02*
X276893747Y-103757142D01*
X276893747Y-103757142D02*
X276846128Y-103852380D01*
X276846128Y-103852380D02*
X276798509Y-104042856D01*
X276798509Y-104042856D02*
X276750890Y-104138094D01*
X276750890Y-104138094D02*
X276703271Y-104185713D01*
X276703271Y-104185713D02*
X276608033Y-104233332D01*
X276608033Y-104233332D02*
X276512795Y-104233332D01*
X276512795Y-104233332D02*
X276417557Y-104185713D01*
X276417557Y-104185713D02*
X276369938Y-104138094D01*
X276369938Y-104138094D02*
X276322319Y-104042856D01*
X276322319Y-104042856D02*
X276322319Y-103804761D01*
X276322319Y-103804761D02*
X276369938Y-103661904D01*
X276322319Y-103328570D02*
X277322319Y-103090475D01*
X277322319Y-103090475D02*
X276608033Y-102899999D01*
X276608033Y-102899999D02*
X277322319Y-102709523D01*
X277322319Y-102709523D02*
X276322319Y-102471428D01*
X276417557Y-102138094D02*
X276369938Y-102090475D01*
X276369938Y-102090475D02*
X276322319Y-101995237D01*
X276322319Y-101995237D02*
X276322319Y-101757142D01*
X276322319Y-101757142D02*
X276369938Y-101661904D01*
X276369938Y-101661904D02*
X276417557Y-101614285D01*
X276417557Y-101614285D02*
X276512795Y-101566666D01*
X276512795Y-101566666D02*
X276608033Y-101566666D01*
X276608033Y-101566666D02*
X276750890Y-101614285D01*
X276750890Y-101614285D02*
X277322319Y-102185713D01*
X277322319Y-102185713D02*
X277322319Y-101566666D01*
D12*
%TO.C,SW1*%
X260712500Y-114000000D02*
X260712500Y-109900000D01*
X260712500Y-122100000D02*
X260712500Y-118000000D01*
X263112500Y-122100000D02*
X260712500Y-122100000D01*
X266612500Y-115500000D02*
X266612500Y-116500000D01*
X267112500Y-116000000D02*
X266112500Y-116000000D01*
X267912500Y-122100000D02*
X265312500Y-122100000D01*
X270412500Y-108500000D02*
X270712500Y-108200000D01*
X270712500Y-108200000D02*
X270712500Y-108800000D01*
X270712500Y-108800000D02*
X270412500Y-108500000D01*
X272512500Y-109900000D02*
X260712500Y-109900000D01*
X272512500Y-114000000D02*
X272512500Y-109900000D01*
X272512500Y-118000000D02*
X272512500Y-122100000D01*
X272512500Y-122100000D02*
X270112500Y-122100000D01*
X269612500Y-116000000D02*
G75*
G02*
X263612500Y-116000000I-3000000J0D01*
G01*
X263612500Y-116000000D02*
G75*
G02*
X269612500Y-116000000I3000000J0D01*
G01*
%TO.C,SW2*%
X272487500Y-99040000D02*
X276387500Y-99040000D01*
X272487500Y-106760000D02*
X272487500Y-99040000D01*
X272487500Y-106760000D02*
X276387500Y-106760000D01*
X276157500Y-99560000D02*
X276387500Y-99560000D01*
X276157500Y-100100000D02*
X276157500Y-99560000D01*
X276157500Y-104600000D02*
X276157500Y-101200000D01*
X276157500Y-106240000D02*
X276157500Y-105700000D01*
X276157500Y-106240000D02*
X276387500Y-106240000D01*
D13*
%TO.C,U2*%
X257722500Y-60720000D02*
X275502500Y-60720000D01*
X257722500Y-93740000D02*
X257722500Y-60720000D01*
X275502500Y-60720000D02*
X275502500Y-93740000D01*
X275502500Y-93740000D02*
X257722500Y-93740000D01*
%TD*%
D14*
%TO.C,D6*%
X116100000Y-75500000D03*
D15*
X123900000Y-75500000D03*
%TD*%
D16*
%TO.C,J1*%
X262802500Y-97500000D03*
X265342500Y-97500000D03*
X267882500Y-97500000D03*
X270422500Y-97500000D03*
%TD*%
D14*
%TO.C,D39*%
X58600000Y-132500000D03*
D15*
X66400000Y-132500000D03*
%TD*%
D14*
%TO.C,D9*%
X173100000Y-75500000D03*
D15*
X180900000Y-75500000D03*
%TD*%
D14*
%TO.C,D35*%
X220600000Y-113500000D03*
D15*
X228400000Y-113500000D03*
%TD*%
D14*
%TO.C,D20*%
X159100000Y-94500000D03*
D15*
X166900000Y-94500000D03*
%TD*%
D14*
%TO.C,D1*%
X20600000Y-75500000D03*
D15*
X28400000Y-75500000D03*
%TD*%
D14*
%TO.C,D31*%
X144600000Y-113500000D03*
D15*
X152400000Y-113500000D03*
%TD*%
D14*
%TO.C,D27*%
X68600000Y-113500000D03*
D15*
X76400000Y-113500000D03*
%TD*%
D14*
%TO.C,D10*%
X192100000Y-75500000D03*
D15*
X199900000Y-75500000D03*
%TD*%
D14*
%TO.C,D11*%
X211100000Y-75500000D03*
D15*
X218900000Y-75500000D03*
%TD*%
D14*
%TO.C,D41*%
X111100000Y-132500000D03*
D15*
X118900000Y-132500000D03*
%TD*%
D14*
%TO.C,D34*%
X201600000Y-113500000D03*
D15*
X209400000Y-113500000D03*
%TD*%
D14*
%TO.C,D24*%
X237600000Y-94500000D03*
D15*
X245400000Y-94500000D03*
%TD*%
D14*
%TO.C,D48*%
X274770000Y-120640000D03*
D15*
X274770000Y-128440000D03*
%TD*%
D14*
%TO.C,D29*%
X106600000Y-113500000D03*
D15*
X114400000Y-113500000D03*
%TD*%
D14*
%TO.C,D44*%
X201600000Y-132500000D03*
D15*
X209400000Y-132500000D03*
%TD*%
D14*
%TO.C,D19*%
X139600000Y-94500000D03*
D15*
X147400000Y-94500000D03*
%TD*%
D14*
%TO.C,D8*%
X154100000Y-75500000D03*
D15*
X161900000Y-75500000D03*
%TD*%
D14*
%TO.C,D14*%
X44600000Y-94500000D03*
D15*
X52400000Y-94500000D03*
%TD*%
D14*
%TO.C,D22*%
X197000000Y-94500000D03*
D15*
X204800000Y-94500000D03*
%TD*%
D14*
%TO.C,D4*%
X78100000Y-75500000D03*
D15*
X85900000Y-75500000D03*
%TD*%
D14*
%TO.C,D32*%
X163600000Y-113500000D03*
D15*
X171400000Y-113500000D03*
%TD*%
D14*
%TO.C,D49*%
X276780000Y-119170000D03*
D15*
X276780000Y-126970000D03*
%TD*%
D14*
%TO.C,D2*%
X39600000Y-75500000D03*
D15*
X47400000Y-75500000D03*
%TD*%
D14*
%TO.C,D26*%
X49100000Y-113500000D03*
D15*
X56900000Y-113500000D03*
%TD*%
D14*
%TO.C,D25*%
X25600000Y-113500000D03*
D15*
X33400000Y-113500000D03*
%TD*%
D14*
%TO.C,D5*%
X97100000Y-75500000D03*
D15*
X104900000Y-75500000D03*
%TD*%
D14*
%TO.C,D45*%
X220600000Y-132500000D03*
D15*
X228400000Y-132500000D03*
%TD*%
D14*
%TO.C,D12*%
X235100000Y-75500000D03*
D15*
X242900000Y-75500000D03*
%TD*%
D14*
%TO.C,D33*%
X182600000Y-113500000D03*
D15*
X190400000Y-113500000D03*
%TD*%
D14*
%TO.C,D28*%
X87600000Y-113500000D03*
D15*
X95400000Y-113500000D03*
%TD*%
D14*
%TO.C,D15*%
X63600000Y-94500000D03*
D15*
X71400000Y-94500000D03*
%TD*%
D14*
%TO.C,D7*%
X135100000Y-75500000D03*
D15*
X142900000Y-75500000D03*
%TD*%
D14*
%TO.C,D37*%
X20680000Y-132500000D03*
D15*
X28480000Y-132500000D03*
%TD*%
D14*
%TO.C,D16*%
X82600000Y-94500000D03*
D15*
X90400000Y-94500000D03*
%TD*%
D14*
%TO.C,D17*%
X101600000Y-94500000D03*
D15*
X109400000Y-94500000D03*
%TD*%
D14*
%TO.C,D38*%
X39600000Y-132500000D03*
D15*
X47400000Y-132500000D03*
%TD*%
D14*
%TO.C,D46*%
X239600000Y-132500000D03*
D15*
X247400000Y-132500000D03*
%TD*%
D14*
%TO.C,D23*%
X216100000Y-94500000D03*
D15*
X223900000Y-94500000D03*
%TD*%
D14*
%TO.C,D43*%
X180100000Y-132500000D03*
D15*
X187900000Y-132500000D03*
%TD*%
D14*
%TO.C,D47*%
X262625000Y-129875000D03*
D15*
X270425000Y-129875000D03*
%TD*%
D14*
%TO.C,D40*%
X80100000Y-132500000D03*
D15*
X87900000Y-132500000D03*
%TD*%
D14*
%TO.C,D18*%
X120600000Y-94500000D03*
D15*
X128400000Y-94500000D03*
%TD*%
D14*
%TO.C,D13*%
X23100000Y-94500000D03*
D15*
X30900000Y-94500000D03*
%TD*%
D14*
%TO.C,D36*%
X239600000Y-113500000D03*
D15*
X247400000Y-113500000D03*
%TD*%
D14*
%TO.C,D30*%
X125600000Y-113500000D03*
D15*
X133400000Y-113500000D03*
%TD*%
D14*
%TO.C,D3*%
X59100000Y-75500000D03*
D15*
X66900000Y-75500000D03*
%TD*%
D14*
%TO.C,D21*%
X178000000Y-94500000D03*
D15*
X185800000Y-94500000D03*
%TD*%
D14*
%TO.C,D42*%
X149100000Y-132500000D03*
D15*
X156900000Y-132500000D03*
%TD*%
D17*
%TO.C,U2*%
X274232500Y-64530000D03*
X274232500Y-67070000D03*
X274232500Y-69610000D03*
X274232500Y-72150000D03*
X274232500Y-74690000D03*
X274232500Y-77230000D03*
X274232500Y-79770000D03*
X274232500Y-82310000D03*
X274232500Y-84850000D03*
X274232500Y-87390000D03*
X274232500Y-89930000D03*
X274232500Y-92470000D03*
X258992500Y-92470000D03*
X258992500Y-89930000D03*
X258992500Y-87390000D03*
X258992500Y-84850000D03*
X258992500Y-82310000D03*
X258992500Y-79770000D03*
X258992500Y-77230000D03*
X258992500Y-74690000D03*
X258992500Y-72150000D03*
X258992500Y-69610000D03*
X258992500Y-67070000D03*
X258992500Y-64530000D03*
X271692500Y-87390000D03*
X269152500Y-87390000D03*
X266612500Y-87390000D03*
%TD*%
M02*
